<?xml version="1.0" standalone="no"?>
<!DOCTYPE svg PUBLIC "-//W3C//DTD SVG 20010904//EN"
 "http://www.w3.org/TR/2001/REC-SVG-20010904/DTD/svg10.dtd">
<svg version="1.0" xmlns="http://www.w3.org/2000/svg"
 width="1617.000000pt" height="1213.000000pt" viewBox="0 0 1617.000000 1213.000000"
 preserveAspectRatio="xMidYMid meet">

<g transform="translate(0.000000,1213.000000) scale(0.100000,-0.100000)"
fill="#000000" stroke="none">
<path d="M3194 11736 c-31 -31 -55 -67 -59 -86 -4 -20 -15 -34 -26 -37 -11 -3
-19 -14 -19 -27 0 -13 -11 -54 -24 -92 -34 -97 -68 -233 -61 -244 4 -6 10 -10
14 -10 8 0 78 186 128 342 22 67 37 96 71 132 24 25 50 46 58 46 47 0 40 -141
-16 -298 -37 -103 -39 -113 -23 -119 7 -2 19 11 26 29 8 18 28 46 45 62 l31
28 37 -36 c21 -21 47 -36 61 -36 28 0 28 -4 4 -38 -32 -47 -47 -98 -32 -116
18 -22 32 -20 112 14 88 37 134 69 121 82 -7 7 -25 1 -54 -15 -52 -31 -149
-70 -155 -63 -10 9 38 95 79 141 30 34 38 49 30 57 -9 9 -18 6 -35 -10 -34
-32 -70 -28 -116 13 -41 37 -59 42 -80 23 -12 -11 -13 -9 -7 7 12 33 36 177
36 216 0 47 -32 89 -68 89 -18 0 -41 -16 -78 -54z"/>
<path d="M9659 11596 c-30 -65 -45 -86 -59 -86 -22 0 -26 -10 -10 -26 6 -6 -8
-30 -39 -66 -35 -41 -51 -54 -59 -46 -8 8 -14 4 -22 -16 -14 -37 -13 -66 3
-65 12 0 148 156 155 178 2 6 12 11 23 11 17 0 18 -6 13 -62 -4 -35 -10 -80
-14 -101 -8 -37 3 -58 20 -41 5 5 14 52 20 104 7 52 14 97 16 99 2 2 16 5 31
6 16 1 38 3 51 3 13 1 22 9 22 18 0 14 -9 16 -55 11 -54 -5 -54 -5 -50 22 5
33 16 119 16 128 0 4 -4 9 -10 11 -7 2 -30 -35 -52 -82z m8 -78 c-3 -8 -6 -5
-6 6 -1 11 2 17 5 13 3 -3 4 -12 1 -19z"/>
<path d="M10580 11660 c-6 -11 -8 -24 -6 -29 7 -10 -25 -96 -78 -218 -65 -146
-42 -173 62 -70 62 61 63 61 47 25 -8 -21 -15 -51 -15 -68 0 -41 30 -40 100 4
l55 35 5 -32 c10 -61 96 -57 119 6 12 32 2 97 -15 97 -16 0 -18 -9 -15 -62 2
-28 -2 -39 -18 -48 -44 -23 -53 12 -21 75 29 57 10 66 -39 17 -22 -22 -37 -43
-33 -47 4 -5 1 -5 -5 -1 -13 7 -73 -22 -73 -34 0 -4 -7 -7 -15 -7 -21 0 -19
14 15 85 29 63 31 82 7 82 -7 0 -44 -31 -82 -70 -38 -38 -70 -68 -72 -66 -2 1
24 70 57 152 33 82 60 159 60 172 0 28 -25 29 -40 2z"/>
<path d="M6992 11633 c-5 -10 -15 -36 -22 -58 -7 -22 -19 -49 -26 -60 -11 -17
-24 -71 -38 -157 -1 -10 -5 -21 -9 -24 -12 -13 -8 -46 6 -42 10 4 30 33 39 60
5 13 119 49 145 46 l25 -3 -32 -43 c-28 -39 -34 -73 -13 -71 10 0 83 113 83
128 0 19 -41 28 -89 19 -25 -4 -47 -11 -50 -16 -4 -4 -18 -8 -33 -10 -32 -3
-35 9 -16 73 6 22 11 43 10 48 -1 4 2 7 6 7 5 0 14 17 20 39 7 21 19 44 27 51
8 7 12 16 9 21 -9 15 -33 10 -42 -8z"/>
<path d="M5929 11623 c-79 -33 -138 -119 -146 -213 -10 -111 55 -192 141 -175
39 9 112 49 149 83 23 22 27 23 27 8 0 -24 39 -94 57 -100 20 -8 41 3 49 26 7
24 -2 36 -18 20 -18 -18 -26 -15 -43 18 -20 40 -19 79 5 115 46 70 11 165 -67
180 -21 4 -49 15 -63 24 -39 28 -54 30 -91 14z m65 -32 c8 -12 -40 -42 -62
-39 -23 4 -23 -36 0 -40 9 -2 30 6 46 18 20 15 44 22 78 22 58 0 84 -25 84
-79 0 -30 -2 -34 -15 -23 -21 17 -32 5 -27 -30 5 -37 -27 -77 -95 -116 -58
-35 -98 -45 -131 -33 -37 13 -53 41 -59 104 -6 54 18 127 55 169 39 44 112 71
126 47z"/>
<path d="M12175 11636 c-5 -2 -45 -12 -87 -22 -46 -10 -78 -22 -78 -29 0 -21
27 -25 57 -10 78 39 231 39 263 0 17 -21 30 -19 30 5 0 27 -51 51 -119 56 -31
2 -60 2 -66 0z"/>
<path d="M4504 11601 c-22 -15 -52 -43 -67 -60 -15 -18 -27 -29 -27 -24 0 5 5
14 11 20 13 13 4 33 -16 33 -8 0 -20 -28 -31 -72 -9 -40 -30 -110 -45 -155
-19 -56 -24 -85 -17 -89 16 -10 34 20 57 96 24 78 90 182 140 219 l35 26 -24
-42 c-12 -23 -43 -65 -67 -92 -51 -59 -50 -59 56 -63 46 -2 76 -8 78 -15 2 -6
-25 -43 -61 -81 -36 -38 -66 -74 -66 -80 0 -30 23 -14 88 59 102 113 96 149
-22 149 l-56 0 36 47 c55 72 78 122 63 139 -16 19 -20 18 -65 -15z"/>
<path d="M12695 11620 c-3 -5 -4 -14 -1 -18 6 -10 -14 -69 -35 -102 -9 -14
-24 -46 -33 -71 -11 -29 -28 -52 -47 -63 -31 -18 -30 -41 2 -33 16 4 18 1 13
-21 -4 -15 -12 -40 -20 -55 -11 -24 -11 -29 3 -34 19 -7 29 9 44 72 15 65 24
75 69 75 38 0 71 -22 50 -35 -15 -9 -12 -55 4 -55 7 0 19 14 26 31 14 34 71
76 110 81 24 3 25 0 26 -45 0 -26 6 -53 13 -60 34 -34 161 11 161 58 0 31 -21
46 -69 48 -41 2 -62 -15 -26 -22 11 -2 31 -8 45 -13 l25 -10 -24 -19 c-13 -10
-38 -19 -57 -19 -34 0 -34 0 -34 49 0 31 -5 53 -15 61 -20 17 -70 6 -115 -24
-32 -21 -38 -22 -55 -10 -10 8 -38 14 -62 14 -24 0 -43 2 -43 5 0 3 14 36 31
73 28 58 59 138 59 148 0 9 -39 3 -45 -6z"/>
<path d="M11226 11578 c-1 -7 -11 -35 -20 -63 -10 -27 -23 -66 -29 -87 -8 -28
-17 -37 -40 -42 -33 -7 -32 -32 1 -29 19 2 19 0 10 -35 -6 -20 -16 -49 -24
-64 -18 -36 -18 -50 2 -46 11 2 27 31 43 78 23 64 30 75 51 78 14 2 32 6 40 9
8 3 26 6 40 7 14 1 37 3 53 4 17 1 27 8 27 18 0 14 -7 15 -42 10 -68 -12 -138
-19 -138 -14 0 2 14 41 30 86 17 46 30 87 30 92 0 15 -30 12 -34 -2z"/>
<path d="M12152 11488 c-17 -51 -34 -109 -37 -128 -11 -53 -18 -57 -77 -49
-29 3 -57 4 -62 1 -18 -10 29 -32 71 -32 44 0 49 -5 34 -28 -7 -11 -9 -11 -14
2 -10 25 -27 19 -27 -10 0 -19 4 -25 15 -20 11 4 15 0 13 -12 -6 -36 26 -15
40 26 13 41 15 42 57 42 52 0 99 16 90 31 -5 6 -27 8 -62 3 l-55 -7 7 44 c4
24 20 82 36 128 27 79 29 101 9 101 -4 0 -22 -42 -38 -92z"/>
<path d="M7164 11554 c1 -9 10 -20 19 -26 9 -5 17 -15 17 -23 0 -17 16 -28 29
-21 13 8 3 40 -20 65 -23 25 -48 28 -45 5z"/>
<path d="M10442 11529 c-20 -6 -30 -14 -26 -21 4 -6 3 -8 -4 -4 -15 9 -89 -22
-96 -41 -6 -14 6 -27 63 -71 l24 -19 -32 -22 c-17 -13 -38 -24 -46 -25 -26 -4
-41 -24 -27 -38 15 -15 125 51 131 78 2 12 -12 32 -39 55 l-42 36 59 22 c32
13 68 27 81 32 13 5 20 14 17 19 -7 12 -18 12 -63 -1z"/>
<path d="M8175 11510 c-3 -6 0 -13 8 -16 24 -9 80 0 85 14 5 15 -84 17 -93 2z"/>
<path d="M4775 11500 c-9 -15 -5 -18 30 -22 21 -2 30 1 30 12 0 18 -50 26 -60
10z"/>
<path d="M7826 11494 c-10 -25 -7 -47 9 -78 8 -15 15 -34 15 -42 0 -23 -45
-46 -75 -38 -23 6 -26 4 -23 -12 5 -27 55 -29 96 -4 37 23 42 57 16 110 -13
25 -14 37 -6 50 6 10 8 21 5 24 -12 11 -31 6 -37 -10z"/>
<path d="M6717 11459 c-17 -19 -17 -24 -3 -66 18 -52 15 -63 -15 -56 -17 5
-20 2 -17 -13 5 -27 40 -29 63 -4 17 19 18 24 3 68 -12 40 -13 50 -1 60 7 7
13 17 13 22 0 17 -25 11 -43 -11z"/>
<path d="M7363 11455 c-38 -16 -40 -27 -13 -62 26 -33 16 -46 -28 -38 -54 10
-70 21 -77 55 -10 44 -40 41 -31 -2 8 -44 46 -75 100 -83 75 -12 106 22 70 74
-14 19 -14 25 -3 32 16 10 41 11 63 3 19 -7 21 -55 5 -86 -8 -15 -8 -23 0 -31
8 -8 27 4 68 46 57 58 90 70 112 43 6 -7 9 -20 6 -28 -4 -9 1 -23 10 -31 13
-14 20 -14 36 -4 20 12 20 34 0 30 -6 -2 -11 6 -11 16 0 10 -8 29 -18 42 -26
31 -72 29 -116 -4 -41 -32 -46 -33 -46 -9 0 47 -64 65 -127 37z"/>
<path d="M12353 11448 c4 -14 -3 -38 -18 -65 -14 -23 -25 -44 -25 -47 0 -10
39 -6 45 4 11 17 126 92 132 86 4 -3 1 -17 -5 -31 -17 -37 -15 -85 3 -85 9 0
15 9 15 24 0 13 9 44 21 70 11 25 17 51 13 57 -10 17 -60 3 -109 -31 l-44 -30
9 29 c9 33 5 41 -23 41 -15 0 -18 -5 -14 -22z"/>
<path d="M6413 11444 c-3 -8 -1 -20 5 -26 13 -13 0 -43 -26 -57 -9 -5 -36 -12
-59 -16 -41 -6 -43 -5 -43 17 0 13 5 29 12 36 8 8 9 15 2 22 -13 13 -40 -15
-49 -51 -11 -43 18 -62 79 -55 81 11 136 64 122 119 -7 30 -33 36 -43 11z"/>
<path d="M6544 11424 c-37 -39 -45 -83 -19 -104 20 -16 116 -1 123 19 4 11 -6
13 -52 7 -51 -6 -56 -4 -56 13 0 10 7 24 15 31 8 7 15 9 15 6 0 -4 9 -2 20 4
25 13 28 60 4 60 -9 0 -32 -16 -50 -36z"/>
<path d="M11016 11380 c-26 -28 -46 -56 -44 -62 8 -24 26 -18 47 17 11 19 29
38 38 42 30 10 42 24 36 39 -9 25 -29 15 -77 -36z"/>
<path d="M4716 11398 c-9 -35 -7 -106 3 -113 14 -8 19 4 22 69 4 60 -12 89
-25 44z"/>
<path d="M4930 11378 l-35 -32 -3 27 c-4 33 -19 35 -33 3 -16 -34 4 -69 34
-60 12 3 31 15 43 25 11 11 24 19 28 19 4 0 6 -37 4 -82 l-3 -81 -41 -14 c-75
-25 -118 -97 -100 -167 8 -31 39 -50 67 -41 28 9 75 85 89 146 l12 49 44 0
c32 0 44 4 44 15 0 11 -11 15 -41 15 l-41 0 2 68 c4 124 2 142 -17 142 -10 0
-34 -15 -53 -32z m30 -223 c0 -19 -44 -116 -61 -134 -16 -17 -24 -20 -35 -10
-17 14 -18 56 -1 89 14 29 97 76 97 55z"/>
<path d="M8185 11360 c-3 -6 1 -13 10 -16 19 -8 30 0 20 15 -8 14 -22 14 -30
1z"/>
<path d="M5897 10821 c-5 -37 -124 -314 -153 -356 -18 -25 -18 -35 0 -35 8 0
37 26 65 58 l51 57 0 -65 c0 -129 47 -143 160 -50 25 21 55 43 68 49 20 11 22
10 22 -18 0 -18 -27 -75 -76 -156 -41 -70 -74 -134 -72 -143 5 -24 44 -22 40
1 -3 19 46 113 106 204 25 38 34 63 35 100 2 42 -1 48 -20 51 -27 4 -67 -17
-124 -64 -54 -45 -89 -60 -101 -42 -5 7 -7 45 -4 83 6 85 -2 104 -38 87 l-25
-11 19 42 c10 23 30 68 44 99 28 62 38 138 20 145 -7 2 -13 -13 -17 -36z"/>
<path d="M4372 10818 c1 -13 -4 -40 -11 -60 -7 -21 -10 -42 -6 -48 3 -5 2 -10
-3 -10 -10 0 -102 -237 -102 -263 0 -29 24 -19 75 34 73 74 81 76 76 22 -3
-38 0 -45 18 -50 11 -3 18 -9 15 -14 -3 -5 2 -9 10 -9 8 0 18 5 21 10 3 6 1
10 -5 10 -6 0 -8 5 -5 10 4 6 1 9 -7 8 -10 -2 -13 12 -13 57 0 77 -15 81 -83
20 -29 -26 -52 -45 -52 -42 0 2 11 35 25 71 14 37 23 72 20 77 -4 5 -2 9 4 9
13 0 64 157 57 175 -9 24 -36 18 -34 -7z"/>
<path d="M4791 10713 c-94 -216 -111 -260 -111 -295 0 -34 14 -57 26 -45 3 3
6 25 8 49 1 27 27 98 68 193 79 180 84 195 65 195 -8 0 -32 -41 -56 -97z"/>
<path d="M2837 10683 c-25 -60 -49 -121 -53 -137 -6 -26 -9 -28 -45 -23 -44 6
-56 -4 -33 -27 10 -11 24 -14 41 -10 22 6 24 4 19 -14 -10 -30 -11 -116 -2
-130 14 -23 26 -1 26 47 0 96 5 105 69 124 31 9 60 17 64 17 4 0 0 -16 -8 -36
-20 -47 -20 -100 0 -108 22 -8 56 8 87 40 35 38 44 78 25 107 -22 34 -118 35
-199 2 -23 -9 -15 19 38 134 47 100 52 121 30 121 -7 0 -33 -46 -59 -107z
m168 -173 c5 -9 -30 -80 -40 -80 -2 0 -10 -3 -19 -6 -27 -10 -19 32 12 65 30
33 38 36 47 21z"/>
<path d="M4622 10634 c2 -11 11 -20 22 -22 13 -3 17 1 14 14 -2 11 -11 20 -22
22 -13 3 -17 -1 -14 -14z"/>
<path d="M5565 10546 c-36 -37 -65 -73 -65 -82 0 -8 -16 -62 -35 -120 -39
-117 -41 -124 -21 -124 13 0 48 75 61 131 5 19 15 28 34 32 39 8 117 96 131
147 15 54 10 74 -18 78 -17 3 -39 -13 -87 -62z m75 -8 c-11 -37 -45 -88 -60
-88 -16 0 -20 33 -5 50 8 9 15 22 15 28 0 11 50 55 56 49 2 -2 -1 -19 -6 -39z
m-99 -101 c-10 -9 -11 -8 -5 6 3 10 9 15 12 12 3 -3 0 -11 -7 -18z"/>
<path d="M4073 10589 c-12 -4 -36 -27 -52 -51 -17 -24 -36 -50 -44 -58 -15
-17 -107 -317 -107 -349 0 -12 6 -21 14 -21 38 0 90 129 101 252 6 67 12 86
46 138 34 53 43 61 67 58 24 -3 27 -7 30 -49 3 -51 -22 -94 -54 -94 -24 0 -51
-52 -35 -68 14 -14 72 31 102 79 53 87 9 192 -68 163z"/>
<path d="M5153 10570 c-42 -25 -41 -42 4 -79 31 -25 34 -32 23 -45 -7 -9 -25
-16 -41 -16 -19 0 -29 -5 -29 -15 0 -10 10 -15 31 -15 38 0 65 14 80 41 9 18
5 26 -32 60 l-42 38 27 11 c15 5 36 10 47 10 12 0 19 5 17 12 -7 20 -51 19
-85 -2z"/>
<path d="M4874 10555 c-3 -8 -3 -18 0 -24 4 -5 0 -13 -7 -18 -17 -10 -47 -66
-47 -87 0 -26 38 -45 70 -36 39 11 99 60 106 87 7 25 -9 59 -34 71 -35 19 -83
22 -88 7z m80 -41 c9 -8 16 -19 16 -24 0 -16 -75 -70 -97 -70 -28 0 -28 0 2
60 27 53 50 63 79 34z"/>
<path d="M4565 10504 c-19 -46 -17 -99 5 -99 9 0 14 8 12 20 -1 11 3 37 10 58
8 27 8 41 0 49 -8 8 -15 0 -27 -28z"/>
<path d="M5314 10511 c-2 -2 -4 -15 -4 -27 0 -13 -4 -26 -10 -29 -17 -11 -11
-54 9 -65 22 -11 47 -5 74 18 23 20 22 48 -3 65 -18 13 -19 15 -5 21 25 9 8
25 -26 23 -17 -1 -32 -4 -35 -6z m56 -70 c0 -11 -39 -25 -47 -18 -3 3 -2 10 2
16 8 13 45 15 45 2z"/>
<path d="M6400 10444 c-11 -13 -9 -19 11 -40 17 -16 31 -23 43 -18 26 10 12
29 -20 27 -16 0 -23 1 -16 4 14 5 17 43 3 43 -5 0 -14 -7 -21 -16z"/>
<path d="M3608 10069 c-37 -27 -84 -107 -109 -183 -15 -46 -28 -67 -46 -75
-19 -9 -22 -15 -15 -28 6 -11 6 -25 -1 -40 -8 -17 -7 -30 3 -48 12 -22 11 -38
-8 -118 -26 -108 -28 -157 -8 -157 13 0 40 93 61 212 6 32 15 42 59 67 83 47
133 105 156 179 48 155 -2 259 -92 191z m73 -31 c15 -28 5 -122 -19 -179 -20
-46 -80 -107 -132 -134 -30 -16 -31 -15 -25 7 2 13 14 65 25 116 20 95 45 149
89 190 30 28 47 28 62 0z"/>
<path d="M8503 10075 c-32 -23 -91 -125 -149 -258 -45 -106 -54 -121 -90 -141
-43 -24 -53 -52 -16 -49 l22 3 -20 -43 c-12 -23 -28 -55 -37 -70 -9 -18 -12
-32 -6 -38 16 -16 43 1 48 30 3 14 18 51 33 81 27 54 28 55 101 77 41 12 78
26 83 31 20 20 -13 21 -74 2 -34 -11 -64 -20 -65 -20 -6 0 43 116 91 215 63
128 137 218 105 127 -6 -18 -17 -32 -25 -32 -20 0 -47 -57 -32 -66 7 -4 18 2
26 14 8 12 20 22 27 22 16 0 48 80 43 106 -4 24 -37 29 -65 9z"/>
<path d="M9856 10031 c-9 -10 -16 -22 -14 -27 1 -5 -47 -108 -107 -228 -68
-138 -104 -221 -97 -224 7 -2 12 -8 12 -14 0 -6 -7 -8 -15 -4 -8 3 -19 -3 -25
-14 -33 -62 16 -51 63 14 21 29 56 70 78 92 l41 39 -6 -56 c-6 -44 -4 -58 9
-69 8 -7 18 -10 22 -7 7 8 12 136 5 155 -8 23 -33 12 -89 -40 l-56 -53 109
215 c60 118 109 219 109 224 0 18 -22 16 -39 -3z"/>
<path d="M5880 10009 c-77 -31 -125 -118 -175 -319 -17 -67 -31 -86 -51 -69
-7 6 -15 4 -23 -5 -12 -15 1 -32 17 -22 4 2 14 1 21 -3 11 -7 11 -21 3 -67 -6
-33 -7 -63 -2 -68 14 -14 30 3 30 32 0 15 3 44 6 64 7 40 3 38 105 52 37 4 37
4 36 -31 -1 -52 36 -81 100 -79 61 1 63 19 3 26 -59 7 -70 15 -70 50 0 32 15
46 43 41 40 -6 77 59 41 73 -28 11 -45 6 -67 -18 -18 -19 -38 -26 -99 -33
l-77 -9 6 30 c16 86 75 244 106 281 18 22 37 41 42 42 6 1 23 5 38 8 17 5 27
3 27 -4 0 -6 7 -11 16 -11 10 0 14 7 12 23 -3 25 -46 33 -88 16z m70 -353 c0
-3 -4 -8 -10 -11 -5 -3 -10 -1 -10 4 0 6 5 11 10 11 6 0 10 -2 10 -4z"/>
<path d="M10215 9938 c-3 -7 -16 -44 -30 -83 -15 -38 -39 -106 -55 -150 -16
-44 -43 -114 -59 -155 -36 -87 -40 -123 -14 -118 11 2 20 16 24 38 4 19 12 49
17 65 8 24 10 25 11 9 1 -30 26 -47 67 -46 47 2 120 35 134 61 9 18 7 25 -14
46 -14 14 -31 25 -39 25 -8 0 -21 10 -30 23 l-15 22 -41 -33 c-22 -18 -41 -31
-41 -29 0 3 11 35 25 71 14 37 23 72 20 77 -4 5 -3 9 2 9 9 0 50 100 59 148 4
21 3 32 -5 32 -6 0 -14 -6 -16 -12z m33 -338 c17 -7 32 -18 32 -25 0 -16 -71
-45 -110 -45 -33 0 -37 12 -16 49 8 14 12 31 9 38 -5 13 13 9 85 -17z"/>
<path d="M11229 9888 c-7 -24 -28 -69 -46 -101 -18 -33 -33 -61 -33 -64 0 -3
-30 -50 -66 -105 -48 -73 -63 -103 -55 -111 8 -8 28 6 71 52 59 62 60 62 60
32 0 -16 4 -32 9 -36 6 -3 51 10 100 30 121 47 128 46 91 -10 -11 -16 -20 -37
-20 -46 0 -9 -13 -33 -30 -54 -49 -62 -36 -94 33 -81 45 9 65 22 51 36 -7 7
-20 7 -43 -1 -17 -6 -34 -9 -37 -6 -3 3 11 23 30 45 20 22 36 49 36 61 0 12
11 39 25 61 14 22 25 47 25 56 0 24 -55 15 -154 -25 -43 -17 -81 -30 -83 -27
-3 2 5 25 16 51 18 40 18 47 5 52 -8 3 -26 -4 -39 -17 -17 -16 -6 13 40 106
36 70 62 131 59 136 -12 20 -32 5 -45 -34z"/>
<path d="M6454 9882 c-6 -4 -11 -20 -12 -37 -1 -27 -40 -218 -45 -220 -30 -11
-81 -45 -89 -58 -14 -26 -2 -64 23 -72 27 -9 56 18 79 71 16 37 24 43 90 68
40 15 74 25 76 23 2 -2 -7 -32 -21 -66 -26 -68 -24 -91 9 -91 46 0 146 116
146 168 0 27 -29 9 -40 -24 -12 -35 -87 -121 -97 -111 -2 3 5 33 18 67 20 56
21 63 6 77 -13 14 -21 14 -61 2 -24 -7 -42 -17 -39 -23 3 -5 1 -6 -5 -2 -6 4
-20 3 -30 -3 -11 -6 -24 -6 -33 0 -8 5 -9 9 -2 9 6 0 21 41 32 91 12 50 24
101 27 115 6 24 -8 32 -32 16z m-89 -338 c-13 -20 -20 -23 -28 -14 -9 9 -6 16
12 31 31 25 39 17 16 -17z"/>
<path d="M9587 9842 c-8 -9 -35 -52 -60 -95 -25 -43 -47 -73 -49 -66 -7 22
-38 1 -38 -25 0 -27 -67 -221 -94 -273 -20 -40 -20 -53 -1 -53 9 0 24 19 34
43 11 23 42 92 70 152 28 61 46 112 41 113 -17 6 -11 22 8 22 11 0 31 26 57
71 22 39 41 66 43 61 5 -16 -47 -155 -69 -185 -16 -22 -18 -32 -9 -40 16 -17
42 20 76 108 34 85 44 169 21 178 -8 3 -22 -2 -30 -11z"/>
<path d="M3867 9793 c-12 -11 -8 -23 7 -23 7 0 19 -13 26 -30 13 -31 24 -37
35 -20 10 16 -26 80 -44 80 -10 0 -21 -3 -24 -7z"/>
<path d="M10021 9756 c-7 -9 -8 -17 -2 -20 13 -8 61 11 61 24 0 15 -46 12 -59
-4z"/>
<path d="M10502 9739 c-18 -6 -32 -15 -29 -22 2 -6 -5 -20 -15 -31 -24 -26
-23 -57 2 -89 26 -33 26 -34 -10 -42 -42 -9 -39 -35 3 -35 31 0 67 24 67 44 0
5 -11 21 -25 38 -14 16 -25 36 -25 43 0 8 20 29 45 47 66 49 60 68 -13 47z"/>
<path d="M7120 9711 c-5 -11 -10 -31 -10 -45 0 -39 -15 -70 -50 -102 -73 -65
-73 -66 -59 -74 18 -11 108 65 124 105 19 44 29 135 16 135 -6 0 -15 -9 -21
-19z"/>
<path d="M10920 9691 c-22 -21 -43 -34 -46 -30 -10 17 -24 9 -30 -18 -9 -35
-59 -129 -112 -212 -45 -68 -51 -91 -27 -91 16 0 69 76 107 154 17 37 27 46
42 42 21 -5 118 80 142 126 39 75 -9 93 -76 29z m45 -18 c-28 -44 -57 -73 -67
-67 -8 5 68 94 80 94 2 0 -4 -12 -13 -27z"/>
<path d="M11855 9723 c-30 -8 -47 -25 -36 -36 6 -6 23 -5 46 3 20 7 77 12 126
12 66 0 89 4 89 13 0 10 -25 13 -102 13 -57 0 -112 -2 -123 -5z"/>
<path d="M6891 9666 l-42 -43 -29 28 c-16 16 -33 29 -38 29 -25 0 -109 -130
-97 -150 10 -16 34 1 45 33 6 18 19 43 30 57 l19 25 24 -23 c20 -19 24 -30 20
-61 -3 -21 0 -48 7 -60 9 -19 17 -21 43 -16 34 8 97 50 97 66 0 15 -26 10 -52
-10 -39 -31 -62 -31 -66 1 -2 15 4 32 13 40 73 58 108 96 102 112 -10 26 -30
19 -76 -28z"/>
<path d="M3666 9677 c-15 -15 -29 -49 -39 -93 -20 -86 -9 -105 33 -54 32 38
39 66 15 56 -19 -7 -19 8 1 50 14 29 19 32 45 27 33 -6 40 11 10 27 -29 15
-39 13 -65 -13z"/>
<path d="M4069 9657 l-40 -42 3 30 c4 39 -25 45 -59 13 -42 -39 -84 -157 -52
-146 7 2 19 22 28 44 9 23 24 52 34 65 l17 24 -6 -40 c-4 -22 -7 -44 -8 -49 0
-6 6 -11 15 -13 10 -3 25 9 37 29 27 43 75 89 72 68 -7 -50 16 -53 70 -10 21
17 48 30 60 30 21 0 22 -6 3 -56 -2 -6 3 -17 12 -24 14 -12 22 -11 51 5 19 10
34 21 34 24 0 4 11 8 25 9 18 1 25 -3 25 -17 0 -10 10 -26 21 -37 21 -19 22
-19 33 0 6 11 26 36 43 55 l32 36 1 -27 c0 -19 10 -34 33 -51 50 -37 66 -40
105 -15 l35 21 -7 -39 c-4 -21 -23 -79 -42 -128 -39 -100 -42 -136 -15 -160
21 -19 42 -3 22 17 -17 17 -13 42 23 137 40 104 57 181 44 204 -12 22 -21 20
-56 -9 -35 -29 -53 -31 -87 -9 -19 12 -25 25 -25 50 0 55 -24 54 -81 -2 -48
-48 -49 -48 -49 -21 0 40 -25 44 -85 14 l-52 -25 1 36 c1 35 -1 37 -32 40 -24
2 -46 -5 -73 -22 l-39 -26 0 24 c0 41 -27 39 -71 -7z"/>
<path d="M10663 9669 c-32 -9 -43 -31 -23 -44 6 -3 10 -23 10 -44 0 -69 53
-79 91 -18 44 73 3 129 -78 106z m65 -50 c2 -9 -8 -30 -22 -45 -27 -31 -31
-24 -20 35 7 34 36 40 42 10z"/>
<path d="M9924 9653 c-3 -10 -16 -42 -30 -71 -28 -60 -31 -102 -9 -102 8 0 16
3 16 8 1 4 3 16 4 27 1 11 12 39 24 63 12 23 19 47 16 52 -3 5 -1 11 5 15 12
7 4 25 -11 25 -5 0 -12 -8 -15 -17z"/>
<path d="M3809 9633 c-42 -50 -61 -144 -23 -112 8 6 14 16 14 21 0 5 9 28 20
50 21 44 14 71 -11 41z"/>
<path d="M5560 9637 c0 -8 11 -19 25 -25 23 -11 25 -10 25 13 0 20 -5 25 -25
25 -14 0 -25 -6 -25 -13z"/>
<path d="M6160 9643 c-27 -10 -90 -77 -90 -95 0 -24 27 -23 65 2 40 26 45 25
45 -10 0 -39 25 -53 63 -34 15 9 26 21 24 27 -5 13 -11 13 -39 2 -15 -6 -18
-1 -18 34 0 32 -4 41 -17 41 -14 0 -15 2 -4 9 7 5 10 14 7 20 -8 12 -13 12
-36 4z"/>
<path d="M8051 9580 c-23 -17 -39 -35 -36 -41 4 -5 1 -8 -5 -7 -7 2 -21 -10
-33 -25 -17 -22 -19 -31 -10 -45 16 -26 65 -19 118 18 56 39 73 70 57 105 -15
33 -40 32 -91 -5z m53 -16 c8 -3 12 -12 10 -19 -7 -17 -83 -68 -108 -72 -16
-3 -17 -1 -5 14 25 33 73 83 80 83 4 0 14 -3 23 -6z"/>
<path d="M3864 8583 c-20 -38 -47 -87 -60 -109 -13 -23 -20 -44 -17 -48 3 -3
1 -6 -5 -6 -6 0 -21 -19 -33 -42 -12 -24 -24 -45 -28 -48 -3 -3 -21 -36 -40
-75 -19 -38 -43 -82 -53 -97 -24 -35 -23 -48 6 -48 17 0 24 5 24 18 -1 9 17
51 40 93 l42 76 53 6 c28 2 53 4 55 2 6 -6 -30 -131 -44 -153 -22 -34 -6 -47
21 -18 15 16 30 53 41 102 l17 77 58 -6 c59 -5 86 6 58 24 -19 12 -57 11 -61
-1 -1 -5 -13 -1 -24 8 l-21 17 17 100 c34 194 34 195 11 195 -14 0 -30 -19
-57 -67z m16 -119 c-11 -65 -23 -120 -25 -123 -3 -2 -25 -6 -51 -9 l-46 -4 17
33 c10 19 33 60 52 91 19 32 32 62 29 66 -3 5 4 16 15 25 10 9 19 24 19 34 0
9 3 14 6 11 3 -3 -4 -59 -16 -124z"/>
<path d="M4354 8583 c-5 -24 -60 -229 -69 -259 -1 -5 -21 -16 -44 -22 -40 -12
-59 -28 -47 -39 3 -4 22 -1 41 5 34 10 36 9 29 -11 -3 -12 -14 -28 -25 -36
-27 -20 -25 -44 4 -36 30 10 34 15 50 60 15 44 32 53 61 32 18 -13 18 -17 4
-60 -14 -43 -14 -48 2 -62 20 -18 30 -9 29 26 0 13 3 43 7 66 6 42 6 42 -32
60 -22 9 -40 18 -42 19 -2 1 13 63 32 137 42 156 40 147 21 147 -8 0 -17 -12
-21 -27z"/>
<path d="M9445 8598 c-19 -59 -22 -87 -9 -92 17 -7 22 1 30 51 4 26 2 43 -5
47 -6 4 -13 1 -16 -6z"/>
<path d="M9216 8559 c-2 -8 -14 -43 -26 -78 -12 -35 -23 -69 -25 -75 -8 -40
-18 -46 -71 -46 -43 0 -54 -3 -54 -16 0 -14 15 -15 122 -10 88 5 127 10 137
21 22 22 10 26 -56 17 l-61 -8 13 37 c8 20 11 40 8 43 -4 3 -2 6 4 6 17 0 38
99 25 112 -8 8 -13 7 -16 -3z"/>
<path d="M5371 8528 c-7 -18 -33 -85 -56 -148 -23 -63 -52 -141 -64 -172 -11
-32 -21 -67 -21 -78 0 -37 26 -21 37 23 11 42 75 219 114 312 12 28 23 60 26
73 8 35 -21 27 -36 -10z"/>
<path d="M5837 8538 c-3 -13 -14 -61 -26 -108 -12 -47 -24 -95 -26 -108 -4
-14 -22 -30 -50 -44 -25 -12 -45 -28 -45 -35 0 -17 14 -16 50 2 35 18 40 5 10
-25 -23 -23 -26 -40 -7 -40 24 0 46 24 54 60 8 28 14 36 37 38 28 3 29 2 21
-30 -11 -50 -11 -71 0 -75 6 -2 16 12 23 30 25 70 7 114 -43 105 -28 -6 -29
-18 11 140 14 51 22 98 19 103 -10 16 -22 10 -28 -13z"/>
<path d="M6057 8523 c-14 -14 -6 -29 24 -42 40 -17 48 -7 19 24 -25 26 -32 29
-43 18z"/>
<path d="M12887 8469 c-25 -28 -61 -81 -82 -119 -38 -69 -101 -127 -171 -156
-33 -14 -34 -14 -34 10 0 34 33 71 80 90 38 15 47 25 34 39 -9 9 -75 -20 -103
-46 -36 -33 -53 -80 -41 -113 9 -23 14 -26 42 -20 18 4 60 24 93 46 53 35 61
37 69 22 15 -29 38 -42 77 -42 21 0 41 -4 44 -10 9 -14 54 -12 111 5 61 19 79
30 70 44 -5 8 -17 7 -40 -3 -18 -8 -53 -17 -77 -21 l-44 -7 40 22 c81 44 131
114 105 145 -7 8 -21 15 -31 15 -23 0 -112 -89 -130 -129 -11 -25 -20 -31 -44
-31 -17 0 -36 5 -43 12 -16 16 -15 53 2 67 20 17 146 206 146 220 0 25 -31 8
-73 -40z m143 -147 c0 -17 -31 -51 -65 -71 -19 -11 -35 -18 -35 -15 0 2 19 25
41 49 39 42 59 55 59 37z"/>
<path d="M9375 8425 c-25 -54 -42 -78 -60 -85 -29 -11 -33 -30 -6 -30 17 0 17
-3 4 -52 -7 -29 -11 -59 -8 -65 2 -7 0 -13 -5 -13 -6 0 -10 -7 -10 -15 0 -21
28 -19 33 3 19 67 28 123 21 133 -4 7 -3 9 4 5 5 -3 12 -1 14 5 2 7 30 14 61
17 31 2 57 9 57 14 0 5 7 3 15 -5 12 -13 13 -25 4 -74 -6 -32 -14 -65 -19 -74
-4 -8 -4 -23 2 -33 13 -24 38 -3 38 33 0 14 6 54 14 89 9 46 10 65 1 72 -6 5
-43 10 -83 12 l-72 3 30 63 c35 74 35 72 14 72 -9 0 -28 -28 -49 -75z"/>
<path d="M14416 8474 c-10 -25 -7 -72 5 -79 14 -10 16 -6 24 48 6 38 5 47 -8
47 -8 0 -18 -7 -21 -16z"/>
<path d="M9640 8450 c-9 -16 -8 -21 4 -26 11 -4 15 -18 13 -45 -1 -21 -5 -39
-8 -39 -4 0 -12 -21 -18 -46 -16 -63 -4 -73 45 -40 21 14 49 26 61 26 14 0 35
16 58 45 31 37 40 43 55 35 25 -14 43 -74 37 -126 -8 -73 -45 -135 -102 -167
-87 -50 -155 -130 -155 -181 0 -79 102 -10 195 133 l30 46 83 11 c91 13 102
18 82 37 -7 6 -10 8 -7 2 3 -6 -23 -10 -67 -11 l-73 -1 21 41 c29 59 29 173 0
213 -12 15 -33 32 -48 38 -25 8 -31 5 -67 -38 -22 -26 -48 -47 -58 -47 -9 0
-27 -7 -39 -16 -22 -15 -23 -15 -15 13 4 15 7 36 7 46 0 9 4 17 9 17 4 0 7 21
5 47 -3 53 -28 70 -48 33z m160 -414 c0 -2 -20 -29 -45 -61 -70 -91 -122 -117
-71 -36 27 41 116 117 116 97z"/>
<path d="M13531 8418 c-85 -52 -88 -62 -46 -143 40 -75 37 -85 -22 -85 -23 0
-33 -5 -33 -15 0 -20 68 -20 98 1 29 20 28 39 -8 99 -16 28 -30 57 -30 65 0
16 95 80 119 80 17 0 8 24 -10 28 -8 1 -38 -12 -68 -30z"/>
<path d="M4440 8405 c-9 -11 -10 -19 -2 -27 14 -14 32 -1 32 23 0 23 -13 25
-30 4z"/>
<path d="M4480 8405 c0 -8 9 -15 20 -15 11 0 20 7 20 15 0 8 -9 15 -20 15 -11
0 -20 -7 -20 -15z"/>
<path d="M10780 8344 c0 -41 4 -84 10 -94 8 -15 -2 -34 -54 -104 -89 -118
-122 -174 -108 -188 14 -14 55 19 48 38 -5 14 49 94 140 205 130 160 157 200
144 212 -9 9 -18 4 -38 -23 -15 -19 -46 -55 -70 -80 l-43 -45 2 50 c2 91 0
105 -16 105 -12 0 -15 -15 -15 -76z"/>
<path d="M8652 8379 c-17 -17 -41 -51 -54 -75 -12 -24 -28 -44 -35 -44 -17 0
-31 -30 -39 -81 -4 -24 -29 -91 -55 -148 -27 -57 -46 -108 -43 -113 10 -16 49
29 79 91 15 33 31 59 34 58 15 -5 115 112 141 163 72 142 55 234 -28 149z m36
-46 c-17 -61 -65 -149 -94 -172 -15 -12 -29 -19 -32 -17 -2 3 12 40 32 83 58
122 117 188 94 106z"/>
<path d="M12505 8381 c-7 -31 -1 -51 14 -51 5 0 11 14 15 30 8 44 8 45 -8 48
-9 2 -17 -8 -21 -27z"/>
<path d="M11680 8390 c-8 -5 -27 -10 -42 -10 -28 0 -45 -14 -29 -24 5 -4 1
-28 -10 -58 -23 -63 -23 -68 -5 -68 7 0 23 22 35 49 29 68 63 93 120 89 26 -2
46 2 48 8 7 22 -88 33 -117 14z"/>
<path d="M13222 8389 c-34 -13 -55 -36 -39 -42 6 -3 2 -6 -10 -6 -43 -2 -89
-95 -63 -126 18 -22 48 -18 98 11 39 23 44 24 37 8 -16 -40 -16 -61 0 -78 15
-14 47 -15 64 0 8 7 -12 24 -30 24 -24 0 -20 22 17 87 43 75 27 83 -50 24 -43
-33 -94 -61 -112 -61 -12 0 -1 32 26 68 35 49 69 70 80 52 9 -15 30 -5 30 14
0 23 -23 34 -48 25z"/>
<path d="M11406 8368 c-35 -51 -143 -150 -168 -155 -36 -7 -56 -30 -35 -39 19
-7 79 20 103 47 16 18 18 18 30 1 12 -16 16 -15 63 10 40 22 50 24 55 13 7
-20 36 -19 65 1 29 21 14 41 -18 25 -28 -15 -28 3 -1 44 25 37 25 45 2 45 -10
0 -25 -11 -32 -25 -14 -26 -78 -80 -85 -73 -3 2 11 28 30 57 19 29 35 57 35
62 0 18 -29 9 -44 -13z"/>
<path d="M11145 8367 c-31 -19 -53 -50 -47 -67 5 -12 3 -13 -9 -3 -21 17 -112
-68 -107 -100 4 -28 28 -32 86 -16 86 24 131 85 102 139 -7 13 -7 21 0 25 12
7 14 35 3 34 -5 0 -17 -6 -28 -12z m-1 -105 c-12 -20 -66 -48 -109 -57 -27 -6
-24 -1 35 54 61 56 66 59 74 40 6 -13 6 -27 0 -37z"/>
<path d="M3143 8358 c-24 -32 -36 -78 -23 -92 14 -18 37 -11 68 20 27 28 28
46 4 67 -22 20 -36 21 -49 5z"/>
<path d="M8765 8316 c-20 -68 -10 -96 35 -96 39 0 134 88 124 113 -9 25 -22
21 -39 -12 -15 -31 -64 -71 -85 -71 -11 0 -11 25 2 94 1 10 -2 21 -9 23 -7 3
-18 -17 -28 -51z"/>
<path d="M4680 8314 c-64 -60 -105 -140 -91 -177 10 -27 20 -30 74 -30 31 1
57 19 57 39 0 11 -6 10 -34 -1 -69 -29 -86 10 -38 86 36 56 87 100 108 92 12
-4 15 -1 12 13 -6 34 -36 27 -88 -22z"/>
<path d="M4036 8300 c-26 -31 -49 -96 -40 -112 9 -15 23 -8 29 15 12 39 37 87
45 87 5 0 12 -9 15 -20 7 -21 35 -28 35 -10 0 22 -31 70 -44 70 -8 0 -26 -14
-40 -30z"/>
<path d="M6103 8323 c-7 -2 -13 -9 -13 -14 0 -6 -13 -22 -30 -36 -30 -25 -40
-66 -20 -78 18 -11 70 -8 95 5 33 18 38 36 19 73 -12 21 -13 32 -5 35 6 2 11
7 11 11 0 8 -40 11 -57 4z m22 -79 c0 -14 -8 -20 -32 -22 -38 -4 -43 10 -11
32 27 20 43 16 43 -10z"/>
<path d="M14279 8278 c-62 -95 -86 -168 -56 -168 7 0 21 24 31 54 10 30 36 77
57 105 22 28 39 54 39 56 0 3 -9 5 -19 5 -12 0 -31 -19 -52 -52z"/>
<path d="M6230 8258 c-71 -109 -49 -129 47 -43 38 34 67 53 76 49 9 -3 23 -23
31 -45 9 -22 23 -42 31 -45 31 -12 102 21 94 44 -3 8 -12 8 -33 -3 -41 -22
-49 -19 -71 28 -13 27 -30 45 -48 51 -24 9 -31 6 -62 -24 -35 -34 -47 -32 -20
4 8 11 15 26 15 33 0 28 -21 11 -60 -49z"/>
<path d="M9120 8278 c-11 -24 -20 -49 -20 -55 0 -7 -9 -13 -19 -13 -10 0 -21
-7 -25 -15 -4 -11 2 -15 28 -15 32 0 34 2 58 70 20 55 22 70 11 70 -8 0 -23
-19 -33 -42z"/>
<path d="M12410 8289 c0 -11 -13 -39 -30 -62 -35 -50 -43 -90 -17 -95 12 -2
17 3 17 18 0 12 14 41 30 65 32 47 40 95 15 95 -9 0 -15 -9 -15 -21z"/>
<path d="M5387 8259 c-42 -48 -67 -97 -60 -116 8 -21 59 -15 113 12 27 14 52
25 54 25 3 0 0 -14 -6 -30 -5 -17 -7 -37 -4 -45 8 -21 36 -19 34 3 -1 9 2 34
6 55 12 56 -2 64 -63 35 -32 -14 -49 -28 -46 -36 3 -8 0 -10 -8 -5 -6 4 -20 6
-29 5 -22 -4 -22 6 -3 32 8 10 12 23 9 27 -3 5 0 9 6 9 14 0 60 53 53 62 -9
15 -22 7 -56 -33z"/>
<path d="M5042 8257 c-13 -13 -20 -30 -17 -38 9 -25 -110 -89 -136 -73 -19 12
-7 45 25 71 19 15 32 31 30 35 -9 13 -21 9 -53 -18 -39 -33 -52 -91 -25 -111
30 -22 134 4 134 33 0 7 6 11 13 8 20 -7 79 60 75 87 -4 31 -20 34 -46 6z"/>
<path d="M7205 8252 c-49 -17 -75 -51 -41 -53 9 -1 22 -2 29 -3 6 -1 20 7 29
18 15 18 29 21 107 22 90 2 116 8 106 25 -10 15 -175 9 -230 -9z"/>
<path d="M14405 8237 c-37 -36 -57 -87 -34 -87 8 0 21 15 29 33 15 31 63 67
75 56 3 -4 1 -19 -5 -35 -21 -53 9 -97 40 -59 10 12 9 16 -3 21 -13 4 -14 11
-6 32 28 74 -34 99 -96 39z"/>
<path d="M6485 8099 c-4 -6 3 -13 16 -17 l24 -6 -25 -7 c-14 -4 -83 -7 -153
-8 -71 -1 -181 -6 -245 -11 -199 -18 -442 -26 -445 -15 -3 6 -12 6 -28 -2 -39
-19 -111 -25 -298 -24 -474 2 -660 2 -1066 -1 -401 -3 -601 1 -863 17 -86 5
-93 4 -90 -12 3 -15 14 -18 63 -19 33 -1 122 -5 198 -9 115 -7 137 -6 137 6 0
11 2 11 8 1 7 -10 101 -13 418 -16 225 -3 456 -1 514 3 58 4 244 5 414 1 169
-3 361 -3 425 1 64 4 117 6 118 5 4 -4 -127 -189 -153 -217 -21 -22 -37 -29
-67 -29 l-38 0 23 41 c30 54 72 89 98 82 27 -7 27 23 0 32 -34 11 -83 -29
-124 -100 l-39 -65 -79 0 c-78 0 -80 1 -75 22 23 86 -49 89 -154 7 -43 -34
-51 -36 -47 -11 6 37 -12 44 -47 17 l-34 -25 -3 32 c-3 30 -6 33 -33 30 -21
-2 -43 -16 -71 -47 -46 -49 -61 -89 -43 -111 18 -22 43 -17 97 20 69 46 92 51
92 20 0 -29 20 -31 43 -4 14 16 29 20 82 20 36 0 65 -4 65 -10 0 -19 49 -23
75 -6 15 10 45 16 78 16 51 0 53 -1 62 -32 14 -46 37 -46 88 1 32 30 53 41 76
41 26 0 31 -4 31 -23 0 -12 7 -33 16 -45 26 -37 134 -24 134 17 0 14 -27 15
-35 1 -10 -17 -72 -12 -79 6 -19 50 -17 50 161 58 92 4 169 8 171 11 2 2 1 9
-3 15 -6 9 -49 10 -166 5 -88 -4 -159 -5 -159 -2 0 9 50 142 72 189 25 55 18
54 253 63 83 3 195 10 250 15 55 5 159 9 231 10 173 0 243 22 195 61 -26 21
-56 25 -66 8z m-959 -323 c-10 -25 -21 -36 -36 -36 -19 0 -19 3 12 39 18 22
34 38 36 36 2 -1 -4 -19 -12 -39z m-408 -13 c-3 -26 -7 -28 -51 -31 -56 -4
-56 8 1 38 49 25 54 25 50 -7z m-278 3 c0 -11 -19 -15 -25 -6 -3 5 1 10 9 10
9 0 16 -2 16 -4z m-31 -45 c7 -5 10 -14 7 -20 -8 -13 -66 -44 -71 -39 -2 2 3
18 12 36 16 33 28 38 52 23z m576 -31 c-10 -11 -24 -20 -32 -20 -7 0 -13 9
-13 20 0 16 7 20 32 20 30 0 31 0 13 -20z"/>
<path d="M12347 8094 c-4 -4 -7 -15 -7 -25 0 -10 -25 -51 -55 -91 -69 -91
-115 -181 -115 -225 0 -28 4 -33 23 -33 12 0 39 11 59 25 34 23 59 20 43 -5
-11 -18 17 -42 42 -35 23 6 32 -8 12 -21 -11 -6 -119 -169 -119 -179 0 -3 9
-5 20 -5 13 0 24 11 33 33 8 17 48 78 90 134 43 56 77 106 77 112 0 17 -18 13
-58 -14 -38 -26 -72 -33 -72 -15 0 17 27 65 44 79 18 15 21 41 5 41 -16 0
-105 -81 -101 -92 1 -5 -2 -7 -7 -3 -6 3 -22 -2 -36 -11 -21 -14 -25 -14 -25
-2 0 27 59 132 116 207 53 71 72 119 48 128 -5 2 -13 0 -17 -3z"/>
<path d="M11790 7971 c-22 -38 -40 -73 -40 -78 0 -4 -9 -14 -20 -21 -12 -7
-18 -17 -15 -22 3 -6 1 -10 -5 -10 -7 0 -29 -13 -49 -29 -94 -73 -118 -63 -56
24 49 70 52 75 31 75 -16 0 -80 -83 -95 -123 -11 -28 6 -57 34 -57 26 0 65 23
65 38 0 9 3 12 7 9 3 -4 20 4 38 17 l31 24 -10 -48 c-7 -37 -7 -52 4 -65 18
-21 22 -14 24 40 1 34 17 75 61 161 73 142 70 134 51 134 -8 0 -33 -31 -56
-69z"/>
<path d="M3140 8004 c0 -9 -18 -56 -40 -105 -45 -99 -60 -156 -62 -231 -1 -54
22 -92 43 -71 8 8 8 13 0 17 -16 10 -13 104 4 164 9 29 31 84 50 124 38 78 44
118 20 118 -8 0 -15 -7 -15 -16z"/>
<path d="M10935 7947 c-72 -76 -131 -217 -90 -217 8 0 15 6 15 14 0 27 81 175
107 196 29 22 72 27 77 8 3 -7 7 -25 10 -40 4 -16 13 -28 22 -28 13 0 15 6 9
28 -15 61 -28 77 -69 80 -34 3 -43 -1 -81 -41z"/>
<path d="M8035 7960 c-9 -15 18 -50 38 -50 11 0 16 5 13 13 -3 6 -9 20 -12 30
-7 18 -29 23 -39 7z"/>
<path d="M12090 7930 c-21 -21 -24 -32 -13 -43 9 -9 53 33 53 50 0 19 -17 16
-40 -7z"/>
<path d="M11314 7889 c-16 -12 -42 -35 -59 -50 -16 -16 -33 -28 -37 -29 -5 0
-12 0 -16 0 -5 0 -17 -8 -28 -18 -10 -10 -21 -18 -24 -18 -3 -1 -29 -7 -58
-14 -29 -7 -56 -10 -59 -7 -9 10 6 37 24 44 34 13 113 75 113 89 0 28 -37 13
-102 -40 -69 -57 -84 -84 -63 -112 16 -23 83 -15 150 16 28 13 57 23 65 22 27
-2 101 31 116 52 8 12 14 15 14 7 0 -8 6 -11 15 -7 19 7 19 -3 0 -28 -32 -43
-6 -81 45 -66 40 12 70 29 70 42 0 10 -7 9 -79 -9 l-23 -6 26 45 c30 51 32 68
11 68 -22 0 -95 -31 -91 -39 3 -4 -5 -7 -16 -7 -17 0 -14 6 18 33 25 23 34 37
28 43 -7 7 -20 3 -40 -11z"/>
<path d="M6908 7833 c-33 -32 -67 -73 -75 -91 -16 -38 -8 -78 17 -92 28 -15
84 -12 106 6 10 8 13 13 7 9 -7 -3 -13 -3 -13 2 0 4 -19 8 -42 8 -41 0 -43 1
-46 32 -3 26 5 41 39 78 32 34 45 43 55 34 10 -8 17 -3 29 21 16 30 13 50 -6
50 -6 0 -38 -26 -71 -57z"/>
<path d="M7650 7865 c-78 -57 -99 -111 -60 -153 26 -28 79 -29 111 -3 32 26
19 36 -26 20 -39 -14 -67 -5 -73 24 -4 19 52 83 89 103 16 8 29 19 29 24 0 18
-36 10 -70 -15z"/>
<path d="M8462 7867 c-12 -7 -19 -16 -16 -20 4 -4 0 -7 -9 -7 -41 0 -114 -93
-102 -130 12 -38 70 -41 222 -10 51 11 83 33 64 44 -11 7 -42 -4 -37 -13 3 -4
-12 -7 -32 -7 -20 0 -70 -4 -110 -9 l-74 -8 4 24 c2 18 19 32 71 57 72 35 87
53 67 77 -15 18 -18 18 -48 2z"/>
<path d="M12021 7828 c-35 -47 -56 -102 -47 -124 8 -21 23 -9 31 24 3 15 19
48 35 72 50 76 34 100 -19 28z"/>
<path d="M7298 7818 c-12 -18 -33 -44 -45 -58 -23 -25 -31 -60 -14 -60 5 0 31
17 58 38 69 54 100 72 122 72 16 0 18 -4 11 -32 -4 -18 -16 -50 -26 -71 -13
-27 -15 -40 -7 -48 14 -14 47 -4 38 11 -4 6 1 30 10 54 9 23 15 58 13 77 -2
28 -7 35 -30 37 -15 2 -40 -4 -57 -12 -36 -19 -50 -21 -33 -4 16 16 15 28 -2
28 -8 0 -25 -15 -38 -32z"/>
<path d="M8102 7802 c-29 -27 -52 -55 -52 -63 0 -9 11 -26 25 -39 30 -28 32
-46 5 -55 -22 -7 -28 -35 -6 -35 20 0 66 39 66 56 0 8 -14 28 -32 44 l-32 30
42 36 c24 20 41 39 38 42 -3 3 -1 11 5 19 27 31 -11 9 -59 -35z"/>
<path d="M3739 7803 c-44 -42 -58 -94 -27 -101 12 -2 19 6 24 33 4 22 16 42
34 55 34 24 58 25 87 5 31 -22 43 2 13 27 -38 30 -85 23 -131 -19z"/>
<path d="M7899 7807 c-57 -70 -72 -124 -43 -147 12 -11 18 -11 30 2 13 13 14
19 3 36 -11 18 -9 26 14 61 15 23 32 41 37 41 6 0 10 9 10 20 0 30 -22 24 -51
-13z"/>
<path d="M3253 7786 c-48 -36 -61 -52 -70 -88 -23 -86 24 -123 119 -94 66 21
82 31 74 44 -4 6 -28 3 -67 -9 -73 -23 -74 -23 -92 -4 -24 23 -9 52 38 75 63
30 120 83 112 103 -11 29 -52 19 -114 -27z m77 10 c0 -2 -12 -11 -27 -20 l-28
-17 24 20 c23 21 31 25 31 17z"/>
<path d="M3528 7809 c-46 -25 -90 -76 -86 -98 5 -24 42 -25 88 -1 23 12 39 17
35 11 -9 -16 3 -48 21 -55 21 -8 64 22 57 40 -4 10 -10 11 -23 4 -29 -16 -31
-12 -10 23 11 17 20 38 20 45 0 18 -28 15 -58 -7 -45 -31 -92 -52 -92 -41 0
14 90 70 113 70 24 0 17 24 -9 27 -10 1 -36 -7 -56 -18z"/>
<path d="M7089 7790 c-72 -59 -96 -94 -79 -115 18 -21 57 -18 115 9 67 31 88
56 76 88 -16 42 -72 51 -112 18z m78 -43 c-10 -26 -127 -72 -127 -50 0 11 58
67 85 81 24 13 51 -7 42 -31z"/>
<path d="M2796 7780 c-16 -5 -42 -22 -58 -37 -90 -85 -69 -167 35 -143 55 12
97 30 97 42 0 12 -32 10 -76 -5 -43 -14 -84 -12 -84 5 0 18 40 77 63 93 12 8
33 15 48 15 32 0 42 9 28 27 -13 15 -13 15 -53 3z"/>
<path d="M6597 7693 c-3 -5 -4 -26 -3 -46 2 -20 -1 -37 -5 -37 -5 0 -9 -4 -9
-10 0 -5 -20 -52 -44 -103 -77 -165 -117 -306 -85 -295 7 2 18 28 26 57 12 48
33 100 122 307 30 70 36 124 14 131 -6 2 -14 0 -16 -4z"/>
<path d="M9115 7678 c-2 -7 -12 -33 -20 -57 -19 -56 -64 -114 -126 -166 -45
-37 -62 -65 -40 -65 5 0 5 -18 -1 -42 -8 -38 -7 -45 12 -60 26 -21 64 -15 132
18 54 27 76 57 58 80 -7 7 -16 11 -21 8 -5 -3 -9 0 -9 6 0 6 -5 8 -10 5 -8 -5
-7 -11 1 -21 17 -21 -12 -48 -71 -67 -60 -20 -70 -15 -58 30 7 26 6 38 -2 43
-7 4 -2 13 14 24 41 26 136 147 148 188 6 21 15 38 20 38 14 0 5 43 -9 48 -7
2 -15 -2 -18 -10z"/>
<path d="M4047 7674 c-4 -4 -7 -20 -7 -35 0 -15 -9 -49 -21 -75 -23 -55 -19
-94 11 -94 11 0 20 7 20 15 0 8 -4 15 -9 15 -14 0 18 92 36 107 11 9 13 19 6
39 -10 29 -24 40 -36 28z"/>
<path d="M6285 7533 c-58 -104 -125 -253 -125 -280 0 -20 24 -16 55 9 l28 22
-18 -28 c-22 -33 -9 -52 28 -42 38 9 120 69 145 106 27 41 29 86 3 95 -27 8
-69 -11 -134 -61 -48 -38 -56 -42 -48 -22 19 51 58 127 103 205 50 85 56 103
36 103 -7 0 -40 -48 -73 -107z m105 -158 c0 -21 -67 -93 -104 -112 l-30 -16
17 26 c9 14 14 32 11 40 -6 16 55 61 104 76 1 1 2 -6 2 -14z"/>
<path d="M5800 7576 c-5 -13 -14 -27 -19 -31 -6 -3 -11 -15 -11 -27 0 -14 5
-18 16 -14 21 8 14 -11 -30 -77 -94 -141 -242 -274 -273 -244 -12 12 9 59 43
97 46 51 35 74 -13 28 -78 -75 -86 -158 -14 -158 104 0 370 330 344 429 -7 28
-31 27 -43 -3z"/>
<path d="M4695 7551 c-3 -6 -4 -15 0 -21 3 -5 -6 -49 -20 -97 -14 -48 -25 -97
-25 -108 0 -12 -11 -36 -25 -55 -26 -35 -33 -84 -15 -95 17 -10 39 14 50 55 9
33 17 41 65 61 30 13 55 31 56 39 0 9 2 11 5 3 3 -7 11 -10 19 -7 8 4 5 -11
-10 -41 -13 -25 -21 -53 -18 -61 6 -16 39 -19 48 -4 6 10 127 80 139 80 4 0 4
-25 1 -55 -6 -45 -4 -56 9 -61 18 -7 71 23 106 61 59 64 111 71 142 19 23 -39
43 -33 32 10 -8 34 -40 56 -79 56 -33 0 -60 -16 -129 -74 -26 -21 -48 -37 -51
-35 -2 3 0 22 5 43 21 92 -20 90 -180 -9 -8 -5 -2 12 13 38 16 26 25 52 22 57
-10 17 -52 11 -111 -15 -32 -14 -59 -23 -62 -20 -3 3 7 50 22 104 15 54 26
107 24 117 -4 21 -23 29 -33 15z"/>
<path d="M8053 7467 c-11 -28 -37 -90 -57 -137 -41 -97 -45 -130 -17 -130 14
0 19 9 23 43 3 23 28 92 56 152 27 61 48 113 45 118 -11 19 -30 2 -50 -46z"/>
<path d="M10050 7474 c-69 -30 -135 -113 -132 -165 2 -23 -7 -29 -101 -70
l-103 -45 18 85 c30 146 20 195 -26 122 -20 -30 -38 -44 -81 -60 -62 -23 -95
-27 -95 -10 0 6 16 30 35 53 62 76 40 93 -24 19 -87 -100 -23 -145 118 -82 24
10 46 18 48 16 1 -2 -4 -39 -13 -83 -14 -72 -19 -82 -50 -102 -34 -22 -94
-104 -94 -128 0 -15 28 -44 42 -44 22 0 77 71 93 120 19 56 23 59 184 129 62
27 93 36 104 29 20 -10 160 -14 176 -4 27 17 5 25 -76 28 l-88 3 51 27 c55 29
134 110 134 137 0 42 -55 53 -120 25z m90 -22 c0 -31 -139 -142 -179 -142 -43
0 30 102 93 131 42 19 86 25 86 11z m-491 -359 c-14 -39 -44 -76 -58 -72 -7 3
-1 21 18 52 34 53 56 63 40 20z"/>
<path d="M6035 7450 c-11 -4 -49 -38 -83 -74 -47 -51 -62 -74 -62 -96 0 -38
27 -40 89 -5 23 14 44 25 46 25 1 0 5 -13 8 -29 7 -34 36 -54 58 -40 11 8 10
13 -11 28 l-25 20 23 46 c38 78 25 86 -46 26 -53 -44 -112 -76 -112 -62 0 6
25 37 56 70 43 47 61 60 79 57 17 -3 22 0 21 17 -1 24 -13 29 -41 17z"/>
<path d="M6694 7405 c-48 -55 -68 -66 -77 -42 -4 9 -7 9 -18 -1 -12 -11 -11
-16 7 -31 15 -12 20 -25 17 -43 -11 -55 53 -73 155 -43 37 11 52 21 52 33 0
10 5 23 12 30 16 16 4 25 -21 17 -12 -3 -21 -15 -21 -24 0 -14 -12 -22 -44
-30 -54 -13 -93 -14 -101 -2 -8 14 16 61 32 61 7 0 21 8 31 18 10 10 23 17 28
15 6 -2 21 8 33 21 17 18 22 32 17 50 -11 45 -48 34 -102 -29z m57 -6 c-13
-11 -27 -17 -30 -13 -3 3 5 14 18 25 13 11 27 17 30 13 3 -3 -5 -14 -18 -25z"/>
<path d="M3771 7395 c-29 -51 -30 -58 -23 -115 5 -33 14 -66 21 -73 16 -16 81
-13 118 6 27 15 32 15 43 2 16 -20 40 -19 100 4 41 15 50 16 50 5 0 -26 29
-14 46 19 36 70 64 97 100 97 40 0 44 16 9 32 -31 14 -63 -5 -104 -62 -16 -22
-30 -37 -33 -35 -2 2 -31 -7 -64 -20 -32 -14 -65 -25 -71 -25 -19 0 -16 35 8
74 19 33 19 56 -1 56 -5 0 -19 -21 -32 -46 -29 -59 -92 -99 -132 -84 -24 9
-27 14 -25 56 2 25 6 47 11 50 13 8 9 26 -4 18 -7 -3 -1 5 15 20 29 28 37 76
13 76 -8 0 -28 -25 -45 -55z"/>
<path d="M9275 7436 c-17 -7 -48 -29 -69 -49 -64 -61 -29 -99 53 -58 22 12 42
21 44 21 1 0 1 -16 -1 -35 -6 -49 28 -62 101 -37 45 15 52 21 55 45 3 25 0 28
-20 25 -13 -2 -23 -10 -23 -18 0 -18 -20 -28 -57 -29 -35 -1 -36 15 -2 64 39
58 18 62 -72 14 l-79 -42 29 31 c15 17 41 36 57 42 29 12 36 24 21 34 -4 2
-21 -2 -37 -8z"/>
<path d="M4431 7419 c-20 -8 -23 -14 -18 -45 4 -20 13 -44 22 -54 8 -9 15 -26
15 -38 0 -22 -41 -57 -75 -63 -23 -5 -27 -32 -5 -37 23 -4 107 55 114 81 3 14
-4 40 -20 71 -20 38 -23 51 -13 57 8 5 20 2 30 -7 24 -22 36 2 13 27 -19 21
-28 22 -63 8z"/>
<path d="M8187 7383 c-61 -51 -96 -93 -77 -93 6 0 8 -4 5 -10 -12 -19 25 -10
85 20 33 17 62 30 65 30 3 0 5 -11 5 -25 0 -31 37 -54 47 -29 3 9 0 20 -7 24
-9 6 -11 20 -6 49 5 36 4 41 -13 41 -10 0 -24 -7 -31 -15 -16 -19 -103 -68
-93 -52 11 18 64 61 85 69 20 8 25 38 5 38 -7 0 -38 -21 -70 -47z"/>
<path d="M8474 7410 c-11 -11 -30 -22 -43 -25 -13 -2 -25 -6 -26 -7 -66 -98
-50 -120 31 -44 62 58 82 69 64 37 -15 -29 -12 -97 5 -111 19 -16 40 -3 24 16
-11 13 -10 29 7 122 6 29 4 32 -18 32 -13 0 -33 -9 -44 -20z"/>
<path d="M3005 7400 c-3 -11 -11 -20 -16 -20 -5 0 -9 -9 -9 -20 0 -11 -6 -20
-14 -20 -8 0 -43 -24 -78 -54 -44 -38 -66 -51 -75 -45 -18 16 -28 -11 -10 -28
14 -14 19 -13 50 6 19 12 40 28 47 37 7 8 27 24 43 36 l29 21 -11 -21 c-16
-30 -14 -67 5 -83 13 -11 22 -10 57 9 23 12 56 35 72 50 17 15 41 33 54 40 21
12 21 11 12 -7 -6 -11 -11 -33 -11 -50 0 -16 -4 -33 -10 -36 -19 -12 -10 -25
18 -25 38 0 42 6 29 39 -9 24 -7 39 11 81 34 82 25 103 -25 58 -41 -37 -59
-52 -75 -63 -106 -71 -113 -75 -116 -61 -2 8 11 44 27 81 17 37 31 74 31 81 0
22 -28 16 -35 -6z"/>
<path d="M3612 7353 c-52 -63 -65 -90 -58 -118 12 -49 75 -37 144 28 29 28 42
57 26 57 -3 0 -26 -17 -50 -39 -84 -74 -121 -56 -58 28 21 28 42 51 46 51 4 0
8 9 8 20 0 31 -15 24 -58 -27z"/>
<path d="M8641 7366 c-12 -18 -21 -41 -21 -50 0 -22 32 -20 63 4 14 11 28 20
31 20 12 0 21 -63 18 -128 -3 -65 -5 -69 -33 -79 -50 -19 -90 -138 -57 -171
42 -42 118 27 118 108 0 27 1 28 29 17 35 -13 71 -2 51 16 -10 9 -13 9 -17 0
-6 -17 -23 -17 -23 0 0 7 -10 18 -21 25 -20 13 -21 20 -17 84 6 75 -5 134 -27
157 -12 12 -18 12 -42 -4 -15 -10 -22 -12 -15 -4 6 7 12 19 12 26 0 25 -28 13
-49 -21z m86 -301 c-5 -47 -29 -85 -54 -85 -25 0 -9 76 24 112 27 30 36 21 30
-27z"/>
<path d="M3385 7346 c-11 -8 -30 -12 -42 -9 -19 4 -26 -3 -48 -48 -42 -88 -28
-94 45 -19 50 51 76 64 67 33 -31 -109 -32 -113 -15 -129 13 -13 20 -14 38 -4
12 7 19 17 16 26 -3 8 -1 14 4 14 6 0 10 -5 10 -10 0 -6 14 -1 30 12 58 42 27
53 -33 12 -21 -14 -40 -24 -43 -22 -2 3 3 25 12 51 27 81 7 128 -41 93z"/>
<path d="M5571 7351 c-19 -12 -3 -33 20 -26 13 4 19 2 19 -9 0 -9 7 -16 16
-16 11 0 14 8 12 28 -2 20 -9 28 -28 30 -14 1 -31 -2 -39 -7z"/>
<path d="M10280 7255 c0 -8 7 -15 15 -15 8 0 15 7 15 15 0 8 -7 15 -15 15 -8
0 -15 -7 -15 -15z"/>
<path d="M3915 6432 c-14 -21 -47 -89 -75 -152 -59 -135 -110 -222 -179 -308
-52 -63 -61 -82 -38 -82 18 1 77 57 77 74 0 8 13 28 29 45 26 28 35 31 91 31
60 0 62 -1 56 -23 -3 -12 -10 -47 -17 -77 -6 -30 -16 -59 -22 -65 -7 -7 -8 -6
-3 3 4 6 2 12 -3 12 -10 0 -13 -5 -15 -32 -1 -6 11 -13 26 -15 29 -4 23 -17
59 148 l11 52 59 -6 c52 -5 59 -3 59 13 0 22 -15 29 -55 23 -50 -6 -55 3 -39
82 19 100 30 300 16 309 -7 4 -22 -10 -37 -32z m11 -114 c-4 -40 -14 -112 -23
-160 l-16 -88 -58 0 -59 0 35 63 c18 34 48 98 65 141 55 141 66 149 56 44z"/>
<path d="M5855 6358 c-16 -24 -95 -219 -95 -236 0 -6 -24 -16 -52 -22 -60 -14
-108 -36 -108 -50 0 -18 20 -21 42 -6 27 17 98 32 98 20 0 -4 -9 -41 -21 -82
-20 -71 -19 -96 1 -76 5 5 20 43 32 84 12 41 25 79 29 84 4 4 39 12 79 16 66
7 102 22 88 35 -3 3 -39 2 -81 -3 -43 -4 -77 -5 -77 -2 0 13 81 205 90 214 13
13 13 46 1 46 -6 0 -17 -10 -26 -22z"/>
<path d="M12386 6317 c-10 -17 -43 -81 -73 -142 -73 -146 -82 -155 -152 -155
l-55 0 34 35 c22 23 31 38 24 45 -6 6 -25 -5 -55 -35 -40 -39 -50 -44 -76 -39
-18 4 -35 15 -41 29 -8 16 -21 23 -54 28 -93 12 -116 -4 -56 -38 l35 -20 -29
-45 c-17 -26 -28 -56 -26 -70 4 -34 33 -33 33 0 1 14 11 43 24 64 22 35 26 37
60 31 64 -11 67 -13 65 -45 -4 -59 29 -61 118 -9 60 35 72 36 86 4 14 -31 54
-41 104 -28 36 10 41 8 69 -19 26 -27 33 -29 72 -23 23 4 50 11 60 17 12 6 19
5 23 -7 15 -39 146 2 165 52 10 26 2 43 -31 70 -13 11 -13 12 0 13 8 0 60 7
115 15 55 8 119 15 142 15 44 0 61 11 40 27 -7 6 -70 2 -170 -10 -87 -11 -161
-16 -165 -12 -10 10 48 55 81 62 32 7 37 33 5 33 -36 0 -118 -59 -118 -85 0
-17 -7 -24 -31 -29 -57 -11 -58 -10 -43 32 22 62 13 102 -23 102 -24 0 -91
-71 -110 -115 l-18 -45 -67 0 c-38 0 -68 3 -68 6 0 3 17 36 37 72 51 91 114
233 107 243 -9 16 -19 10 -38 -24z m155 -212 c-13 -48 -38 -75 -68 -75 -23 0
-23 1 -9 28 18 35 75 97 82 89 3 -3 1 -22 -5 -42z m143 -106 c34 -27 33 -45
-6 -69 -47 -28 -74 -26 -95 10 -20 35 -40 39 -45 8 -6 -42 -108 -45 -108 -4 0
22 64 54 127 64 88 14 98 14 127 -9z m-534 -17 c0 -10 -71 -45 -77 -38 -3 2
-2 14 2 25 5 16 15 21 41 21 19 0 34 -4 34 -8z m236 -7 c-28 -21 -83 -30 -101
-15 -24 20 -10 27 57 28 58 2 61 1 44 -13z"/>
<path d="M9026 6319 c-20 -64 -59 -167 -85 -230 -31 -74 -33 -77 -70 -83 -21
-3 -43 -11 -48 -18 -15 -19 -24 -166 -11 -175 15 -8 47 32 83 105 15 31 30 59
31 61 6 7 195 39 192 32 -20 -43 -82 -141 -89 -141 -15 0 -10 -28 7 -34 19 -7
34 0 34 18 0 6 20 45 45 86 24 41 45 80 45 87 0 21 -35 23 -119 8 -46 -9 -85
-14 -87 -12 -2 2 13 46 34 98 52 129 68 187 54 201 -8 8 -13 8 -16 -3z m-161
-390 l-25 -44 0 38 c0 30 5 39 23 46 12 5 23 8 25 6 1 -1 -9 -22 -23 -46z"/>
<path d="M9240 6249 c-13 -24 -5 -54 11 -43 8 5 10 -1 6 -18 -5 -18 -2 -28 7
-31 25 -10 36 56 16 94 -14 25 -27 24 -40 -2z"/>
<path d="M13723 6258 c-6 -7 -34 -58 -63 -113 -64 -122 -109 -179 -160 -205
-48 -25 -50 -25 -50 -1 0 10 23 39 50 65 44 41 64 77 43 76 -18 -1 -105 -92
-118 -124 -13 -31 -13 -37 1 -50 8 -9 22 -16 30 -16 25 0 77 30 118 69 l39 36
-7 -27 c-17 -72 29 -110 101 -85 22 8 55 12 72 9 45 -6 84 6 77 24 -3 8 1 17
9 20 20 8 19 24 0 24 -12 0 -7 11 15 39 36 44 46 103 19 109 -27 5 -117 -78
-144 -135 -14 -29 -27 -53 -28 -53 -1 0 -17 -4 -35 -9 -24 -7 -35 -6 -47 5
-20 20 -15 38 52 203 31 77 50 138 45 143 -5 5 -13 3 -19 -4z m141 -230 c-23
-30 -74 -72 -80 -66 -2 3 17 29 43 58 45 50 74 56 37 8z m-39 -98 c3 -6 -4
-10 -17 -10 -18 0 -20 2 -8 10 19 12 18 12 25 0z"/>
<path d="M11990 6199 c0 -6 14 -24 31 -41 41 -41 61 -24 24 21 -26 31 -55 41
-55 20z"/>
<path d="M13426 6202 c-6 -10 11 -71 24 -86 19 -20 27 5 16 46 -13 42 -29 58
-40 40z"/>
<path d="M10746 6153 c-30 -32 -96 -154 -96 -177 0 -8 9 -20 20 -26 26 -14 92
13 125 52 30 36 32 72 5 116 -11 18 -18 37 -15 42 3 5 1 11 -4 15 -5 3 -21 -7
-35 -22z m34 -64 c7 -11 9 -32 6 -45 -7 -26 -59 -64 -89 -64 -15 0 -15 6 9 53
42 84 55 93 74 56z"/>
<path d="M10967 6113 c-25 -51 -43 -74 -82 -102 -27 -19 -52 -34 -55 -33 -11
5 -60 -18 -60 -27 0 -20 44 -11 104 19 32 16 61 28 65 25 4 -2 34 14 66 35 33
22 60 38 61 37 2 -1 -2 -21 -8 -43 -13 -47 -7 -68 20 -83 16 -8 26 -6 47 10
16 13 24 27 20 36 -3 9 -1 21 5 28 8 9 8 15 0 20 -16 10 -40 -14 -40 -41 0
-15 -6 -24 -15 -24 -20 0 -19 11 12 107 14 46 23 86 20 90 -4 3 -34 -19 -66
-50 -33 -32 -62 -57 -64 -57 -3 0 4 17 14 37 23 45 25 83 4 83 -9 0 -29 -28
-48 -67z"/>
<path d="M11236 6158 c-7 -26 -29 -143 -30 -162 -2 -37 21 -26 38 18 19 50 66
106 89 106 8 0 26 -11 41 -25 30 -28 46 -32 46 -11 0 21 -58 66 -84 66 -13 0
-35 -10 -50 -21 l-27 -21 3 27 c3 28 -19 48 -26 23z"/>
<path d="M7484 6146 c-33 -15 -74 -60 -74 -82 0 -8 16 -32 35 -53 l36 -39 -23
-16 c-13 -9 -40 -21 -60 -27 -35 -9 -50 -31 -29 -43 5 -3 36 8 70 25 78 39 88
66 42 113 -37 39 -39 58 -6 80 33 21 44 20 38 -4 -8 -30 21 -25 35 5 25 55 2
70 -64 41z"/>
<path d="M10430 6153 c1 -5 7 -53 14 -108 l13 -100 -47 -70 c-65 -97 -103
-172 -96 -191 9 -22 41 -13 41 13 1 11 6 27 13 35 6 8 9 17 6 21 -7 7 80 138
150 227 29 36 62 82 75 103 12 20 27 35 31 32 16 -10 19 12 5 31 -15 19 -15
19 -30 -1 -9 -11 -14 -28 -12 -37 3 -10 0 -15 -7 -12 -6 2 -31 -23 -56 -57
l-45 -62 -7 58 c-5 39 -4 63 4 72 8 10 6 18 -7 33 -18 20 -45 27 -45 13z"/>
<path d="M14337 6132 c-29 -32 -39 -71 -26 -107 7 -18 10 -39 6 -47 -7 -19
-88 -42 -117 -33 -18 6 -21 3 -18 -12 4 -25 47 -28 109 -8 59 20 73 45 57 98
-14 47 -3 85 28 97 14 6 22 14 19 20 -10 16 -40 12 -58 -8z"/>
<path d="M4330 6104 c-68 -56 -94 -96 -86 -130 7 -25 10 -26 52 -21 28 3 55
13 70 28 30 28 30 20 4 -85 -11 -43 -20 -87 -20 -97 0 -15 -7 -19 -36 -19 -28
0 -37 -5 -41 -21 -5 -19 -11 -20 -82 -14 -473 35 -607 39 -718 24 -79 -11 -93
-15 -93 -31 0 -22 29 -36 39 -20 19 32 209 36 556 11 303 -21 284 -18 291 -47
11 -53 29 -95 46 -106 23 -14 27 -8 40 63 l12 63 180 -3 c100 -2 413 -3 696
-3 283 0 638 0 788 0 197 0 275 3 284 12 25 25 -6 31 -117 20 -76 -7 -235 -7
-530 0 -231 5 -559 6 -730 3 -170 -4 -368 -4 -440 -1 -71 4 -116 7 -99 8 23 2
33 8 37 23 7 25 -17 37 -38 19 -22 -19 -20 2 20 168 22 90 32 149 26 155 -13
13 -31 0 -31 -22 0 -18 -51 -71 -87 -90 -27 -14 -53 -14 -53 -1 0 16 72 91 97
101 13 5 23 13 23 19 0 6 -4 9 -9 6 -5 -4 -11 -1 -13 5 -2 7 -18 -1 -38 -17z
m10 -363 c0 -5 -9 -7 -20 -4 -11 3 -20 7 -20 9 0 2 9 4 20 4 11 0 20 -4 20 -9z
m-15 -41 c3 -5 3 -27 -1 -47 -7 -36 -8 -36 -15 -13 -10 37 -10 70 0 70 6 0 13
-4 16 -10z"/>
<path d="M7963 6084 c-28 -28 -43 -39 -41 -28 2 11 -4 20 -14 22 -15 3 -18 -4
-18 -40 0 -24 -8 -56 -18 -73 -10 -17 -28 -55 -40 -85 -11 -30 -37 -93 -56
-140 -39 -92 -43 -110 -22 -110 7 0 37 50 67 115 29 63 58 115 64 115 27 0
109 67 141 114 48 72 46 156 -5 156 -8 0 -34 -21 -58 -46z m57 -65 c-13 -30
-102 -119 -120 -119 -30 0 20 96 86 165 l39 40 3 -29 c2 -15 -2 -41 -8 -57z"/>
<path d="M4081 6080 c-37 -51 -55 -95 -47 -116 9 -24 30 -11 37 22 3 17 14 45
24 62 15 24 24 30 41 26 31 -8 39 12 12 30 -31 22 -34 21 -67 -24z"/>
<path d="M4826 6108 c-3 -7 -9 -28 -15 -47 -6 -18 -8 -37 -5 -42 3 -5 0 -9 -6
-9 -10 0 -60 -99 -60 -120 0 -27 32 -4 58 43 17 28 48 70 71 92 l41 39 -16
-54 c-9 -30 -20 -63 -25 -72 -5 -9 -9 -24 -9 -32 0 -31 25 -15 55 34 16 28 41
62 56 76 l26 25 7 -32 c8 -43 23 -59 56 -59 16 0 30 -7 34 -15 9 -24 49 -18
130 19 l76 35 -15 -36 c-12 -27 -13 -39 -4 -47 8 -8 21 1 48 34 20 24 52 60
71 79 l35 34 6 -43 c10 -72 79 -106 79 -39 0 26 -3 29 -25 23 -24 -6 -25 -4
-25 40 0 42 -2 46 -24 46 -13 0 -34 -9 -48 -20 -17 -13 -28 -16 -35 -9 -7 7
-25 1 -55 -18 -58 -37 -177 -88 -185 -79 -4 3 12 23 34 43 43 40 64 96 44 116
-13 13 -40 -15 -83 -86 -21 -34 -61 -57 -75 -44 -3 3 -8 27 -11 52 -7 62 -26
68 -68 23 l-32 -36 5 34 c8 47 -18 56 -56 20 -37 -35 -44 -33 -27 9 14 33 14
35 -5 35 -11 0 -21 -6 -23 -12z"/>
<path d="M2949 6093 c-8 -10 -23 -23 -34 -29 -22 -12 -33 -54 -15 -54 7 0 10
-8 7 -20 -7 -26 7 -34 32 -18 13 8 23 30 29 67 11 61 3 84 -19 54z"/>
<path d="M13311 6061 c-34 -52 -81 -161 -81 -186 0 -35 28 -11 43 38 21 64 59
132 74 132 19 0 26 13 19 40 -9 36 -20 31 -55 -24z"/>
<path d="M14005 6066 c-25 -24 -45 -40 -45 -37 0 3 -9 -5 -20 -19 -22 -28 -26
-80 -8 -98 16 -16 53 -15 87 3 27 13 29 13 39 -10 13 -27 49 -34 70 -13 20 20
14 31 -13 24 -43 -11 -41 19 5 86 31 45 38 64 30 72 -8 8 -19 2 -40 -24 -16
-19 -32 -42 -35 -50 -6 -20 -84 -70 -107 -70 -12 0 -18 8 -18 24 0 17 18 39
64 77 36 30 65 60 65 67 2 24 -30 11 -74 -32z"/>
<path d="M8203 6047 c-55 -56 -61 -60 -41 -27 10 15 10 22 0 32 -18 18 -27 3
-57 -102 -15 -52 -45 -128 -67 -168 -29 -54 -37 -77 -29 -85 16 -16 21 -9 97
143 86 168 171 265 190 216 11 -28 -28 -80 -125 -170 -17 -16 -31 -35 -31 -43
0 -29 32 -9 99 63 77 83 102 135 82 173 -20 37 -58 27 -118 -32z"/>
<path d="M8448 6078 c-8 -7 -27 -33 -42 -59 -24 -42 -24 -47 -10 -67 24 -35
93 -25 142 20 29 28 28 41 -9 83 -33 37 -55 43 -81 23z m61 -44 c16 -21 18
-30 10 -40 -14 -17 -87 -40 -96 -30 -10 9 39 96 54 96 6 0 21 -12 32 -26z"/>
<path d="M8694 6060 c-45 -18 -136 -151 -113 -165 18 -12 36 2 42 32 7 33 69
103 91 103 9 0 16 -9 16 -19 0 -24 18 -37 31 -24 17 17 -17 84 -41 82 -3 0
-14 -4 -26 -9z"/>
<path d="M4533 6004 c-15 -50 -16 -58 -2 -82 26 -48 67 -38 151 36 34 31 55
79 40 94 -17 17 -45 1 -39 -22 4 -15 -8 -32 -45 -65 -28 -25 -56 -45 -63 -45
-22 0 -27 35 -10 81 18 55 18 59 1 59 -9 0 -22 -22 -33 -56z"/>
<path d="M7623 5998 c-16 -108 27 -123 116 -42 29 25 41 44 41 63 0 33 -7 42
-26 34 -9 -3 -12 -13 -8 -28 4 -17 -3 -29 -35 -55 -53 -41 -73 -36 -60 17 12
54 11 73 -5 73 -10 0 -17 -20 -23 -62z"/>
<path d="M9579 6044 c-20 -24 -65 -44 -101 -44 -18 0 -53 -9 -77 -20 -40 -18
-43 -19 -36 -2 4 9 10 29 13 45 6 37 -14 35 -76 -6 -27 -19 -57 -37 -66 -40
-20 -8 -21 -37 -1 -37 7 0 19 8 24 18 6 9 11 13 11 9 0 -5 13 1 29 12 38 28
42 27 34 -10 -8 -43 11 -52 59 -28 21 11 58 21 84 24 25 2 60 13 78 23 l33 19
-2 -86 c-2 -120 -24 -167 -97 -208 -58 -33 -97 -78 -128 -145 -24 -54 -26 -88
-3 -88 30 0 80 48 142 139 64 94 64 94 151 103 14 2 26 10 28 20 3 14 -4 16
-47 12 -28 -2 -51 -3 -51 -1 0 2 7 19 16 37 24 48 33 270 12 270 -9 0 -21 -7
-29 -16z m-90 -388 c-24 -42 -100 -129 -106 -122 -5 5 30 73 49 96 13 16 68
60 74 60 2 0 -6 -15 -17 -34z"/>
<path d="M6549 6010 c-131 -22 -149 -27 -149 -47 0 -12 7 -14 33 -8 17 4 92
17 166 29 79 13 136 27 139 34 5 17 -57 14 -189 -8z"/>
<path d="M6461 5862 c-39 -41 -67 -91 -104 -192 -21 -55 -29 -66 -58 -75 -19
-7 -35 -19 -37 -28 -4 -19 11 -22 39 -6 17 9 15 2 -11 -44 -16 -29 -30 -63
-30 -75 0 -29 27 -28 35 1 13 48 61 137 77 142 10 4 36 7 58 7 32 0 40 4 38
17 -3 13 -13 15 -51 13 l-47 -4 11 29 c32 85 113 203 139 203 10 0 34 -19 54
-42 35 -43 53 -47 42 -10 -10 30 -81 102 -101 102 -10 0 -34 -17 -54 -38z"/>
<path d="M14534 5805 c-33 -42 -77 -105 -99 -139 -22 -33 -61 -91 -87 -127
-27 -37 -48 -72 -48 -79 0 -28 29 3 98 101 39 57 100 142 135 188 79 107 81
111 69 123 -7 7 -30 -16 -68 -67z"/>
<path d="M8707 5784 c-14 -15 -23 -33 -20 -40 2 -7 -19 -77 -47 -156 -29 -78
-55 -155 -57 -170 -7 -40 13 -35 37 10 79 142 111 187 173 242 l37 32 -15 -42
c-8 -23 -29 -68 -47 -100 -32 -59 -33 -90 -1 -90 10 0 49 11 88 24 69 24 70
24 84 4 11 -17 21 -19 58 -14 24 3 58 13 75 22 22 11 33 13 36 5 2 -6 12 -21
23 -33 19 -22 20 -22 32 -4 67 104 109 138 180 145 17 2 5 31 -13 31 -42 0
-96 -32 -135 -80 -46 -57 -60 -62 -52 -20 8 38 -9 48 -35 20 -40 -43 -148 -78
-148 -47 0 6 16 27 35 46 19 19 35 40 35 47 0 25 -29 15 -67 -24 -23 -23 -62
-48 -96 -60 -59 -22 -92 -28 -85 -14 65 126 90 204 69 217 -16 9 -83 -38 -133
-94 -46 -52 -46 -48 3 79 31 82 26 107 -14 64z"/>
<path d="M11080 5695 c-50 -94 -71 -123 -113 -157 -74 -59 -126 -92 -133 -85
-13 12 8 59 43 98 33 36 40 40 70 34 36 -6 42 4 17 30 -22 22 -50 11 -101 -38
-48 -46 -66 -82 -61 -123 5 -48 40 -43 125 16 58 40 74 48 69 32 -5 -13 1 -29
17 -48 20 -23 32 -28 65 -27 23 1 54 9 70 17 27 14 31 14 43 0 23 -28 159 0
159 33 0 16 -5 16 -55 -2 -45 -16 -85 -19 -85 -7 0 5 18 21 39 38 71 53 113
164 62 164 -24 0 -85 -70 -114 -131 -25 -54 -72 -83 -128 -77 -33 3 -34 5 -33
43 1 28 19 73 63 154 72 135 78 151 58 151 -9 0 -41 -48 -77 -115z m207 -102
c-15 -28 -57 -72 -57 -59 0 12 62 98 67 93 2 -3 -2 -18 -10 -34z"/>
<path d="M13480 5773 c-1 -5 -3 -34 -5 -66 -6 -72 13 -74 33 -3 11 37 11 50 2
62 -13 15 -30 19 -30 7z"/>
<path d="M2848 5657 c-14 -50 -29 -104 -32 -118 -4 -17 -17 -31 -36 -39 -16
-7 -30 -19 -30 -26 0 -17 14 -18 41 -4 16 9 19 7 19 -9 0 -15 -5 -19 -16 -14
-22 8 -15 -36 8 -51 23 -14 30 -4 36 52 4 43 8 50 41 69 21 12 56 38 80 57 24
20 45 36 47 36 2 0 -5 -24 -16 -52 -11 -29 -20 -66 -20 -82 0 -26 2 -28 28
-22 30 8 36 8 108 0 50 -6 94 6 94 25 0 5 -28 9 -62 9 -85 1 -138 5 -138 9 0
2 15 42 34 89 27 65 32 86 22 90 -8 3 -53 -27 -102 -65 -84 -68 -104 -80 -104
-63 0 4 11 46 25 93 28 97 30 109 13 109 -8 0 -24 -39 -40 -93z"/>
<path d="M11730 5709 c-37 -36 -41 -44 -36 -74 4 -18 13 -47 22 -64 19 -38 13
-49 -34 -56 -64 -11 -68 -14 -50 -31 29 -30 128 15 128 57 0 10 -10 39 -22 65
l-23 46 43 39 c23 22 42 44 42 49 0 21 -30 8 -70 -31z"/>
<path d="M14075 5711 c0 -16 6 -26 15 -26 14 0 15 4 12 38 -3 25 -28 14 -27
-12z"/>
<path d="M13064 5688 c-16 -13 -38 -31 -48 -40 -12 -11 -28 -15 -41 -12 -20 5
-30 -11 -103 -158 -44 -90 -92 -178 -106 -197 -27 -36 -33 -65 -16 -76 5 -3
17 7 26 22 10 15 38 62 64 103 26 41 69 112 95 157 47 81 148 193 161 180 26
-26 -75 -177 -117 -177 -20 0 -26 -24 -9 -35 30 -19 121 75 152 158 33 87 4
123 -58 75z"/>
<path d="M13554 5660 c-95 -65 -128 -96 -120 -116 6 -15 12 -13 44 18 42 41
123 100 129 94 2 -2 -6 -24 -17 -50 -24 -57 -25 -85 -4 -93 21 -8 44 15 26 26
-10 6 -8 20 12 66 14 31 26 63 26 70 0 10 -20 25 -35 25 -1 0 -29 -18 -61 -40z"/>
<path d="M14196 5669 c-26 -18 -54 -42 -63 -55 -8 -13 -21 -24 -29 -24 -8 0
-20 -15 -28 -34 -8 -18 -35 -64 -60 -102 -25 -38 -46 -77 -46 -86 0 -36 26
-16 70 52 25 38 47 65 48 60 6 -16 32 -11 81 16 59 32 98 84 107 139 11 74 -7
82 -80 34z m54 -13 c0 -1 -5 -18 -11 -37 -19 -56 -58 -92 -121 -109 l-28 -9
17 30 c31 52 143 151 143 125z"/>
<path d="M2337 5671 c-55 -28 -236 -165 -237 -178 -1 -28 27 -11 229 141 12 9
-31 -65 -75 -129 -17 -24 -18 -72 -1 -78 17 -6 56 10 95 39 l33 26 -6 -25 c-5
-18 -1 -31 14 -46 24 -24 53 -17 108 25 37 28 48 45 56 92 5 25 3 32 -9 32
-15 0 -18 -5 -28 -52 -7 -32 -77 -84 -100 -75 -14 5 -14 11 -1 48 18 51 18 49
0 49 -9 0 -43 -19 -75 -42 -33 -23 -63 -39 -66 -35 -4 3 19 46 49 94 31 49 59
96 62 105 10 25 -9 29 -48 9z"/>
<path d="M10762 5668 c2 -12 11 -24 21 -26 14 -3 18 1 15 20 -2 12 -11 24 -21
26 -14 3 -18 -1 -15 -20z"/>
<path d="M13740 5643 c-82 -58 -93 -114 -26 -136 39 -13 116 0 116 20 0 13 -8
14 -48 9 -61 -8 -91 9 -72 41 14 22 90 73 109 73 17 0 8 24 -10 28 -8 1 -39
-15 -69 -35z"/>
<path d="M11448 5643 c-41 -45 -58 -76 -58 -104 0 -46 34 -59 93 -34 13 5 17
2 17 -14 0 -23 19 -28 37 -10 9 9 9 16 0 30 -9 14 -8 22 5 36 24 28 59 103 53
113 -7 11 -35 2 -35 -11 0 -21 -53 -91 -83 -109 -39 -24 -57 -25 -57 -3 0 27
50 92 66 86 10 -4 14 3 14 21 0 34 -20 33 -52 -1z"/>
<path d="M13210 5605 c-48 -48 -60 -66 -48 -70 15 -6 138 105 138 125 0 24
-30 6 -90 -55z"/>
<path d="M13347 5618 c-32 -49 -34 -101 -4 -106 14 -3 17 1 12 21 -7 28 18 85
41 94 20 7 18 33 -4 33 -10 0 -30 -19 -45 -42z"/>
<path d="M14777 5649 c-27 -16 -45 -60 -39 -102 5 -47 -9 -65 -60 -73 -41 -7
-56 -20 -41 -35 12 -12 107 16 124 37 8 10 12 37 11 70 -2 46 0 54 15 54 15 0
16 2 3 10 -12 8 -11 10 6 10 23 0 48 23 37 33 -9 10 -35 8 -56 -4z"/>
<path d="M2690 5641 c0 -24 21 -61 35 -61 18 0 19 9 5 44 -9 24 -40 37 -40 17z"/>
<path d="M3978 5622 c-42 -44 -119 -178 -125 -218 -5 -31 -4 -36 13 -32 12 2
21 15 25 38 6 35 94 190 108 190 4 0 13 -11 19 -25 11 -25 23 -31 35 -19 7 7
-27 79 -41 88 -5 3 -20 -7 -34 -22z"/>
<path d="M4704 5616 c-42 -42 -47 -81 -18 -138 8 -15 11 -33 8 -41 -7 -20 -76
-49 -105 -45 -16 2 -25 -2 -27 -14 -9 -48 136 -4 160 48 9 19 8 32 -5 60 -24
49 -21 81 9 109 15 14 31 25 35 25 5 0 9 7 9 15 0 25 -30 17 -66 -19z"/>
<path d="M6950 5609 c-30 -23 -70 -55 -89 -73 l-33 -31 21 42 c11 23 21 49 21
58 0 32 -19 12 -54 -54 -36 -70 -45 -111 -25 -111 6 0 46 32 88 70 43 39 80
70 83 70 3 0 -1 -19 -10 -43 -20 -55 -11 -97 22 -97 27 0 84 40 144 102 l43
45 29 -28 c23 -24 37 -29 76 -29 44 0 46 1 28 15 -10 8 -29 15 -41 15 -23 0
-46 19 -63 51 -16 29 -33 23 -69 -21 -34 -42 -126 -120 -142 -120 -16 0 -9 32
21 97 28 58 31 83 12 83 -4 0 -32 -19 -62 -41z"/>
<path d="M13980 5636 c0 -7 -11 -30 -25 -50 -26 -38 -33 -80 -15 -91 6 -3 13
2 16 12 3 10 17 40 30 66 25 46 26 77 4 77 -5 0 -10 -6 -10 -14z"/>
<path d="M6496 5558 c-43 -65 -52 -86 -43 -97 10 -11 13 -11 22 4 5 9 28 45
50 78 40 61 40 62 83 59 31 -3 42 0 42 11 0 13 -45 27 -87 27 -7 0 -37 -37
-67 -82z"/>
<path d="M14529 5617 c-19 -13 -41 -26 -51 -29 -22 -9 -35 -87 -17 -99 24 -16
129 10 129 32 0 14 -70 5 -79 -10 -4 -6 -12 -6 -21 -1 -18 11 -17 13 53 34 41
12 61 24 69 41 25 55 -23 73 -83 32z m61 -11 c0 -2 -8 -10 -17 -17 -16 -13
-17 -12 -4 4 13 16 21 21 21 13z"/>
<path d="M4190 5575 c-25 -25 -69 -57 -97 -71 -29 -13 -53 -29 -53 -34 0 -19
20 -20 46 -3 26 17 27 17 19 -6 -14 -46 42 -74 112 -55 16 5 21 13 21 40 0 19
-4 34 -8 34 -22 0 -40 -14 -40 -32 0 -28 -44 -20 -48 9 -2 16 10 32 50 63 59
47 72 64 64 86 -8 22 -19 17 -66 -31z"/>
<path d="M6686 5604 c-68 -68 -83 -122 -42 -150 23 -14 28 -14 70 5 40 17 46
24 46 49 0 16 -9 41 -20 55 l-20 26 22 3 c12 2 23 9 26 16 6 18 -63 15 -82 -4z
m36 -70 c11 -22 10 -28 -7 -40 -26 -19 -65 -18 -65 1 0 23 30 65 46 65 8 0 20
-12 26 -26z"/>
<path d="M8410 5605 c0 -8 15 -19 33 -24 29 -8 30 -9 6 -10 -30 -1 -89 -43
-105 -74 -7 -14 -8 -31 -3 -44 13 -36 72 -31 132 10 68 46 71 81 12 141 -21
20 -75 22 -75 1z m69 -79 c10 -12 5 -19 -26 -40 -70 -48 -114 -24 -52 28 34
29 61 33 78 12z"/>
<path d="M4411 5572 c-23 -21 -41 -46 -41 -54 0 -24 27 -41 55 -36 24 5 25 4
19 -33 -7 -42 7 -69 35 -69 26 0 121 52 121 67 0 19 -13 16 -66 -12 -67 -36
-79 -23 -44 50 24 52 13 64 -40 40 -22 -10 -43 -15 -46 -12 -8 8 57 67 74 67
8 0 12 6 10 13 -9 25 -37 17 -77 -21z"/>
<path d="M4905 5586 c-44 -19 -95 -73 -95 -101 0 -30 25 -55 53 -55 53 1 145
66 123 87 -3 4 -1 12 6 20 8 10 6 19 -12 38 -27 28 -33 29 -75 11z m45 -55 c0
-37 -2 -40 -44 -56 -68 -26 -89 -1 -38 48 21 20 55 40 80 46 1 1 2 -17 2 -38z"/>
<path d="M5072 5577 c-21 -22 -52 -86 -52 -107 0 -32 48 -14 154 55 l25 16
-20 -37 c-24 -48 -24 -66 -1 -87 23 -21 75 -22 134 -1 50 17 86 48 69 59 -6 3
-14 -1 -17 -9 -3 -9 -9 -14 -13 -11 -4 2 -25 -2 -47 -10 -47 -17 -100 -19
-110 -4 -3 6 8 38 25 70 49 93 35 100 -74 32 -41 -25 -78 -44 -80 -41 -3 3 6
22 21 43 29 43 19 68 -14 32z"/>
<path d="M10640 5555 c-5 -14 -19 -46 -31 -72 -28 -61 -30 -106 -6 -111 13 -3
17 3 17 30 0 35 31 112 57 140 8 9 12 22 8 27 -11 19 -35 12 -45 -14z"/>
<path d="M2600 5508 c-6 -24 -13 -49 -15 -56 -8 -21 6 -62 20 -62 8 0 14 21
18 58 3 31 9 67 13 80 5 16 2 22 -9 22 -11 0 -20 -15 -27 -42z"/>
<path d="M12262 5393 c-6 -16 -30 -59 -52 -98 -22 -38 -40 -82 -40 -97 0 -31
18 -38 26 -10 11 36 47 109 75 153 16 25 29 53 29 62 0 27 -24 20 -38 -10z"/>
<path d="M3758 4313 c-27 -32 -75 -107 -103 -163 -16 -30 -53 -95 -83 -145
-60 -98 -122 -222 -122 -243 0 -8 9 -12 23 -10 15 2 21 9 20 22 -1 11 13 49
32 85 l33 66 67 13 c37 7 70 10 73 7 3 -3 -6 -49 -21 -103 -33 -125 -39 -160
-26 -168 14 -9 20 -1 25 38 3 18 19 83 36 145 28 100 33 111 49 102 10 -5 28
-9 40 -9 20 0 21 -3 16 -47 -4 -27 -9 -65 -13 -85 -8 -46 9 -51 30 -10 16 31
90 102 106 102 15 0 12 -41 -6 -99 -14 -42 -15 -53 -4 -66 7 -9 16 -12 20 -8
11 12 33 145 29 173 -6 37 -50 39 -96 4 l-35 -27 3 53 c3 36 0 55 -8 57 -7 3
-13 -3 -13 -12 0 -12 -5 -15 -17 -10 -10 4 -28 10 -40 12 -13 3 -23 6 -23 7 0
1 9 44 21 96 23 106 30 231 13 237 -6 2 -17 -4 -26 -14z m-3 -139 c-20 -120
-38 -189 -50 -190 -28 -1 -81 -18 -86 -27 -4 -5 -15 -7 -24 -3 -15 5 -15 8 3
33 11 16 39 66 64 113 52 99 98 174 104 168 2 -2 -3 -45 -11 -94z"/>
<path d="M4475 4148 c-73 -205 -101 -386 -66 -421 17 -17 32 2 20 25 -17 32
-5 117 36 253 20 66 37 126 38 134 3 18 -22 27 -28 9z"/>
<path d="M14310 4116 c0 -43 -52 -191 -94 -269 -17 -33 -43 -81 -57 -108 -19
-35 -23 -51 -15 -57 6 -4 11 -14 11 -22 0 -61 206 55 250 141 20 37 19 52 -3
79 -16 19 -24 22 -55 16 -20 -4 -51 -19 -68 -34 -30 -24 -31 -25 -20 -4 7 13
28 66 47 118 37 102 45 174 19 174 -10 0 -15 -10 -15 -34z m68 -277 c2 -14 -6
-37 -17 -51 -21 -26 -113 -92 -147 -105 -16 -6 -17 -5 -2 16 9 13 14 30 11 37
-7 20 64 103 101 120 39 17 50 13 54 -17z"/>
<path d="M5124 4116 c-3 -8 -2 -22 3 -31 8 -14 11 -14 27 4 10 11 15 25 11 30
-9 16 -35 13 -41 -3z"/>
<path d="M9037 4019 c-19 -41 -47 -111 -61 -156 -15 -45 -33 -87 -41 -93 -7
-6 -11 -19 -8 -29 3 -11 -3 -30 -12 -44 -12 -19 -14 -31 -6 -44 8 -15 13 -10
36 38 23 52 29 58 70 68 56 14 125 14 125 0 0 -6 -5 -20 -11 -31 -16 -30 3
-68 34 -68 13 0 43 14 65 30 l42 30 0 -26 c0 -43 25 -21 28 25 6 76 -3 79 -63
22 -49 -46 -78 -61 -76 -38 1 4 1 13 1 21 0 8 13 28 29 45 22 24 38 31 65 31
25 0 36 4 36 15 0 24 -85 20 -110 -5 -15 -15 -25 -18 -42 -11 -21 8 -130 -3
-149 -15 -11 -6 53 180 82 239 17 35 20 50 12 58 -9 9 -20 -8 -46 -62z"/>
<path d="M9916 4029 c-3 -17 -6 -43 -6 -58 0 -40 -44 -125 -89 -174 -42 -45
-105 -86 -117 -75 -11 11 5 75 25 100 17 21 22 22 50 11 18 -6 33 -7 37 -2 16
26 -44 54 -81 37 -27 -12 -65 -81 -65 -117 0 -34 18 -61 41 -61 76 0 229 181
229 272 0 14 5 28 11 30 16 5 1 68 -16 68 -7 0 -15 -14 -19 -31z"/>
<path d="M12846 4034 c-4 -15 -30 -75 -58 -133 -43 -90 -62 -118 -128 -183
-43 -43 -85 -78 -94 -78 -20 0 -21 44 -2 79 7 13 11 33 8 43 -7 30 -51 -49
-52 -93 0 -82 54 -76 152 18 l68 66 0 -40 c0 -54 30 -93 74 -93 26 0 34 -5 43
-31 12 -30 14 -31 57 -27 53 6 92 29 108 64 17 38 1 41 -33 6 -33 -34 -69 -48
-94 -38 -24 9 -17 40 16 72 55 52 101 184 64 184 -29 0 -68 -56 -125 -180 -12
-25 -57 -24 -70 1 -19 34 -5 96 46 221 54 134 63 168 41 168 -8 0 -18 -12 -21
-26z m83 -293 c-6 -17 -18 -36 -26 -43 -11 -9 -10 -1 6 30 25 49 35 55 20 13z"/>
<path d="M8201 3960 c-23 -44 -40 -80 -37 -80 4 0 -3 -9 -14 -20 -12 -12 -18
-26 -14 -32 4 -6 3 -8 -3 -5 -6 4 -21 -5 -34 -19 -13 -14 -37 -33 -53 -41 -53
-28 -60 17 -10 76 29 34 15 54 -18 24 -21 -19 -58 -84 -58 -102 0 -6 10 -17
23 -26 31 -20 83 -5 124 35 l31 31 -5 -59 c-9 -93 27 -113 102 -56 l31 23 13
-20 c10 -16 19 -20 39 -14 15 3 37 7 50 8 16 1 31 18 56 62 26 47 39 61 61 65
16 3 28 8 27 13 -1 4 -2 14 -2 22 0 8 -8 15 -17 15 -22 0 -103 -76 -103 -96 0
-8 -6 -14 -13 -14 -8 0 -24 -11 -37 -25 -13 -14 -27 -25 -32 -25 -15 0 -8 48
11 82 24 41 37 103 22 112 -13 8 -57 -59 -66 -101 -7 -34 -74 -103 -100 -103
-35 0 -7 125 56 248 42 82 47 102 25 102 -8 0 -33 -36 -55 -80z"/>
<path d="M10077 3983 c-13 -12 -7 -33 8 -33 8 0 15 -4 15 -10 0 -5 7 -10 15
-10 21 0 19 23 -3 43 -20 19 -26 20 -35 10z"/>
<path d="M5207 3953 c-12 -12 -7 -33 14 -63 21 -28 21 -29 3 -66 -23 -45 -44
-56 -37 -19 8 37 -24 33 -32 -5 -8 -39 0 -50 36 -50 22 0 34 8 49 32 28 47 36
89 17 102 -9 7 -13 24 -12 44 2 25 -1 32 -14 32 -10 0 -21 -3 -24 -7z"/>
<path d="M12477 3953 c-4 -3 -7 -15 -7 -25 0 -13 7 -18 25 -18 27 0 33 18 13
38 -14 14 -22 15 -31 5z"/>
<path d="M5693 3934 c-4 -11 0 -22 12 -30 23 -17 33 -11 31 18 -1 28 -33 37
-43 12z"/>
<path d="M4711 3924 c-17 -13 -20 -19 -10 -25 17 -10 49 7 49 26 0 19 -10 19
-39 -1z"/>
<path d="M2617 3917 c-13 -9 -16 -20 -11 -43 5 -28 9 -31 44 -31 38 0 39 1 36
32 -2 18 -6 37 -10 44 -9 15 -38 14 -59 -2z"/>
<path d="M4116 3877 c-15 -19 -26 -41 -26 -50 0 -21 38 -31 72 -18 24 9 26 7
32 -19 6 -34 42 -48 75 -30 24 12 19 32 -7 29 -41 -4 -45 0 -39 37 4 24 2 37
-8 40 -7 3 -15 14 -18 25 -8 32 -52 24 -81 -14z m39 -34 c-26 -18 -32 -7 -9
18 12 14 20 17 23 8 2 -7 -4 -18 -14 -26z"/>
<path d="M4995 3898 c-2 -7 -16 -44 -29 -81 -22 -58 -23 -69 -10 -74 8 -3 16
-4 17 -2 11 16 54 158 50 163 -10 10 -23 7 -28 -6z"/>
<path d="M4499 3874 c-5 -15 -9 -44 -7 -63 3 -33 5 -36 34 -35 l32 2 -18 -57
c-61 -198 -70 -230 -64 -246 7 -17 -7 -18 -297 -11 -282 6 -623 24 -865 45
-132 12 -184 2 -184 -35 0 -19 47 -18 66 1 11 10 27 13 52 10 87 -12 447 -35
692 -45 233 -9 2098 -5 2108 5 2 2 -7 9 -19 16 -19 9 -185 11 -769 6 l-745 -6
-2 27 c-2 28 53 224 87 315 11 29 20 55 20 60 0 17 -31 5 -46 -18 -9 -14 -26
-31 -37 -36 -19 -11 -19 -9 -13 34 8 53 -8 73 -25 31z"/>
<path d="M4667 3872 c-25 -28 -21 -48 17 -78 33 -26 34 -29 21 -54 -21 -41
-40 -53 -55 -35 -7 8 -16 15 -21 15 -17 0 -9 -37 11 -55 20 -18 21 -18 51 11
65 62 72 112 18 139 -33 17 -36 27 -14 45 8 7 15 16 15 21 0 15 -26 10 -43 -9z"/>
<path d="M8707 3868 c-2 -7 4 -32 15 -56 10 -24 18 -50 18 -58 0 -17 -59 -84
-60 -66 0 6 -6 12 -14 12 -16 0 -25 -19 -19 -37 8 -23 51 -14 82 18 38 38 48
72 32 116 -14 38 -9 52 12 35 8 -7 17 -9 20 -5 15 15 5 32 -24 42 -41 14 -56
14 -62 -1z"/>
<path d="M10165 3849 c-30 -21 -109 -121 -121 -152 -5 -13 0 -17 20 -17 27 0
37 24 14 33 -9 4 -8 6 2 7 8 1 35 26 59 56 23 31 45 53 48 51 2 -3 -3 -31 -11
-62 -8 -31 -12 -63 -9 -71 8 -23 38 -12 35 12 -1 11 4 46 12 78 23 86 8 105
-49 65z"/>
<path d="M10324 3845 c-12 -10 -15 -17 -8 -22 6 -5 13 -16 17 -25 8 -23 28
-23 89 4 93 40 133 2 123 -117 -8 -101 -29 -160 -58 -163 -72 -6 -172 -81
-183 -138 -8 -46 16 -84 54 -84 50 0 98 44 137 125 l36 75 79 0 c71 0 103 10
86 27 -3 3 -39 6 -79 6 l-73 1 14 40 c8 23 16 77 19 121 5 99 -14 140 -72 151
-38 7 -51 5 -108 -20 l-38 -16 7 25 c7 29 -11 34 -42 10z m136 -423 c-38 -73
-109 -118 -123 -79 -11 31 52 101 113 126 42 16 42 13 10 -47z"/>
<path d="M6492 3833 c2 -12 12 -17 28 -16 14 1 58 2 98 3 54 2 72 6 72 16 0
11 -21 14 -101 14 -90 0 -100 -2 -97 -17z"/>
<path d="M7542 3786 c-30 -51 -143 -161 -206 -200 -18 -12 -25 -21 -18 -28 13
-13 55 9 115 62 45 40 48 41 42 17 -8 -32 1 -63 21 -71 19 -7 83 25 130 67
l37 32 -6 -27 c-8 -29 7 -78 23 -78 5 0 10 23 10 50 0 32 8 66 21 91 22 44 37
48 18 5 -18 -39 2 -57 33 -30 54 47 54 47 54 -3 -1 -62 19 -67 28 -6 13 87 12
88 -9 87 -11 -1 -29 -5 -39 -9 -19 -8 -19 -8 -1 23 25 42 9 55 -21 17 -13 -16
-24 -24 -24 -17 0 26 -30 10 -74 -42 -52 -61 -135 -126 -161 -126 -31 0 1 92
59 169 14 19 26 43 26 53 0 34 -25 18 -58 -36z"/>
<path d="M12620 3822 c-23 -11 -36 -25 -38 -42 l-4 -25 24 22 c12 12 34 23 48
25 14 1 25 9 25 17 0 22 -16 23 -55 3z"/>
<path d="M9472 3800 c-23 -17 -42 -26 -42 -20 0 5 -7 10 -15 10 -17 0 -21 -55
-5 -65 6 -3 30 10 55 31 25 20 48 35 50 32 3 -3 -4 -25 -15 -49 -22 -49 -27
-103 -8 -97 6 2 17 22 23 44 7 21 20 56 29 76 14 33 14 38 0 52 -21 21 -25 21
-72 -14z"/>
<path d="M11500 3811 c-53 -29 -132 -117 -128 -144 6 -40 47 -44 116 -9 l61
31 3 -37 c2 -30 7 -38 27 -40 33 -5 53 17 23 24 -34 10 -27 43 20 91 35 35 39
43 25 49 -10 3 -24 1 -32 -6 -12 -10 -15 -9 -16 6 -1 11 -2 26 -3 34 -2 22
-55 23 -96 1z m65 -30 c-3 -11 -1 -22 5 -26 16 -10 2 -24 -53 -51 -67 -33
-105 -45 -112 -34 -8 13 45 70 94 102 53 33 75 36 66 9z"/>
<path d="M9956 3749 c-26 -58 -29 -89 -6 -89 5 0 10 6 10 14 0 7 13 39 28 70
16 30 27 58 24 61 -15 15 -32 -1 -56 -56z"/>
<path d="M14536 3750 c-64 -66 -82 -74 -72 -34 18 72 19 87 5 82 -22 -7 -44
-86 -33 -117 15 -42 39 -37 95 21 76 78 35 5 -45 -83 -18 -19 -38 -45 -45 -56
-16 -31 -14 -73 4 -73 9 0 15 9 15 24 0 14 24 53 61 97 135 165 147 276 15
139z"/>
<path d="M5662 3778 c-21 -27 -18 -53 7 -56 18 -3 22 0 18 11 -3 8 -1 19 5 25
11 11 3 32 -11 32 -5 0 -13 -6 -19 -12z"/>
<path d="M11780 3743 c-50 -45 -52 -46 -36 -16 19 38 20 53 3 53 -7 0 -27 -29
-45 -65 -56 -114 -37 -126 53 -35 60 60 83 75 70 43 -12 -29 -14 -97 -3 -110
15 -19 29 -5 22 22 -3 14 2 47 11 74 33 91 4 105 -75 34z"/>
<path d="M12375 3759 c-34 -41 -67 -107 -60 -119 10 -17 35 -11 35 8 0 27 57
112 75 112 8 0 15 7 15 15 0 26 -37 16 -65 -16z"/>
<path d="M13099 3763 c-81 -89 -78 -164 5 -115 30 18 36 19 47 6 28 -34 191
10 197 53 3 20 2 20 -49 -4 -62 -30 -129 -42 -129 -23 0 7 9 27 20 45 l21 33
-32 16 c-43 22 -51 20 -80 -11z m61 -22 c0 -12 -68 -71 -82 -71 -11 0 -2 15
36 58 20 22 46 30 46 13z"/>
<path d="M13361 3724 c0 -11 3 -14 6 -6 3 7 2 16 -1 19 -3 4 -6 -2 -5 -13z"/>
<path d="M2577 3238 c15 -78 7 -144 -26 -214 l-31 -66 -31 26 c-17 14 -37 26
-45 26 -24 0 -99 -77 -119 -121 -19 -40 -19 -42 0 -78 16 -28 27 -37 52 -39
40 -4 79 34 152 151 67 108 83 155 85 237 1 79 -9 120 -30 120 -13 0 -14 -7
-7 -42z m-103 -281 l25 -24 -36 -54 c-57 -84 -81 -97 -108 -55 -15 23 -15 27
4 64 17 33 72 92 86 92 2 0 15 -10 29 -23z"/>
<path d="M8913 3259 c-50 -32 -106 -115 -158 -236 -34 -80 -56 -118 -78 -134
-26 -19 -28 -23 -14 -34 10 -7 13 -16 6 -26 -12 -19 -11 -49 1 -49 5 0 21 22
35 49 24 47 26 49 77 56 74 9 88 14 88 31 0 15 -10 15 -102 -2 l-28 -6 34 79
c57 134 83 177 130 221 47 44 66 47 66 11 0 -28 24 -19 28 10 4 26 -14 51 -37
51 -9 0 -30 -9 -48 -21z"/>
<path d="M10966 3229 c-8 -19 -21 -74 -30 -122 -24 -124 -29 -135 -68 -139
-39 -4 -40 -22 -2 -26 21 -3 25 -7 20 -25 -18 -60 -34 -163 -27 -170 14 -14
28 16 39 81 18 103 28 116 91 120 l53 3 -16 -23 c-22 -31 -20 -57 6 -85 l22
-24 -22 -6 c-25 -6 -30 -33 -6 -33 50 0 74 57 34 82 -29 18 -25 32 21 71 22
19 37 37 32 40 -4 3 -43 5 -86 5 -43 0 -80 2 -82 4 -5 5 30 174 46 226 16 50
-5 68 -25 21z"/>
<path d="M10854 3199 c-18 -35 -6 -61 16 -34 7 8 19 15 26 15 17 0 17 5 4 31
-15 27 -27 24 -46 -12z"/>
<path d="M3203 3198 c-13 -16 -90 -200 -99 -232 -4 -19 -12 -24 -31 -23 -33 3
-41 -19 -10 -27 22 -5 23 -8 16 -63 -7 -65 -3 -79 17 -62 8 6 14 30 14 53 0
62 8 68 95 74 l77 5 -21 -41 c-12 -23 -21 -48 -21 -56 0 -23 19 -30 26 -9 4
10 18 42 31 72 18 40 22 56 13 61 -14 9 -49 2 -67 -13 -9 -6 -13 -5 -13 3 0 9
-13 11 -51 7 -48 -6 -50 -5 -44 16 14 46 79 193 92 209 8 9 12 22 8 27 -8 14
-20 14 -32 -1z"/>
<path d="M7207 3203 c-3 -4 -10 -42 -16 -84 -13 -95 -22 -118 -63 -165 -61
-69 -154 -122 -145 -82 4 20 99 98 119 98 10 0 18 7 18 15 0 9 -10 15 -26 15
-28 0 -129 -88 -140 -122 -7 -23 12 -48 38 -48 52 0 169 94 201 162 22 47 43
196 29 210 -5 5 -12 6 -15 1z"/>
<path d="M4757 3173 c-4 -3 -7 -15 -7 -26 0 -11 -25 -83 -56 -161 -91 -228
-85 -262 31 -161 34 30 65 55 68 55 3 0 1 -13 -4 -29 -15 -43 16 -94 37 -60 3
6 2 15 -4 21 -6 6 -5 25 4 55 18 60 18 63 -6 63 -11 0 -51 -27 -89 -60 -78
-67 -79 -65 -26 60 44 104 86 230 80 241 -7 11 -19 12 -28 2z"/>
<path d="M8044 3158 c-31 -35 -141 -229 -152 -269 -9 -35 0 -79 16 -79 5 0 12
22 14 48 4 45 34 105 135 270 7 12 20 22 29 22 19 0 13 24 -7 28 -8 1 -24 -8
-35 -20z"/>
<path d="M5057 3126 c-7 -16 1 -26 20 -26 7 0 13 9 13 20 0 23 -25 27 -33 6z"/>
<path d="M12691 3131 c-15 -10 -12 -43 6 -48 14 -5 28 36 16 48 -4 4 -14 4
-22 0z"/>
<path d="M3354 3099 c-3 -6 3 -20 14 -32 19 -19 22 -19 28 -4 13 35 -23 66
-42 36z"/>
<path d="M2770 3057 c0 -22 27 -57 43 -57 11 0 8 26 -5 55 -14 31 -38 33 -38
2z"/>
<path d="M8597 3063 c-10 -9 -8 -53 2 -53 5 0 14 7 21 15 20 24 -2 59 -23 38z"/>
<path d="M13355 3037 c-46 -26 -57 -63 -30 -103 25 -38 16 -66 -29 -88 -37
-18 -41 -18 -68 -3 -29 16 -44 8 -34 -18 14 -38 143 -18 166 26 15 27 12 64
-7 98 -17 29 -17 31 -1 47 9 10 27 18 40 19 15 1 24 9 26 23 4 28 -12 28 -63
-1z"/>
<path d="M9310 3037 c0 -7 6 -21 13 -32 17 -22 32 -5 22 25 -7 22 -35 28 -35
7z"/>
<path d="M4325 3031 c-8 -14 16 -61 32 -61 14 0 16 13 7 48 -6 22 -28 30 -39
13z"/>
<path d="M10753 3012 c-41 -55 -64 -113 -61 -150 4 -48 21 -44 28 6 3 21 23
64 44 95 33 51 39 77 17 77 -4 0 -16 -13 -28 -28z"/>
<path d="M14781 3010 c-23 -17 -45 -38 -48 -46 -4 -12 -7 -12 -19 3 -13 17
-15 17 -29 -2 -9 -11 -13 -25 -11 -32 8 -20 -42 -131 -95 -212 -27 -41 -48
-79 -46 -85 8 -25 27 -13 58 39 29 48 37 55 65 55 39 0 105 47 138 97 14 21
34 71 46 111 33 108 17 127 -59 72z m28 -72 c-11 -35 -32 -81 -48 -102 -28
-40 -94 -86 -106 -74 -18 17 135 238 164 238 5 0 0 -28 -10 -62z"/>
<path d="M12021 2987 c-26 -60 -130 -162 -147 -144 -11 11 18 109 36 124 19
17 16 53 -5 53 -13 0 -31 -34 -51 -100 -27 -88 -15 -120 42 -106 36 9 120 90
141 137 16 35 21 38 46 33 27 -6 28 -4 18 15 -7 12 -16 21 -21 21 -4 0 -15 3
-24 6 -12 4 -21 -6 -35 -39z"/>
<path d="M12370 3014 c-29 -18 -54 -50 -64 -81 -9 -27 36 -84 54 -67 8 8 7 14
-5 24 -22 18 -19 53 8 77 38 35 47 36 72 13 36 -34 52 -20 20 18 -30 36 -48
39 -85 16z"/>
<path d="M13949 3010 c-40 -21 -99 -89 -125 -144 -21 -44 -12 -79 28 -109 31
-23 98 -17 98 10 0 11 -6 14 -26 9 -34 -9 -61 1 -74 25 -26 47 92 197 146 186
31 -6 43 12 19 30 -23 16 -22 16 -66 -7z"/>
<path d="M15296 3005 c-20 -14 -48 -37 -62 -53 -23 -24 -24 -25 -10 -2 20 31
21 70 1 70 -18 0 -19 -12 -3 -28 9 -9 9 -12 -3 -12 -14 0 -119 -127 -119 -143
0 -26 132 60 179 117 16 19 56 43 49 29 -40 -75 -45 -124 -14 -136 8 -3 42 0
77 7 61 13 99 40 99 71 0 15 -29 42 -32 29 0 -5 -2 -13 -3 -19 -2 -5 -3 -15
-4 -21 -2 -19 -131 -47 -131 -28 0 3 9 25 20 49 41 89 24 116 -44 70z"/>
<path d="M12587 2963 c-24 -36 -37 -66 -35 -82 4 -31 28 -41 28 -11 0 26 15
55 46 93 13 16 24 35 24 43 0 30 -27 12 -63 -43z"/>
<path d="M13181 3011 c-9 -6 -11 -18 -6 -40 3 -17 4 -39 0 -50 -5 -18 -85 -71
-106 -71 -12 0 -11 43 1 76 6 15 7 31 3 35 -25 25 -59 -73 -39 -113 16 -32 44
-33 99 -2 58 32 80 62 76 106 -2 18 0 38 4 44 12 20 -8 30 -32 15z"/>
<path d="M6669 2983 c-43 -46 -89 -115 -89 -133 0 -10 7 -23 15 -30 21 -17 62
1 114 49 39 36 41 37 41 14 0 -32 22 -29 65 8 38 34 40 33 25 -5 -12 -33 6
-76 31 -76 24 0 34 19 15 26 -21 8 -20 40 4 89 37 77 19 85 -54 25 -26 -22
-50 -40 -52 -40 -2 0 1 11 6 25 8 20 6 27 -5 31 -8 4 -22 1 -29 -6 -12 -9 -15
-6 -18 17 -4 39 -36 42 -69 6z m9 -95 c-78 -72 -85 -39 -10 44 36 40 37 40 43
17 6 -19 -1 -31 -33 -61z"/>
<path d="M15705 3002 c-6 -5 -30 -14 -55 -21 -60 -17 -72 -28 -59 -52 12 -23
29 -25 29 -4 0 8 17 19 43 26 57 15 71 23 75 43 4 17 -17 22 -33 8z"/>
<path d="M5260 2959 c-95 -59 -135 -89 -135 -101 0 -24 24 -17 64 16 45 38
142 96 160 96 19 0 13 -22 -26 -98 -27 -53 -34 -75 -26 -83 23 -23 103 62 83
87 -7 7 -6 22 1 43 6 17 8 43 5 56 -9 37 -49 32 -126 -16z"/>
<path d="M7786 2985 c-8 -9 -18 -15 -22 -14 -10 2 -93 -70 -110 -97 -13 -19
-14 -27 -4 -39 16 -19 47 -19 107 1 59 20 71 30 55 46 -9 9 -12 9 -12 -2 0 -7
-3 -11 -6 -7 -3 3 -28 -1 -56 -9 -27 -9 -53 -13 -56 -10 -9 9 75 84 118 106
22 11 40 25 40 30 0 16 -37 12 -54 -5z"/>
<path d="M12144 2960 c-57 -43 -104 -95 -104 -115 0 -7 6 -18 14 -24 17 -14
47 -3 96 34 l35 26 3 -33 c4 -39 31 -73 45 -59 7 7 6 15 -3 26 -9 10 -10 31
-5 70 4 36 3 55 -4 55 -6 0 -38 -21 -71 -46 -34 -25 -64 -43 -67 -40 -8 8 76
86 105 97 21 8 30 33 15 42 -5 3 -31 -12 -59 -33z"/>
<path d="M15006 2991 c-4 -5 -3 -16 0 -25 3 -8 -4 -32 -16 -54 -30 -53 -24
-96 13 -100 53 -6 117 53 117 109 0 45 -94 103 -114 70z m75 -59 c7 -18 5 -31
-6 -49 -13 -20 -51 -43 -71 -43 -11 0 -1 38 16 60 11 14 20 35 20 47 0 30 28
20 41 -15z"/>
<path d="M8075 2958 c-41 -48 -50 -74 -35 -93 18 -22 48 -18 99 10 53 31 55
31 35 1 -20 -31 -15 -70 10 -74 15 -3 18 0 13 18 -4 14 4 40 21 70 15 27 24
52 20 55 -11 11 -56 -3 -77 -24 -20 -20 -89 -46 -98 -37 -3 3 13 24 36 47 22
23 41 45 41 50 0 21 -40 6 -65 -23z"/>
<path d="M12884 2979 c-3 -6 -1 -16 5 -22 6 -6 11 -23 11 -39 0 -20 -9 -34
-37 -53 -44 -29 -78 -32 -92 -7 -7 14 -5 26 9 47 25 38 45 48 69 35 25 -13 38
4 20 26 -16 19 -64 12 -92 -14 -68 -61 -52 -142 28 -142 64 0 141 73 131 123
-10 48 -36 71 -52 46z"/>
<path d="M4473 2972 c-39 -6 -40 -47 -4 -92 33 -41 33 -63 0 -81 -16 -8 -19
-6 -19 11 0 30 -17 24 -36 -11 -30 -59 31 -65 87 -9 35 35 36 54 6 94 -40 53
-42 59 -19 52 11 -4 23 -2 27 5 10 16 -16 36 -42 31z"/>
<path d="M5592 2959 c-20 -8 -43 -41 -56 -85 -8 -25 16 -54 44 -54 10 0 32 11
48 25 l30 25 13 -57 c7 -32 13 -83 13 -113 1 -50 -1 -55 -19 -51 -11 2 -45 5
-76 8 -49 4 -59 2 -87 -22 -70 -59 -122 -232 -83 -278 45 -55 196 45 254 167
l27 57 29 -16 c30 -15 65 -11 59 7 -2 5 -7 9 -11 9 -4 -1 -20 5 -36 14 -28 14
-29 17 -24 67 3 32 -1 86 -11 135 -10 47 -14 97 -11 116 9 46 -10 56 -30 18
-14 -27 -73 -81 -88 -81 -13 0 -7 36 9 58 11 16 24 22 42 20 18 -2 28 2 30 13
4 19 -34 30 -66 18z m53 -341 c32 -14 31 -31 -4 -94 -50 -87 -171 -178 -199
-149 -13 12 -2 97 18 143 32 71 76 112 121 112 21 0 50 -5 64 -12z"/>
<path d="M14295 2960 c-3 -5 -3 -15 1 -22 4 -6 3 -8 -3 -5 -6 4 -22 -19 -37
-49 -33 -66 -45 -124 -26 -124 12 0 107 74 122 95 4 5 8 1 8 -11 0 -37 12 -34
77 17 l64 51 -18 -36 c-13 -28 -15 -41 -7 -54 16 -25 51 -27 64 -3 9 19 8 21
-15 21 l-25 0 20 40 c20 39 27 80 13 80 -12 0 -75 -40 -99 -62 -21 -19 -21
-19 -17 6 8 39 -20 33 -75 -17 -26 -23 -55 -49 -65 -56 -16 -13 -17 -12 -7 13
5 15 21 47 35 70 23 39 24 56 4 56 -4 0 -11 -4 -14 -10z"/>
<path d="M2860 2945 c-19 -23 -1 -39 21 -19 10 9 16 21 13 25 -8 13 -20 11
-34 -6z"/>
<path d="M8368 2933 c-25 -28 -68 -95 -68 -107 0 -3 9 -6 19 -6 21 0 61 48 61
74 0 21 28 32 43 17 26 -26 33 2 8 33 -19 23 -34 20 -63 -11z"/>
<path d="M9235 2897 c-39 -71 -48 -131 -17 -125 12 2 16 11 14 28 -2 15 12 49
33 84 39 65 42 76 20 76 -7 0 -30 -29 -50 -63z"/>
<path d="M9405 2941 c-43 -26 -67 -57 -63 -78 5 -29 43 -23 43 6 0 17 10 31
33 44 18 11 36 17 39 14 3 -3 -1 -36 -8 -72 -14 -71 -6 -94 28 -81 15 6 15 9
3 16 -13 8 -12 17 2 71 25 94 -5 125 -77 80z"/>
<path d="M9684 2950 c-12 -4 -35 -25 -52 -46 -24 -29 -29 -41 -21 -56 14 -25
47 -23 112 10 l55 28 6 -44 c3 -25 6 -76 6 -114 l0 -69 -31 17 c-134 69 -184
46 -196 -86 -5 -46 -1 -64 20 -106 14 -27 37 -56 51 -64 23 -12 31 -11 61 3
31 15 95 88 95 108 0 4 4 19 10 34 10 25 10 25 46 10 75 -31 84 -13 17 32
l-42 28 -5 147 c-2 81 -7 152 -11 157 -4 7 -20 0 -43 -19 -39 -31 -111 -65
-119 -56 -8 8 57 66 73 66 8 0 14 7 14 15 0 17 -14 18 -46 5z m37 -307 c46
-24 54 -32 51 -53 -4 -44 -47 -114 -81 -134 l-33 -19 -26 27 c-24 24 -27 34
-26 94 0 74 15 112 43 112 9 0 42 -12 72 -27z"/>
<path d="M4146 2901 c-7 -56 -30 -89 -79 -116 -30 -16 -38 -17 -51 -6 -22 18
-20 63 5 105 20 34 19 63 -2 50 -19 -11 -49 -84 -49 -119 0 -41 29 -75 63 -75
29 0 100 49 124 86 19 30 24 115 7 121 -7 2 -14 -16 -18 -46z"/>
<path d="M14120 2940 c0 -6 7 -24 15 -40 18 -35 12 -54 -22 -69 -37 -17 -41
-5 -16 41 22 39 22 58 3 58 -6 0 -21 -23 -36 -51 -26 -52 -26 -52 -6 -72 24
-23 54 -19 95 14 31 24 33 42 12 93 -14 33 -45 51 -45 26z"/>
<path d="M8911 2891 c-27 -55 -23 -96 9 -106 10 -3 28 -1 40 5 28 15 26 7 -23
-74 -51 -85 -67 -120 -67 -147 0 -32 21 -18 35 23 13 39 96 173 152 247 56 74
36 83 -47 21 -53 -39 -90 -51 -90 -28 0 6 11 30 25 53 13 23 21 45 18 49 -15
15 -29 3 -52 -43z"/>
<path d="M3388 2898 c-34 -36 -62 -94 -53 -108 12 -20 35 -10 35 15 0 32 60
102 71 83 10 -17 -1 -98 -12 -98 -15 0 -10 -28 7 -34 28 -11 31 -7 37 61 5 51
3 73 -8 90 -21 31 -41 29 -77 -9z"/>
<path d="M3702 2908 c-31 -34 -44 -75 -32 -99 16 -29 43 -23 93 21 l46 41 10
-38 c6 -21 11 -57 11 -81 0 -39 -2 -42 -22 -38 -98 22 -138 -2 -138 -82 0 -53
20 -82 57 -82 28 0 99 54 118 89 29 57 16 219 -21 256 -14 14 -21 11 -67 -31
-41 -36 -53 -43 -55 -30 -6 28 26 68 49 61 15 -5 19 -2 19 14 0 29 -40 28 -68
-1z m105 -224 c22 -6 22 -7 5 -36 -20 -35 -77 -72 -97 -64 -18 7 -20 77 -3 94
13 13 59 16 95 6z"/>
<path d="M4945 2918 c-3 -7 -6 -31 -8 -53 -3 -49 23 -57 30 -10 2 17 4 39 6
49 2 22 -21 34 -28 14z"/>
<path d="M2818 2898 c-22 -27 -22 -37 -2 -59 21 -24 11 -49 -20 -49 -18 0 -27
8 -35 30 -10 32 -31 41 -31 15 0 -9 7 -29 15 -45 12 -24 22 -30 48 -30 57 1
87 41 60 80 -13 18 -14 27 -4 42 11 18 8 38 -7 38 -4 0 -15 -10 -24 -22z"/>
<path d="M8501 2888 c-11 -18 -28 -43 -37 -56 -12 -16 -14 -26 -6 -34 15 -15
25 -6 65 62 32 52 34 60 18 60 -11 0 -28 -15 -40 -32z"/>
<path d="M2641 2838 c-45 -85 -53 -114 -35 -129 11 -9 15 -8 17 2 15 54 33 99
54 131 26 42 29 58 10 58 -7 0 -28 -28 -46 -62z"/>
<path d="M4254 2865 c-21 -33 -25 -120 -4 -120 9 0 15 10 16 25 2 59 5 71 24
87 25 22 25 33 0 33 -11 0 -27 -11 -36 -25z"/>
<path d="M3204 2573 c-14 -65 -47 -155 -58 -159 -17 -7 -16 -196 2 -201 8 -3
12 9 12 44 0 70 11 121 26 127 7 3 59 2 114 -1 94 -6 99 -7 85 -23 -9 -10 -13
-25 -9 -36 6 -15 4 -17 -6 -7 -11 10 -16 9 -26 -5 -18 -23 -17 -37 3 -57 15
-16 14 -17 -23 -13 -29 2 -39 -1 -39 -12 0 -19 60 -25 98 -11 34 13 35 34 2
49 l-26 12 27 36 c15 19 41 46 58 59 17 13 28 26 26 29 -3 2 -54 6 -113 7 -59
1 -120 4 -136 7 l-28 4 23 74 c13 41 24 81 24 89 0 26 -29 16 -36 -12z"/>
<path d="M2644 2468 c-61 -58 -84 -94 -84 -133 0 -58 89 -55 199 6 50 28 52
29 37 7 -40 -57 3 -51 73 10 31 27 68 56 82 65 l26 17 -16 -90 c-16 -94 -11
-117 22 -104 19 7 23 30 7 36 -6 2 -4 34 6 87 11 56 12 87 6 93 -16 16 -54 2
-101 -39 -34 -29 -41 -32 -31 -14 20 38 -4 50 -37 19 -63 -59 -213 -122 -236
-99 -16 16 8 61 33 61 11 0 20 4 20 9 0 5 23 25 51 46 53 38 62 67 22 73 -16
2 -39 -12 -79 -50z"/>
<path d="M10431 2433 c-24 -25 -36 -32 -44 -24 -19 19 -40 12 -70 -21 -59 -68
-81 -138 -44 -138 20 0 46 32 30 37 -17 6 -5 33 30 71 38 40 55 42 26 3 -20
-27 -21 -61 -2 -61 8 0 37 57 38 74 0 5 9 10 20 12 24 3 78 61 70 74 -9 15
-18 11 -54 -27z"/>
<path d="M6941 2393 c-6 -21 -20 -72 -31 -113 -28 -104 -63 -212 -104 -324
-20 -52 -36 -102 -36 -111 0 -44 34 4 120 168 77 148 106 194 155 245 34 34
66 62 73 62 32 0 -7 -149 -73 -280 -57 -113 -45 -133 40 -63 l56 47 23 -29
c13 -16 21 -36 19 -46 -8 -28 15 -57 51 -67 49 -14 151 8 143 31 -6 19 -25 19
-46 -2 -11 -11 -23 -16 -26 -11 -4 6 -21 10 -39 10 -19 0 -39 7 -46 15 -13 15
-13 16 66 45 47 17 87 63 79 89 -11 36 -56 27 -112 -24 l-50 -44 -13 25 c-20
37 -54 41 -95 10 l-34 -26 34 75 c61 133 84 266 49 279 -46 18 -158 -92 -225
-220 -18 -35 -35 -62 -36 -60 -2 2 4 22 12 46 14 40 85 295 85 305 0 3 -7 5
-15 5 -8 0 -19 -16 -24 -37z m388 -359 c-13 -16 -62 -44 -76 -44 -14 1 61 60
75 60 12 0 12 -3 1 -16z"/>
<path d="M12120 2378 c-5 -13 -23 -43 -39 -68 -17 -25 -31 -51 -31 -57 0 -7
-4 -13 -10 -13 -5 0 -10 -13 -10 -28 0 -19 5 -29 15 -29 8 0 15 9 15 19 0 11
20 51 45 89 43 67 57 109 35 109 -6 0 -15 -10 -20 -22z"/>
<path d="M12003 2345 c-43 -45 -60 -83 -49 -110 8 -23 18 -19 63 28 64 64 68
70 70 100 2 42 -33 35 -84 -18z m47 -10 c-13 -14 -18 -25 -11 -25 7 0 9 -5 6
-11 -4 -6 -13 -8 -20 -5 -7 2 -18 -1 -25 -7 -7 -7 -1 5 14 25 24 32 38 44 55
47 3 1 -6 -10 -19 -24z"/>
<path d="M13407 2303 c-9 -38 -30 -117 -47 -178 -32 -118 -39 -205 -17 -224
20 -16 25 -5 20 43 -6 45 53 301 82 360 11 20 12 34 4 47 -16 31 -24 22 -42
-48z"/>
<path d="M9773 2298 c-43 -45 -83 -130 -131 -278 -52 -157 -57 -189 -39 -215
13 -17 18 -18 41 -7 34 15 36 47 2 38 -26 -6 -26 -7 -4 82 8 31 16 42 29 42
11 0 19 4 19 9 0 4 20 14 44 21 48 13 85 43 67 54 -6 4 -18 2 -28 -3 -33 -19
-96 -41 -101 -36 -7 7 56 172 85 223 13 23 35 49 49 58 23 16 26 16 48 -5 28
-26 36 -27 36 -2 0 21 -40 51 -68 51 -10 0 -32 -15 -49 -32z"/>
<path d="M11399 2283 c-6 -15 -23 -62 -38 -104 -31 -83 -75 -157 -86 -140 -8
14 -80 14 -107 0 -38 -21 -63 -120 -36 -147 31 -31 90 4 159 95 l24 32 -3 -53
c-2 -30 1 -63 7 -75 16 -28 53 -36 89 -17 32 16 42 13 42 -15 0 -20 28 -39 57
-39 25 0 78 44 69 58 -5 8 -16 6 -36 -9 -38 -28 -60 -19 -60 24 0 28 8 42 43
73 23 22 50 50 60 64 21 30 22 76 3 83 -21 8 -113 -95 -127 -142 -14 -47 -79
-91 -104 -71 -31 25 -14 138 37 254 17 38 33 86 35 107 7 46 -13 61 -28 22z
m162 -230 c-5 -10 -22 -29 -37 -43 -30 -26 -20 -8 20 38 23 26 30 28 17 5z
m-300 -50 c-15 -29 -83 -93 -98 -93 -26 0 -10 82 21 102 6 4 28 8 49 8 33 0
36 -2 28 -17z"/>
<path d="M3761 2246 c-15 -17 -7 -22 42 -25 41 -2 46 5 20 25 -23 17 -48 17
-62 0z"/>
<path d="M8280 2183 c-29 -88 -67 -147 -138 -215 -71 -68 -120 -96 -128 -74
-8 20 43 112 78 141 16 14 35 21 47 18 10 -2 22 0 26 7 9 14 6 17 -27 25 -21
5 -34 0 -66 -29 -53 -48 -97 -133 -88 -170 15 -59 69 -42 172 56 l71 68 6 -42
c9 -65 54 -86 116 -54 25 13 28 13 39 -5 23 -36 122 -14 122 27 0 18 -10 17
-34 -1 -24 -18 -66 -20 -66 -2 0 7 22 34 49 60 71 69 97 131 67 156 -28 23
-91 -34 -127 -117 -12 -26 -25 -54 -29 -62 -4 -8 -24 -21 -45 -29 -35 -14 -39
-13 -52 5 -18 24 -11 69 32 193 18 53 31 99 28 103 -14 23 -34 1 -53 -59z
m223 -82 c-6 -23 -73 -104 -80 -97 -6 6 15 44 46 83 29 37 41 42 34 14z"/>
<path d="M12564 2227 c-7 -20 3 -37 21 -37 23 0 26 16 5 35 -18 16 -20 16 -26
2z"/>
<path d="M13962 2180 c-70 -51 -74 -77 -18 -129 45 -42 29 -57 -69 -64 -19 -2
-30 -8 -30 -17 0 -19 84 -17 123 3 48 23 50 42 9 85 -20 21 -37 42 -37 48 0
13 48 58 78 73 12 6 22 16 22 21 0 19 -38 10 -78 -20z"/>
<path d="M13605 2143 c-9 -44 -44 -108 -78 -143 l-32 -33 -3 84 c-3 103 -8
121 -26 96 -13 -16 -13 -124 0 -184 7 -35 40 -28 87 20 46 46 71 91 81 150 6
29 4 37 -8 37 -9 0 -18 -12 -21 -27z"/>
<path d="M7955 2130 c-9 -15 5 -52 18 -47 15 5 16 49 0 54 -6 2 -14 -1 -18 -7z"/>
<path d="M11806 2123 c-73 -22 -135 -89 -169 -183 -32 -89 -37 -125 -19 -125
9 0 27 38 46 94 39 113 81 164 151 183 41 11 64 32 47 41 -4 3 -29 -2 -56 -10z"/>
<path d="M8674 2120 c-31 -12 -104 -100 -104 -124 0 -12 5 -27 12 -34 15 -15
54 -16 63 -2 9 14 25 12 25 -3 0 -27 38 -50 72 -44 57 9 88 26 98 52 5 14 14
25 20 25 5 0 10 7 10 15 0 8 -6 15 -13 15 -16 0 -47 -31 -47 -47 0 -13 -85
-37 -99 -28 -19 11 -12 47 15 87 17 25 24 44 19 55 -6 16 -10 14 -28 -12 -12
-16 -38 -44 -56 -62 -65 -62 -86 -30 -23 34 20 21 47 44 59 52 35 23 18 38
-23 21z"/>
<path d="M13711 2073 c-48 -76 -40 -123 21 -123 27 0 78 31 78 47 0 17 -5 16
-41 -3 -17 -8 -33 -14 -35 -12 -2 2 10 24 27 48 34 51 34 84 2 88 -17 3 -29
-8 -52 -45z"/>
<path d="M12972 2043 c-22 -32 -52 -69 -67 -83 l-27 -25 7 78 c6 66 5 77 -8
77 -12 0 -17 -16 -22 -65 -9 -84 -2 -115 29 -115 39 0 161 159 138 182 -7 7
-22 -8 -50 -49z"/>
<path d="M10435 2076 c-60 -26 -155 -152 -155 -206 0 -42 34 -18 56 40 24 62
93 140 124 140 29 0 25 -25 -20 -110 -44 -82 -46 -90 -27 -90 6 0 24 19 39 43
32 50 83 107 96 107 5 0 12 -25 14 -56 3 -32 11 -59 18 -64 29 -18 29 -6 3
129 -3 21 -8 23 -38 18 -29 -5 -34 -2 -37 15 -5 34 -37 49 -73 34z"/>
<path d="M10978 2065 c-42 -28 -89 -92 -107 -144 -12 -37 -8 -45 27 -56 16 -5
22 -2 22 9 0 8 -5 18 -10 21 -15 9 -3 42 33 92 27 39 72 67 107 68 8 0 15 7
15 15 0 25 -47 23 -87 -5z"/>
<path d="M13184 2062 c-39 -22 -69 -44 -77 -59 -12 -20 4 -43 30 -43 33 0 119
81 110 104 -8 20 -24 20 -63 -2z"/>
<path d="M9405 2061 c-8 -14 3 -31 21 -31 10 0 6 -14 -17 -54 -61 -110 -16
-169 63 -84 79 85 83 150 9 161 -20 3 -43 8 -52 12 -10 3 -20 2 -24 -4z m95
-72 c0 -11 -20 -41 -45 -67 -48 -50 -60 -41 -29 21 32 64 74 90 74 46z"/>
<path d="M12670 2033 c-33 -37 -69 -106 -70 -131 0 -8 9 -12 23 -10 16 2 22
10 22 28 1 28 35 89 62 111 15 13 16 8 8 -61 -11 -111 -11 -143 0 -147 6 -2
16 27 23 67 29 168 2 223 -68 143z"/>
<path d="M10772 2033 c-6 -10 -13 -36 -16 -59 -8 -48 -42 -108 -56 -99 -6 3
-10 13 -10 20 0 9 -6 12 -15 9 -39 -15 3 -72 44 -59 24 7 59 72 67 123 4 23
11 45 15 48 5 3 9 12 9 20 0 20 -27 18 -38 -3z"/>
<path d="M5117 2012 c-21 -23 -21 -27 -1 -46 10 -11 34 -16 68 -16 l52 0 17
-47 c22 -63 22 -83 -2 -83 -11 0 -21 -4 -23 -9 -1 -5 -21 -6 -43 -2 -61 11
-95 -9 -95 -58 0 -73 65 -102 131 -58 75 49 97 153 53 243 -18 38 -21 39 -76
42 -57 3 -79 18 -35 24 28 4 25 22 -6 26 -13 2 -30 -5 -40 -16z m107 -241 l29
-6 -34 -32 c-34 -34 -66 -42 -87 -21 -13 13 -16 50 -5 61 8 8 56 7 97 -2z"/>
<path d="M4670 1969 c-17 -24 -33 -53 -36 -65 -3 -12 -16 -26 -30 -33 -30 -13
-31 -33 -1 -29 15 2 27 -5 39 -24 11 -17 26 -28 40 -28 35 1 108 37 108 55 0
19 1 19 -51 -5 -57 -26 -67 -25 -75 5 -5 21 2 35 41 76 49 52 55 82 18 87 -16
2 -30 -8 -53 -39z"/>
<path d="M7879 1963 c-25 -58 -28 -88 -10 -88 7 0 20 20 28 45 8 25 20 50 25
57 11 13 3 33 -13 33 -5 0 -19 -21 -30 -47z"/>
<path d="M12487 2003 c-3 -5 -10 -33 -16 -63 -6 -30 -13 -65 -17 -77 -4 -16
-2 -23 8 -23 18 0 38 41 38 78 0 15 7 38 16 50 8 12 12 27 9 32 -7 12 -32 13
-38 3z"/>
<path d="M5456 1942 c-12 -14 -13 -21 -4 -30 20 -20 36 -14 36 13 0 33 -11 39
-32 17z"/>
<path d="M4869 1920 c-12 -8 -12 -11 1 -24 19 -18 52 -24 56 -11 5 17 -41 44
-57 35z"/>
<path d="M7105 1843 c-4 -16 -22 -79 -41 -142 -19 -62 -34 -119 -34 -126 0
-15 -44 -25 -106 -25 -43 0 -64 -14 -48 -30 5 -5 37 -5 74 0 35 5 65 8 66 7 7
-10 -11 -77 -21 -77 -17 0 -28 -31 -15 -44 7 -7 10 -6 10 2 0 7 9 12 20 12 20
0 23 7 35 82 5 33 9 37 45 43 22 4 50 15 62 25 l23 19 -40 -5 c-22 -2 -48 -7
-58 -10 -21 -7 -19 6 23 136 40 121 46 160 26 160 -9 0 -18 -11 -21 -27z"/>
<path d="M2975 1780 c-4 -11 -8 -30 -10 -43 -9 -56 -16 -63 -83 -84 -37 -12
-79 -24 -94 -27 l-28 -6 0 60 c0 47 -3 60 -15 60 -15 0 -20 -31 -16 -97 l3
-33 -67 0 c-36 0 -76 5 -87 11 -15 8 -23 8 -32 -1 -22 -22 23 -40 101 -40 85
0 78 14 63 -141 -8 -74 -15 -107 -27 -116 -8 -7 -13 -19 -10 -28 8 -19 27 -20
27 0 0 8 6 15 14 15 10 0 16 19 21 68 3 37 9 98 13 136 l7 70 94 28 c52 15 96
26 99 24 2 -3 -3 -39 -12 -81 -20 -97 -21 -165 -3 -165 8 0 19 12 26 27 18 39
81 123 92 123 6 0 9 -27 7 -61 -4 -87 16 -87 29 -2 9 57 8 71 -5 86 -8 9 -20
17 -27 17 -12 0 -76 -63 -94 -95 -11 -17 -11 -15 -5 15 3 19 12 62 18 94 7 33
17 61 24 64 15 5 16 29 0 34 -9 3 -9 15 0 48 6 24 9 47 6 52 -9 14 -22 9 -29
-12z"/>
<path d="M8010 1788 c-1 -2 -2 -23 -4 -48 -6 -66 -41 -150 -98 -235 -58 -86
-78 -95 -78 -34 0 33 6 47 35 76 26 26 40 33 56 28 17 -6 20 -3 17 12 -6 35
-46 27 -92 -19 -51 -51 -67 -105 -41 -144 26 -40 59 -32 103 29 66 90 89 131
111 201 25 82 28 136 6 136 -8 0 -15 -1 -15 -2z"/>
<path d="M7724 1746 c-8 -21 -1 -49 14 -54 7 -2 12 5 12 17 0 11 5 23 10 26
17 11 11 25 -10 25 -11 0 -23 -6 -26 -14z"/>
<path d="M8599 1680 c-15 -9 -18 -66 -7 -165 3 -29 1 -30 -34 -29 -31 1 -38
-2 -38 -17 0 -27 73 -26 100 1 24 24 25 30 3 75 -16 34 -16 39 0 84 9 27 17
51 17 55 0 9 -23 7 -41 -4z"/>
<path d="M3540 1613 c-17 -26 -38 -51 -47 -56 -10 -7 -14 -6 -9 1 11 18 -15
25 -32 9 -13 -13 -13 -19 -2 -31 7 -9 18 -16 25 -16 9 0 12 -11 8 -38 -5 -34
-1 -42 23 -61 34 -27 93 -24 125 5 27 24 9 38 -27 19 -36 -19 -55 -19 -79 -1
-29 21 -6 87 40 115 44 25 64 64 45 86 -21 25 -39 17 -70 -32z"/>
<path d="M9096 1644 c-10 -26 7 -36 37 -22 32 16 30 32 -5 36 -17 2 -28 -3
-32 -14z"/>
<path d="M4693 1624 c-46 -71 -46 -180 1 -221 31 -26 93 -40 108 -25 12 12 7
15 -45 26 -45 10 -67 40 -67 91 0 61 23 113 55 125 31 12 24 30 -10 30 -15 0
-31 -10 -42 -26z"/>
<path d="M8277 1572 c-92 -93 -70 -128 42 -70 68 35 68 35 55 9 -7 -14 -11
-37 -7 -51 13 -54 43 -63 41 -12 -1 15 6 55 16 90 11 34 16 65 13 69 -3 3 -28
-11 -56 -30 -27 -20 -69 -45 -93 -57 l-43 -22 45 47 c25 26 55 51 68 56 13 5
20 13 17 19 -14 22 -43 7 -98 -48z"/>
<path d="M11086 1589 c-15 -11 -35 -38 -45 -58 -20 -37 -83 -224 -86 -251 -1
-8 -5 -30 -9 -48 -8 -32 -9 -33 -47 -27 -31 5 -39 4 -39 -8 0 -9 13 -18 30
-22 36 -8 35 -6 11 -86 -31 -102 -36 -139 -18 -139 16 0 27 20 28 53 0 12 10
53 22 92 l23 70 93 0 c66 0 95 4 98 13 3 9 -12 12 -56 13 -34 1 -65 3 -71 4
-5 1 -19 3 -30 4 -17 1 -19 6 -14 29 4 15 10 32 14 37 5 6 20 51 35 100 45
147 81 205 128 205 8 0 31 -11 51 -25 44 -30 46 -30 46 -6 0 13 -17 27 -52 45
-63 31 -78 32 -112 5z"/>
<path d="M5943 1578 c-32 -35 -63 -91 -63 -114 0 -11 6 -28 13 -38 12 -17 15
-17 55 -1 85 34 118 113 66 154 -34 27 -46 26 -71 -1z m67 -47 c0 -10 -16 -33
-35 -50 -37 -32 -65 -40 -65 -18 2 50 100 118 100 68z"/>
<path d="M3203 1578 c-44 -21 -79 -128 -51 -156 20 -20 25 -14 24 31 -1 52 27
96 66 104 15 3 28 12 28 19 0 16 -35 17 -67 2z"/>
<path d="M8071 1555 c-91 -104 -70 -179 39 -146 47 14 55 24 39 52 -8 15 -8
19 0 15 6 -4 11 -2 11 5 0 7 -10 9 -25 6 -25 -4 -25 -4 -10 19 18 28 19 56 3
72 -18 18 -23 16 -57 -23z m14 -43 l-28 -27 23 33 c12 18 25 31 28 27 3 -3 -7
-18 -23 -33z m6 -76 c-22 -6 -35 -6 -43 2 -9 9 -7 12 9 12 12 0 25 5 28 10 5
8 12 7 22 -2 14 -11 12 -14 -16 -22z"/>
<path d="M5599 1556 c-15 -12 -34 -35 -44 -50 -10 -15 -24 -25 -31 -22 -19 7
-31 -19 -38 -87 -3 -32 -10 -66 -15 -75 -9 -18 -62 -216 -65 -242 0 -8 6 -15
14 -15 10 0 26 39 52 130 60 206 69 233 99 280 37 58 73 82 95 64 23 -19 12
-78 -31 -164 -36 -75 -85 -133 -85 -102 0 9 -6 17 -13 17 -17 0 -17 -62 0 -67
21 -7 92 68 123 131 17 33 35 86 42 117 10 50 10 60 -5 83 -22 33 -62 34 -98
2z"/>
<path d="M3311 1544 c-29 -37 -29 -99 0 -115 26 -13 82 -4 99 17 19 22 5 28
-29 14 -17 -7 -37 -10 -46 -6 -17 6 -20 39 -5 67 16 29 32 23 18 -6 -8 -18 -8
-29 -1 -36 13 -13 43 37 43 71 0 31 -53 27 -79 -6z"/>
<path d="M7685 1505 c-18 -62 -15 -110 6 -110 8 0 13 6 11 14 -4 18 18 112 29
127 5 6 6 14 2 17 -17 18 -33 2 -48 -48z"/>
<path d="M6126 1508 c-4 -24 -18 -62 -32 -85 -24 -42 -31 -73 -16 -73 14 0 37
31 73 100 19 35 35 57 36 50 1 -8 4 -31 8 -52 l6 -36 75 0 c57 -1 81 -5 95
-18 26 -23 61 -12 141 46 l68 49 -6 -43 c-9 -64 10 -68 60 -10 30 34 47 46 59
41 14 -5 16 -14 11 -46 -7 -44 1 -80 15 -65 5 5 12 32 16 60 5 40 3 55 -10 68
-24 23 -55 20 -86 -10 l-26 -25 -6 30 c-9 43 -28 40 -106 -17 -99 -73 -127
-79 -71 -16 17 20 27 40 24 49 -9 23 -20 18 -53 -22 -31 -38 -32 -38 -104 -38
l-72 0 -2 44 c-2 54 -16 70 -43 53 -12 -7 -21 -8 -25 -2 -12 20 -23 9 -29 -32z"/>
<path d="M4920 1497 c-15 -56 -10 -101 12 -105 27 -5 82 26 107 58 27 37 17
63 -30 79 -60 21 -75 15 -89 -32z m90 -7 c13 -9 10 -15 -18 -40 -38 -35 -52
-38 -52 -9 0 49 34 73 70 49z"/>
<path d="M5186 1528 c-42 -157 -40 -148 -23 -148 8 0 20 14 26 31 6 17 15 28
21 24 5 -3 25 5 42 19 44 33 88 44 88 22 0 -22 24 -30 49 -16 27 14 27 30 0
30 -11 0 -17 4 -14 10 4 6 4 17 1 25 -4 12 -14 11 -62 -5 -31 -11 -63 -25 -70
-31 -19 -16 -35 -1 -28 27 5 18 2 24 -10 24 -9 0 -18 -6 -20 -12z"/>
<path d="M11475 1478 c-3 -7 -15 -49 -28 -93 -68 -230 -90 -302 -98 -317 -6
-13 -4 -20 10 -28 29 -15 31 -13 31 24 0 18 23 104 50 190 28 86 50 164 50
171 0 8 9 15 20 15 27 0 25 14 -5 34 -20 13 -26 14 -30 4z"/>
<path d="M9030 1436 c0 -17 24 -28 45 -20 22 9 18 21 -7 28 -33 8 -38 8 -38
-8z"/>
<path d="M13635 1410 c-4 -6 -2 -17 5 -25 15 -19 -4 -123 -36 -195 -27 -59
-85 -126 -122 -141 -15 -6 -31 -5 -44 2 -17 9 -19 17 -14 50 8 51 -16 54 -39
5 -16 -34 -50 -56 -85 -56 -23 0 -23 3 -11 47 18 62 -30 68 -95 11 -19 -17
-37 -29 -39 -27 -2 3 1 24 7 47 13 52 6 72 -27 72 -19 0 -48 -22 -106 -80 -44
-44 -85 -80 -90 -80 -15 0 -10 40 8 71 11 19 26 29 40 29 27 0 29 8 9 36 -14
18 -15 18 -45 -10 -17 -16 -38 -49 -47 -73 -16 -41 -16 -44 1 -63 31 -34 54
-24 138 60 74 74 97 91 97 73 0 -5 -9 -37 -20 -72 -28 -90 -16 -96 62 -33 35
29 66 52 70 52 4 0 3 -14 -2 -32 -7 -21 -6 -36 1 -45 15 -18 73 -17 109 2 28
14 31 14 50 -5 31 -31 72 -25 127 18 79 63 142 209 143 330 0 35 -3 42 -19 42
-11 0 -23 -5 -26 -10z"/>
<path d="M7175 1268 c-3 -13 -9 -43 -14 -68 -5 -25 -20 -89 -35 -143 -14 -55
-23 -103 -20 -108 13 -22 37 -4 95 72 33 44 63 78 66 76 2 -3 11 -46 19 -96
17 -108 30 -144 47 -138 6 2 10 11 8 18 -2 8 -12 59 -22 114 -9 55 -20 108
-24 118 -5 12 4 29 29 57 34 38 47 70 27 70 -12 0 -78 -73 -145 -162 -32 -43
-60 -78 -62 -78 -2 0 4 21 12 48 17 56 43 164 51 210 4 25 2 32 -11 32 -8 0
-18 -10 -21 -22z"/>
<path d="M7773 1278 c-25 -31 -35 -61 -24 -67 8 -5 2 -37 -19 -107 -39 -123
-43 -234 -9 -234 5 0 9 29 9 64 0 43 11 99 35 177 19 63 35 127 37 143 3 31
-13 44 -29 24z"/>
<path d="M9840 1255 c-9 -10 -10 -34 -5 -85 7 -68 6 -70 -24 -100 -43 -44 -72
-38 -90 18 -12 40 -16 44 -41 39 l-27 -6 20 41 c25 49 15 72 -32 76 -42 4
-137 -49 -218 -123 -66 -60 -76 -80 -43 -90 24 -8 43 2 37 20 -6 15 71 90 131
129 24 15 59 30 78 33 34 6 34 5 24 -21 -5 -14 -39 -65 -74 -113 -59 -79 -70
-103 -47 -103 5 0 35 25 67 55 75 71 94 82 94 57 0 -11 9 -31 21 -46 31 -40
72 -35 120 13 l40 39 -4 86 c-3 48 -7 89 -9 92 -3 2 -11 -2 -18 -11z"/>
<path d="M10028 1253 c-23 -25 -98 -190 -98 -215 0 -22 19 -20 31 3 4 8 19 44
34 82 35 86 59 117 85 110 26 -7 56 5 44 17 -5 4 -25 11 -44 15 -27 5 -39 2
-52 -12z"/>
<path d="M12222 1214 c-71 -64 -77 -87 -36 -141 l25 -33 -25 0 c-26 0 -36 -23
-15 -35 14 -9 66 13 73 30 3 8 -8 30 -25 51 -16 20 -29 41 -29 47 0 13 108
116 115 109 3 -3 5 2 5 11 0 30 -25 18 -88 -39z"/>
<path d="M7640 1226 c0 -19 -9 -63 -20 -98 -21 -69 -45 -217 -36 -225 3 -3 11
-3 19 0 9 3 16 29 20 79 3 40 15 102 26 138 25 79 28 140 6 140 -10 0 -15 -10
-15 -34z"/>
<path d="M11307 1253 c-4 -3 -2 -12 4 -19 19 -23 -1 -75 -47 -120 -61 -61 -84
-56 -84 17 0 19 -5 29 -15 29 -20 0 -20 -68 1 -98 23 -34 56 -27 113 24 54 49
79 102 67 148 -6 25 -25 34 -39 19z"/>
<path d="M12065 1247 c-43 -25 -84 -70 -90 -99 -8 -34 14 -73 50 -90 28 -13
24 -29 -5 -21 -25 7 -28 -24 -4 -34 18 -7 84 22 84 37 0 6 -20 23 -45 38 -52
31 -59 45 -42 77 14 27 74 75 94 75 7 0 13 7 13 15 0 18 -27 19 -55 2z"/>
<path d="M7526 1228 c-8 -32 -7 -38 5 -38 18 0 41 30 35 45 -8 23 -33 18 -40
-7z"/>
<path d="M10222 1224 c-8 -14 -3 -24 19 -47 44 -44 36 -93 -21 -122 -36 -19
-69 -19 -76 -1 -7 18 21 85 48 113 20 21 20 23 3 29 -21 8 -37 -10 -66 -71
-35 -75 -19 -115 46 -115 58 0 125 59 125 110 0 30 -40 112 -57 117 -6 2 -16
-4 -21 -13z"/>
<path d="M7926 1194 c-10 -26 -7 -34 12 -34 10 0 23 -5 30 -12 9 -9 12 -8 12
6 0 44 -41 75 -54 40z"/>
<path d="M10631 1173 c-39 -49 -40 -103 -3 -103 11 0 27 10 35 23 15 21 16 19
16 -43 1 -75 -4 -84 -43 -87 -40 -3 -64 -29 -82 -89 -19 -67 -16 -188 6 -192
19 -3 59 61 105 165 20 44 40 77 47 75 23 -6 58 9 58 24 0 11 -5 14 -16 10 -9
-4 -24 -4 -33 -1 -13 4 -15 18 -13 84 6 142 -27 199 -77 134z m15 -51 c-18
-16 -18 -16 -6 6 6 13 14 21 18 18 3 -4 -2 -14 -12 -24z m14 -198 c0 -9 -19
-55 -42 -103 l-42 -86 -4 40 c-2 21 2 59 9 82 15 57 79 110 79 67z"/>
<path d="M10330 1150 c0 -16 -9 -53 -20 -82 -11 -29 -20 -59 -20 -65 0 -27 28
-11 61 33 30 41 57 64 73 64 3 0 6 -22 6 -48 0 -26 5 -53 12 -60 17 -17 45
-15 45 3 0 8 -6 15 -14 15 -9 0 -13 14 -13 46 0 48 -14 84 -32 84 -6 0 -26
-11 -44 -25 l-34 -26 10 26 c7 18 7 33 0 46 -16 28 -30 23 -30 -11z"/>
<path d="M11575 1154 c-21 -22 -23 -23 -18 -5 3 14 1 21 -9 21 -16 0 -64 -108
-72 -162 -11 -75 23 -49 77 57 13 28 34 58 46 69 25 23 29 15 33 -68 2 -37 8
-61 16 -64 15 -5 17 130 2 159 -15 26 -46 24 -75 -7z"/>
<path d="M11789 1143 c-19 -21 -35 -45 -36 -53 -1 -8 -5 -32 -9 -52 -9 -50 15
-89 54 -86 34 2 72 26 72 44 0 18 -11 18 -36 -1 -43 -33 -70 -10 -58 52 5 25
16 41 44 58 47 30 55 42 40 60 -19 23 -34 18 -71 -22z"/>
<path d="M8025 1068 c-86 -89 -106 -126 -62 -114 12 3 25 6 28 6 4 0 9 12 12
28 3 15 27 47 52 72 l47 45 -8 -55 c-11 -78 -11 -123 2 -127 7 -2 16 30 23 84
7 48 14 93 16 100 2 6 -3 19 -10 30 -13 17 -20 12 -100 -69z"/>
<path d="M8362 1081 c-20 -50 -62 -88 -82 -76 -16 10 -12 40 10 68 24 31 26
50 3 45 -25 -5 -69 -96 -56 -116 32 -51 104 -33 137 35 12 23 24 42 28 43 3 0
14 -23 23 -51 13 -37 15 -66 10 -107 -10 -86 -15 -102 -35 -102 -61 0 -139
-68 -164 -143 -30 -90 -18 -137 35 -137 49 0 125 103 159 216 l12 41 101 7
c55 4 109 12 120 18 37 19 -4 25 -106 15 -54 -5 -99 -8 -101 -6 -2 2 1 32 7
67 7 46 7 78 -2 115 -13 61 -45 117 -65 117 -7 0 -23 -22 -34 -49z m38 -321
c-13 -45 -69 -146 -95 -170 -49 -46 -69 -3 -40 81 18 51 49 86 90 105 47 21
55 18 45 -16z"/>
<path d="M7466 1102 c-14 -23 -47 -145 -44 -164 4 -29 28 -36 28 -8 0 12 10
53 21 92 14 47 18 73 11 80 -6 6 -12 6 -16 0z"/>
<path d="M7868 1028 c-19 -15 -46 -104 -40 -130 6 -30 32 -21 32 11 0 38 17
83 36 98 9 6 13 16 9 22 -8 14 -18 14 -37 -1z"/>
<path d="M8825 981 c-12 -25 -45 -188 -45 -228 0 -6 7 -19 16 -28 12 -12 19
-13 30 -4 19 15 18 29 -2 29 -12 0 -14 7 -10 28 3 15 8 52 12 82 8 70 29 120
48 120 9 0 16 7 16 15 0 28 -48 18 -65 -14z"/>
<path d="M10455 911 c-27 -6 -31 -12 -53 -91 -58 -213 -60 -217 -96 -239 -46
-29 -60 -64 -30 -75 11 -4 31 9 60 39 49 50 99 68 171 63 l47 -3 -33 -37 c-28
-32 -30 -39 -17 -44 31 -12 86 65 72 101 -6 18 -110 21 -164 5 -29 -8 -33 -7
-28 6 3 9 15 52 26 97 34 133 39 144 65 151 24 6 33 21 18 29 -5 2 -21 1 -38
-2z"/>
<path d="M9784 883 c-3 -10 -23 -56 -44 -103 -21 -47 -41 -97 -45 -112 -4 -16
-11 -28 -17 -28 -5 0 -6 -6 -2 -12 6 -10 5 -10 -7 -1 -9 7 -20 8 -28 4 -16
-10 -6 -31 14 -31 7 0 15 -5 17 -11 3 -8 9 -7 19 3 8 9 34 17 58 20 40 3 42 2
36 -20 -9 -35 12 -100 35 -107 43 -14 107 14 173 74 l28 25 -17 -45 c-34 -90
10 -107 75 -29 46 55 67 62 80 27 15 -38 34 -49 57 -32 19 14 18 15 -3 21 -13
3 -23 13 -23 20 0 16 -35 54 -51 54 -5 0 -35 -24 -66 -52 -31 -29 -51 -44 -45
-32 17 33 41 148 33 157 -10 10 -32 -11 -61 -58 -26 -41 -96 -93 -139 -101
-27 -6 -32 -3 -41 21 -13 35 0 87 26 100 83 43 115 68 112 88 -2 16 -11 23
-32 25 -23 3 -37 -6 -77 -47 -37 -39 -58 -52 -89 -57 -45 -7 -46 -7 -25 42 8
19 14 36 15 39 0 3 16 39 35 80 19 42 35 79 35 83 2 16 -31 12 -36 -5z"/>
<path d="M9315 811 c-7 -13 12 -51 26 -51 14 0 7 52 -8 57 -6 2 -14 -1 -18 -6z"/>
<path d="M10664 719 c-10 -17 13 -36 27 -22 12 12 4 33 -11 33 -5 0 -12 -5
-16 -11z"/>
<path d="M9378 667 c-64 -60 -83 -107 -42 -107 8 0 14 8 14 18 0 17 58 82 73
82 10 0 9 -50 -3 -90 -8 -27 -7 -38 6 -50 14 -13 17 -13 30 4 9 13 10 22 4 26
-10 6 -7 49 6 92 7 24 -13 58 -35 58 -10 0 -34 -15 -53 -33z"/>
<path d="M9201 624 c-12 -37 -20 -69 -17 -72 13 -12 33 10 45 49 12 41 25 58
44 59 5 0 5 -6 1 -12 -5 -10 -4 -10 6 -1 13 12 5 37 -10 28 -5 -3 -11 -1 -15
5 -15 25 -34 5 -54 -56z"/>
<path d="M10983 675 c-11 -8 -28 -35 -37 -60 -8 -26 -25 -54 -37 -64 -14 -11
-20 -24 -16 -34 5 -14 13 -13 68 9 35 13 73 34 86 46 l23 21 0 -21 c0 -42 27
-55 104 -48 90 8 174 25 181 36 5 8 -133 5 -195 -5 -51 -8 -64 5 -56 54 5 36
4 41 -13 41 -11 0 -32 -15 -48 -34 -26 -31 -70 -62 -78 -54 -8 8 26 82 44 95
12 8 19 19 16 24 -8 13 -17 11 -42 -6z"/>
<path d="M10770 640 c-35 -8 -90 -62 -90 -87 0 -22 40 -36 84 -29 54 9 86 31
86 59 0 23 -26 68 -38 66 -4 -1 -23 -5 -42 -9z m39 -71 c-18 -11 -78 -23 -85
-16 -13 12 22 46 51 49 34 3 56 -19 34 -33z"/>
<path d="M9638 553 c-25 -6 -22 -40 3 -48 11 -4 22 -5 23 -3 1 1 7 15 14 31
12 29 5 32 -40 20z"/>
</g>
</svg>
