<?xml version="1.0" standalone="no"?>
<!DOCTYPE svg PUBLIC "-//W3C//DTD SVG 20010904//EN"
 "http://www.w3.org/TR/2001/REC-SVG-20010904/DTD/svg10.dtd">
<svg version="1.0" xmlns="http://www.w3.org/2000/svg"
 width="1617.000000pt" height="1213.000000pt" viewBox="0 0 1617.000000 1213.000000"
 preserveAspectRatio="xMidYMid meet">

<g transform="translate(0.000000,1213.000000) scale(0.100000,-0.100000)"
fill="#000000" stroke="none">
<path d="M13875 11869 c-45 -40 -117 -156 -159 -257 -49 -117 -78 -165 -109
-180 -29 -14 -36 -32 -13 -32 11 0 7 -15 -15 -60 -32 -67 -35 -80 -16 -80 7 0
30 36 51 80 39 79 39 79 95 96 31 9 71 20 89 23 39 7 47 25 14 29 -14 2 -29
-4 -38 -15 -12 -16 -15 -16 -25 -3 -8 11 -12 12 -16 3 -4 -12 -53 -19 -53 -8
0 3 7 16 15 29 9 13 31 61 50 106 57 137 149 270 187 270 6 0 12 -9 15 -20 6
-23 19 -26 26 -6 8 19 -21 56 -43 56 -11 0 -35 -14 -55 -31z"/>
<path d="M13623 11782 c-47 -47 -94 -115 -134 -197 -24 -50 -61 -106 -83 -127
-28 -28 -35 -39 -24 -43 16 -6 13 -50 -4 -72 -7 -9 -5 -15 5 -19 23 -8 37 3
37 30 0 13 5 37 11 54 11 33 16 35 127 62 40 10 52 23 34 34 -5 3 -33 -1 -63
-9 -30 -8 -55 -15 -56 -15 -12 0 100 197 136 239 l45 54 8 -31 c8 -32 27 -44
29 -19 6 66 -30 98 -68 59z"/>
<path d="M13140 11686 c0 -34 -47 -181 -77 -240 -18 -36 -27 -46 -36 -37 -22
22 -65 12 -91 -21 -51 -69 -65 -139 -29 -152 19 -8 103 72 150 143 40 59 102
211 103 249 0 13 6 22 15 22 18 0 19 14 5 41 -15 27 -40 24 -40 -5z m-142
-309 c9 -10 1 -25 -34 -63 -43 -47 -45 -48 -39 -19 7 34 42 95 55 95 4 0 12
-6 18 -13z"/>
<path d="M3938 11688 c-3 -7 1 -27 8 -44 7 -17 10 -34 7 -38 -4 -3 -10 -34
-14 -68 -8 -72 -24 -88 -107 -115 -47 -15 -53 -20 -50 -42 3 -27 28 -42 28
-17 0 9 12 21 28 26 15 6 39 17 54 25 36 21 38 20 38 -20 0 -65 -21 -137 -41
-142 -10 -3 -19 -11 -19 -18 0 -18 37 -25 50 -9 21 24 40 106 40 170 0 60 2
64 34 89 19 14 46 44 61 66 14 23 28 39 30 37 2 -2 -7 -57 -20 -123 -26 -129
-30 -181 -15 -205 9 -15 13 -13 120 92 37 36 74 45 105 24 14 -9 25 -25 25
-35 0 -24 29 -49 66 -57 42 -8 114 13 114 32 0 13 -6 14 -27 8 -42 -12 -101
-10 -115 5 -11 11 -10 12 0 6 17 -9 47 18 79 72 30 51 28 97 -3 101 -24 3 -76
-37 -100 -77 -15 -25 -20 -27 -44 -18 -42 16 -78 1 -141 -60 -70 -66 -70 -67
-35 103 29 140 36 219 20 219 -7 0 -35 -35 -64 -77 -59 -88 -85 -107 -77 -56
13 72 -18 197 -35 146z m467 -237 c-8 -26 -53 -81 -66 -81 -21 0 -7 41 26 76
37 39 52 40 40 5z"/>
<path d="M11350 11694 c0 -3 5 -15 11 -26 7 -12 13 -43 14 -68 2 -26 6 -61 10
-78 l7 -32 -49 0 c-27 0 -73 7 -102 16 -66 19 -91 13 -144 -35 -23 -21 -73
-54 -110 -73 l-68 -36 -6 29 c-7 38 -31 58 -39 33 -17 -55 -53 -78 -100 -65
-21 5 -30 14 -32 34 -4 31 32 72 55 63 22 -9 36 3 22 20 -18 22 -48 16 -80
-15 -78 -78 12 -174 114 -122 48 25 47 12 -3 -28 -74 -60 -138 -209 -111 -259
6 -12 19 -22 27 -22 42 0 125 140 144 242 11 56 12 57 81 93 l46 24 -4 -24
c-7 -34 28 -65 75 -65 80 0 192 50 192 86 0 20 -16 18 -39 -5 -22 -22 -109
-51 -152 -51 -36 0 -52 21 -40 53 6 16 33 37 78 61 64 34 71 36 113 26 49 -12
111 -10 104 2 -3 4 -1 8 5 8 6 0 13 -11 17 -25 7 -27 -12 -148 -27 -177 -7
-14 -6 -18 6 -18 23 0 44 57 51 139 6 61 10 71 26 71 10 0 42 12 70 26 l51 26
-7 -44 c-19 -139 -19 -148 -3 -148 9 0 32 11 52 24 57 39 85 41 156 10 77 -32
161 -41 226 -25 33 9 49 9 51 2 2 -6 10 -11 18 -11 10 0 14 12 14 42 0 81 70
134 124 93 31 -23 38 -18 20 16 -15 30 -18 31 -70 27 -68 -6 -104 -35 -104
-85 0 -39 -22 -51 -105 -60 -49 -5 -50 -4 -29 14 34 29 37 51 9 79 -19 19 -31
23 -52 18 -58 -12 -83 -27 -89 -51 -5 -17 -11 -22 -23 -18 -43 17 -80 16 -125
-4 l-47 -20 6 97 c3 53 8 111 11 129 5 34 -12 55 -27 32 -5 -8 -9 -26 -9 -41
0 -17 -11 -37 -27 -53 -28 -25 -98 -53 -109 -43 -4 5 -34 169 -34 191 0 4 -9
7 -20 7 -11 0 -20 -3 -20 -6z m550 -268 c0 -19 -22 -35 -58 -42 -39 -8 -57 20
-27 42 25 19 85 18 85 0z m-1015 -157 c4 -12 3 -24 -2 -28 -6 -3 -22 -34 -38
-68 -28 -63 -68 -112 -79 -95 -12 19 21 111 58 161 42 56 51 61 61 30z"/>
<path d="M7732 11668 c-10 -13 -20 -67 -24 -126 -2 -25 -8 -34 -25 -38 -13 -4
-23 -10 -23 -16 0 -5 -5 -6 -11 -2 -7 4 -26 8 -43 9 -17 1 -37 4 -45 6 -7 2
-16 -2 -18 -8 -6 -16 45 -36 66 -27 9 3 35 8 57 10 l42 3 7 -110 c5 -75 11
-109 19 -106 15 5 19 88 8 144 -14 64 -7 76 49 94 l50 16 -7 -56 c-3 -31 -6
-58 -6 -61 -1 -49 5 -72 17 -76 9 -4 46 16 92 50 43 31 83 56 89 56 6 0 16
-17 22 -38 15 -48 47 -81 64 -64 9 9 9 12 1 12 -6 0 -19 21 -29 48 -10 26 -22
53 -27 60 -17 22 -54 12 -113 -31 -94 -69 -88 -70 -81 11 3 38 15 93 27 120
23 53 24 82 3 90 -13 4 -17 -3 -27 -49 -4 -20 -18 -32 -55 -48 -73 -31 -75
-30 -68 37 4 31 10 67 13 80 7 24 -7 30 -24 10z"/>
<path d="M14822 11658 c-7 -7 -12 -22 -12 -34 0 -12 -11 -47 -25 -78 -20 -46
-29 -56 -49 -56 -14 0 -47 -5 -75 -12 -38 -9 -51 -16 -51 -30 0 -22 7 -22 53
-3 42 17 87 20 87 5 0 -6 -13 -40 -29 -75 -20 -43 -26 -67 -19 -71 15 -10 33
17 64 97 l27 68 54 7 c31 3 89 9 129 13 41 3 75 11 77 16 3 15 -95 18 -176 5
-38 -6 -71 -9 -73 -8 -1 2 11 35 27 73 16 38 29 75 29 82 0 16 -22 17 -38 1z"/>
<path d="M8700 11643 c0 -25 16 -47 28 -40 14 9 2 57 -14 57 -8 0 -14 -8 -14
-17z"/>
<path d="M10379 11618 c0 -7 0 -41 1 -75 2 -101 4 -100 -105 -108 -76 -5 -95
-10 -95 -22 0 -14 13 -15 95 -9 88 7 95 6 95 -11 0 -34 -12 -63 -26 -63 -8 0
-14 -5 -14 -11 0 -5 -4 -7 -10 -4 -6 3 -7 -1 -4 -10 4 -9 9 -13 12 -11 3 3 11
1 18 -5 18 -15 45 30 51 84 l5 43 74 10 c54 7 74 6 74 -2 0 -7 -8 -14 -18 -16
-19 -5 -54 -67 -46 -80 16 -25 83 29 94 74 3 13 17 28 30 35 37 18 32 39 -9
35 -18 -1 -40 3 -48 10 -12 10 -18 9 -28 -5 -8 -11 -32 -20 -63 -24 l-51 -6
-3 88 c-2 60 -7 90 -15 93 -7 2 -13 -2 -14 -10z"/>
<path d="M13300 11615 c0 -17 46 -42 57 -32 8 9 -27 47 -44 47 -7 0 -13 -7
-13 -15z"/>
<path d="M4883 11603 c-7 -18 38 -63 63 -63 22 0 17 18 -16 50 -36 35 -38 36
-47 13z"/>
<path d="M3155 11595 c-37 -19 -65 -51 -65 -74 0 -10 29 -43 64 -74 78 -69
103 -116 85 -158 -6 -16 -21 -36 -33 -44 -25 -18 -74 -20 -72 -2 0 6 -3 13 -9
14 -5 2 -10 -10 -10 -25 0 -24 4 -27 41 -30 67 -5 133 66 120 130 -9 44 -61
114 -111 148 -25 17 -45 34 -45 39 0 13 44 48 68 54 28 7 52 -16 45 -44 -5
-17 -2 -20 13 -17 23 4 30 46 11 69 -19 25 -67 31 -102 14z"/>
<path d="M4745 11531 c-67 -16 -112 -62 -100 -100 3 -11 29 -40 56 -65 46 -42
49 -46 30 -55 -14 -8 -22 -8 -26 -1 -8 13 -35 -6 -35 -25 0 -22 25 -24 68 -5
27 12 42 26 42 37 0 10 -25 41 -55 69 -40 37 -54 56 -49 68 9 25 57 46 103 46
48 0 62 16 26 30 -14 6 -27 10 -28 9 -1 -1 -15 -4 -32 -8z"/>
<path d="M5756 11522 c-7 -12 3 -42 14 -42 18 0 22 22 7 37 -9 9 -17 11 -21 5z"/>
<path d="M8499 11513 c-36 -22 -49 -47 -56 -104 -5 -43 -4 -49 13 -49 16 0 19
8 19 46 0 38 5 50 28 70 33 28 47 30 89 8 46 -24 61 -1 17 25 -41 25 -75 26
-110 4z"/>
<path d="M14153 11513 c-28 -6 -120 -103 -139 -149 -18 -42 -10 -74 17 -74 20
0 26 15 10 25 -32 19 80 160 137 171 18 4 32 13 32 20 0 14 -14 15 -57 7z"/>
<path d="M5100 11491 c-19 -10 -42 -30 -50 -45 -14 -25 -14 -28 10 -46 14 -11
37 -22 52 -25 34 -8 78 -42 78 -60 0 -20 -58 -48 -85 -41 -27 7 -39 -3 -24
-21 16 -19 59 -16 96 7 79 47 59 104 -49 139 -21 7 -40 17 -44 22 -8 14 23 46
52 53 14 4 24 12 22 18 -7 19 -21 19 -58 -1z"/>
<path d="M8210 11480 c-11 -11 -20 -29 -20 -39 0 -15 -5 -18 -21 -14 -16 5
-20 2 -17 -13 2 -10 12 -21 23 -24 11 -3 31 -13 45 -22 40 -27 107 -39 122
-21 9 12 9 16 -3 24 -8 4 -21 6 -30 4 -9 -3 -29 -1 -45 6 l-29 11 39 13 c21 8
43 19 47 26 11 18 -8 48 -37 59 -37 14 -52 12 -74 -10z m69 -24 c13 -15 -4
-26 -40 -26 -22 0 -24 11 -7 28 16 16 33 15 47 -2z"/>
<path d="M8842 11473 c-51 -25 -112 -129 -89 -152 17 -17 27 -13 27 12 0 32
54 105 87 118 57 22 78 -15 52 -91 -14 -39 1 -54 38 -37 25 11 32 37 9 37 -12
0 -13 7 -6 31 11 37 -1 74 -29 88 -27 15 -50 13 -89 -6z"/>
<path d="M9075 11446 c-18 -23 -25 -44 -23 -63 3 -27 6 -28 53 -28 32 0 66 9
92 22 34 18 43 20 53 8 10 -13 100 -192 100 -201 0 -2 -24 -1 -54 2 -64 8
-147 -10 -171 -36 -49 -54 77 -200 174 -200 66 0 125 94 102 161 -7 19 -6 31
0 35 13 8 89 -3 158 -22 54 -15 93 -12 75 6 -14 14 -116 40 -187 47 l-59 6
-50 103 c-28 57 -59 112 -70 123 -10 11 -23 32 -28 47 -12 32 -36 26 -32 -8 3
-29 -7 -38 -67 -61 -68 -25 -83 -2 -31 48 16 15 27 32 24 37 -11 17 -34 7 -59
-26z m294 -302 c11 -10 3 -105 -12 -127 -43 -65 -156 -27 -202 69 -19 41 -14
52 37 64 29 8 167 3 177 -6z"/>
<path d="M3636 11449 c-24 -19 -86 -100 -86 -113 0 -3 7 -6 15 -6 8 0 26 18
41 40 14 21 37 46 50 55 23 15 25 15 35 -12 10 -25 6 -123 -6 -156 -3 -7 0
-19 5 -27 8 -13 12 -12 31 6 12 13 18 27 14 34 -4 7 -8 45 -9 85 -1 56 -5 78
-20 94 -24 26 -36 26 -70 0z"/>
<path d="M7359 11447 c-70 -47 -73 -116 -5 -101 17 3 47 15 67 25 l37 18 -10
-33 c-15 -46 -3 -84 27 -92 25 -6 45 1 45 17 0 5 -9 9 -20 9 -30 0 -34 21 -16
81 9 29 16 54 16 56 0 10 -37 0 -80 -22 -77 -39 -109 -30 -49 14 24 18 33 20
45 10 19 -16 31 -3 18 19 -16 25 -36 25 -75 -1z"/>
<path d="M7071 11438 c-34 -22 -64 -84 -59 -124 3 -27 6 -29 42 -27 22 2 57
11 77 21 l38 19 10 -66 c5 -36 12 -83 15 -103 l5 -38 -82 0 c-122 0 -149 -26
-110 -107 28 -60 102 -90 154 -62 13 7 18 16 14 27 -3 9 -3 13 1 9 10 -9 34
48 34 79 0 18 6 23 33 26 37 3 40 21 4 26 -23 3 -25 9 -32 85 -5 45 -9 109 -9
143 -1 55 -4 63 -32 87 -35 29 -62 31 -103 5z m86 -34 c17 -26 16 -27 -11 -50
-15 -13 -33 -24 -41 -24 -9 0 -12 -6 -9 -17 5 -14 4 -15 -4 -4 -6 8 -18 11
-31 6 -15 -5 -21 -2 -21 10 0 40 54 105 87 105 7 0 20 -12 30 -26z m19 -356
c-13 -78 -59 -100 -114 -53 -34 29 -50 74 -30 86 7 5 44 9 82 9 l69 0 -7 -42z"/>
<path d="M14279 11448 c-8 -7 -28 -30 -43 -51 l-28 -38 23 -20 c16 -14 32 -19
49 -15 14 4 41 9 60 13 19 3 61 24 94 45 32 21 67 38 77 38 18 0 18 -3 -2 -52
-28 -69 -28 -83 -4 -83 15 0 21 9 25 35 4 19 12 46 19 58 7 13 10 35 7 48 -9
35 -59 32 -119 -6 -26 -16 -54 -30 -61 -30 -7 0 -26 -6 -42 -14 -64 -31 -98
-29 -59 4 8 7 12 16 9 21 -3 5 1 6 9 3 18 -6 41 21 33 41 -7 18 -27 19 -47 3z"/>
<path d="M13876 11400 c-40 -44 -47 -84 -17 -99 24 -13 91 -2 91 14 0 8 5 15
12 17 6 2 8 9 5 15 -8 12 -47 6 -47 -8 0 -5 -11 -9 -25 -9 -34 0 -32 9 17 50
25 22 39 41 34 48 -13 21 -33 13 -70 -28z"/>
<path d="M3336 11423 c-3 -3 -6 -41 -6 -83 0 -64 4 -82 21 -105 16 -20 29 -26
49 -23 l26 4 -19 -40 c-11 -22 -24 -69 -30 -103 l-11 -63 -166 1 c-220 1 -300
-13 -300 -53 0 -15 4 -18 23 -12 12 4 24 10 27 14 6 9 96 20 175 20 33 1 537
1 1120 1 583 0 1114 4 1180 9 66 5 216 10 333 10 185 0 212 2 212 15 0 14 -29
15 -252 11 -139 -3 -718 -8 -1287 -11 l-1034 -6 7 43 c9 61 11 68 33 118 68
153 80 195 53 195 -8 0 -20 -19 -29 -46 -8 -25 -26 -53 -39 -63 -22 -17 -24
-17 -43 0 -15 14 -19 31 -19 90 0 67 -8 93 -24 77z"/>
<path d="M13253 11403 c-11 -15 -23 -36 -26 -45 -4 -10 -11 -18 -17 -18 -16 0
-12 -37 6 -44 22 -8 34 1 34 26 0 11 10 36 21 55 28 45 11 68 -18 26z"/>
<path d="M4896 11408 c-2 -7 -11 -33 -20 -58 -20 -57 -21 -100 -2 -100 13 0
23 35 29 98 1 12 5 22 10 22 4 0 7 11 7 25 0 26 -18 35 -24 13z"/>
<path d="M8651 11378 c0 -18 3 -27 6 -19 5 11 7 11 15 0 6 -10 8 -5 6 15 -4
43 -28 46 -27 4z"/>
<path d="M5690 11306 c0 -17 27 -29 35 -16 4 6 3 15 0 20 -9 15 -35 12 -35 -4z"/>
<path d="M10509 10991 c-47 -39 -113 -140 -188 -286 -51 -99 -67 -122 -94
-133 -29 -13 -30 -15 -14 -27 18 -13 17 -15 -3 -64 -23 -52 -21 -81 4 -81 10
0 14 10 14 28 -1 15 11 51 26 79 23 47 31 54 71 64 25 6 45 16 45 22 0 6 6 3
13 -8 8 -10 19 -15 26 -11 9 6 9 11 -1 23 -9 12 -24 14 -61 10 l-48 -6 61 117
c62 117 151 246 177 256 20 8 16 -43 -7 -87 -23 -43 -26 -69 -7 -61 17 6 53
78 61 122 6 36 -7 72 -27 72 -7 0 -28 -13 -48 -29z"/>
<path d="M4953 10848 c-16 -21 -79 -188 -93 -245 -6 -29 -16 -53 -21 -53 -15
0 -49 -39 -49 -55 0 -20 20 -19 37 3 12 15 13 6 8 -70 -6 -75 -5 -88 8 -88 9
0 16 8 16 18 -1 40 14 148 22 165 6 10 21 17 39 17 15 0 31 6 33 13 4 9 6 9 6
-1 1 -7 6 -10 12 -7 5 4 21 4 34 1 l24 -6 -28 -60 c-31 -65 -31 -96 1 -106 26
-8 116 53 124 84 8 29 -16 65 -66 98 -37 25 -46 26 -109 20 l-69 -6 13 43 c7
23 29 84 49 136 21 54 33 98 28 103 -5 5 -13 3 -19 -4z m147 -380 c0 -4 -19
-22 -42 -39 -52 -37 -59 -25 -27 42 l23 49 23 -22 c13 -12 23 -25 23 -30z"/>
<path d="M11022 10662 c-65 -141 -89 -176 -136 -207 -21 -14 -30 -15 -39 -6
-15 15 20 81 52 96 22 10 28 30 12 39 -26 17 -104 -86 -99 -130 6 -55 61 -57
121 -4 l34 29 11 -24 c14 -31 56 -48 99 -40 50 9 44 37 -5 29 -88 -14 -92 57
-11 218 27 54 49 107 49 118 0 49 -30 10 -88 -118z"/>
<path d="M7945 10759 c-19 -23 -23 -35 -15 -43 8 -8 16 -4 30 14 l20 25 0 -35
c0 -19 -14 -91 -30 -160 -35 -147 -40 -253 -12 -248 14 3 16 12 14 54 -2 31 8
98 27 181 17 72 31 156 31 187 0 48 -3 56 -19 56 -11 0 -31 -14 -46 -31z"/>
<path d="M10185 10748 c-13 -57 11 -91 26 -37 4 13 8 20 8 14 1 -5 5 -3 11 5
5 9 5 19 -2 27 -16 20 -37 15 -43 -9z"/>
<path d="M4587 10723 c7 -45 8 -47 23 -38 17 10 7 69 -13 73 -13 3 -15 -3 -10
-35z"/>
<path d="M2841 10708 c-5 -13 -15 -42 -21 -65 -24 -78 -95 -196 -139 -230 -24
-18 -49 -33 -57 -33 -18 0 -18 37 1 74 8 15 12 33 8 39 -3 5 -2 8 3 5 12 -8
80 49 71 59 -18 17 -64 -15 -95 -67 -51 -85 -35 -153 32 -136 51 13 113 82
163 184 41 84 51 97 73 97 16 0 26 6 28 18 3 15 0 18 -18 12 -19 -6 -21 -4
-18 26 4 39 -18 51 -31 17z"/>
<path d="M12537 10717 c-7 -19 8 -41 22 -33 6 4 11 2 11 -3 0 -6 7 -11 15 -11
21 0 19 23 -3 43 -22 20 -38 22 -45 4z"/>
<path d="M12210 10697 c0 -24 25 -48 43 -41 22 8 22 23 0 40 -23 17 -43 18
-43 1z"/>
<path d="M2537 10683 c-14 -13 -7 -33 11 -33 26 0 34 11 21 27 -13 14 -22 16
-32 6z"/>
<path d="M12003 10653 c-11 -15 -36 -57 -56 -93 -20 -36 -46 -76 -57 -90 l-21
-25 6 90 c6 95 -1 122 -30 111 -14 -5 -15 -9 -5 -20 8 -11 9 -42 4 -110 -6
-85 -5 -96 10 -102 25 -10 67 35 121 129 25 45 51 90 58 99 8 13 9 20 1 28 -9
9 -17 4 -31 -17z"/>
<path d="M7272 10637 c-15 -43 -15 -47 3 -47 8 0 15 4 15 9 0 5 9 7 20 4 23
-6 25 3 8 40 -17 36 -31 34 -46 -6z"/>
<path d="M9582 10633 c-11 -16 -29 -46 -40 -69 -11 -22 -57 -75 -101 -117 -45
-41 -81 -80 -81 -86 0 -25 29 -7 89 53 l64 65 25 -19 c22 -18 27 -18 60 -4 20
8 44 22 54 31 15 14 18 14 18 1 0 -17 31 -48 48 -48 17 0 15 19 -3 36 -13 13
-13 19 0 51 24 58 3 65 -48 16 -45 -44 -76 -63 -101 -63 -25 0 -19 20 24 90
22 36 40 71 40 78 0 22 -28 13 -48 -15z"/>
<path d="M10525 10650 c-9 -15 4 -30 26 -30 22 0 24 11 7 28 -15 15 -25 15
-33 2z"/>
<path d="M6022 10615 c-29 -37 -48 -111 -32 -130 19 -23 63 -18 111 15 44 29
44 29 47 7 6 -49 13 -65 38 -90 16 -16 36 -26 50 -25 31 3 31 16 0 28 -39 14
-56 48 -56 112 0 37 -4 58 -11 58 -7 0 -31 -18 -55 -40 -39 -36 -88 -59 -100
-48 -7 8 17 72 34 88 11 11 16 12 19 3 7 -20 33 -15 33 7 0 18 -26 40 -49 40
-5 0 -18 -11 -29 -25z"/>
<path d="M12307 10628 c-30 -24 -77 -91 -77 -111 0 -11 10 -31 22 -44 19 -20
20 -26 8 -33 -9 -5 -19 -5 -27 2 -15 12 -43 -6 -43 -28 0 -19 53 -18 90 1 37
19 38 38 5 67 -14 12 -25 28 -25 35 0 8 20 36 45 62 25 26 45 51 45 55 0 10
-25 7 -43 -6z"/>
<path d="M3209 10581 c-122 -107 -124 -197 -2 -126 l43 26 0 -34 c0 -37 15
-57 42 -57 22 0 98 39 98 50 0 18 -18 18 -46 -1 -63 -41 -84 -8 -44 71 34 67
20 96 -20 42 -21 -29 -127 -99 -135 -90 -8 8 115 128 132 128 19 0 12 24 -8
28 -9 1 -36 -15 -60 -37z"/>
<path d="M3473 10603 c-4 -10 -14 -23 -22 -30 -26 -19 -21 -96 7 -126 l24 -25
-22 -12 c-14 -7 -38 -10 -61 -6 -45 7 -53 -8 -13 -26 29 -13 108 3 133 27 11
11 9 17 -14 37 -37 32 -47 54 -40 89 5 22 11 28 24 24 12 -4 21 3 29 21 7 14
10 30 7 35 -10 16 -45 10 -52 -8z"/>
<path d="M7020 10607 c-50 -17 -52 -49 -5 -97 43 -44 41 -64 -6 -104 -30 -26
-38 -46 -16 -46 16 0 28 9 60 48 37 46 35 76 -9 116 -47 43 -39 60 28 54 50
-5 67 2 45 20 -21 18 -61 22 -97 9z"/>
<path d="M9863 10608 c-6 -7 -29 -51 -52 -97 -29 -61 -38 -88 -30 -95 7 -8 20
1 42 29 92 116 122 123 122 30 0 -33 4 -62 10 -65 15 -8 29 109 16 137 -12 25
-48 31 -82 13 -22 -12 -24 -7 -8 22 13 24 -2 46 -18 26z"/>
<path d="M12117 10613 c-2 -5 -14 -40 -27 -80 -24 -77 -21 -123 6 -123 11 0
15 6 11 19 -6 23 11 112 24 126 12 13 11 45 -2 45 -5 0 -7 5 -4 10 3 6 4 10 1
10 -3 0 -7 -3 -9 -7z"/>
<path d="M12887 10613 c-4 -3 -7 -15 -7 -25 0 -11 -10 -42 -21 -69 -37 -86 -4
-88 93 -7 l47 39 -6 -35 c-3 -22 -1 -42 7 -51 24 -28 153 -13 181 22 13 14 10
15 -21 10 -19 -4 -59 -10 -87 -13 -61 -8 -62 -5 -36 69 27 76 8 79 -73 8 -38
-33 -70 -58 -71 -57 -2 2 3 22 12 45 17 50 7 89 -18 64z"/>
<path d="M3007 10580 c-19 -16 -45 -50 -58 -75 -14 -27 -33 -48 -46 -51 -30
-8 -30 -34 0 -34 12 0 28 -9 35 -20 14 -23 66 -27 107 -8 32 15 35 43 3 33
-51 -16 -80 -17 -88 -4 -6 9 0 19 20 31 90 54 146 158 85 158 -13 0 -40 -13
-58 -30z m44 -17 c-14 -26 -71 -79 -71 -66 0 13 63 83 74 83 4 0 2 -8 -3 -17z"/>
<path d="M12481 10582 c-54 -76 -74 -172 -36 -172 20 0 29 18 16 34 -7 9 -1
31 24 81 37 72 34 110 -4 57z"/>
<path d="M4466 10591 c-3 -4 -19 -45 -36 -90 -32 -89 -38 -142 -17 -160 19
-15 26 -4 20 33 -3 22 6 61 30 124 19 50 32 94 29 97 -8 8 -20 6 -26 -4z"/>
<path d="M10110 10565 c-5 -14 -18 -44 -28 -68 -29 -64 -30 -70 -21 -95 11
-28 29 -20 29 13 0 13 14 53 30 90 17 37 27 71 24 76 -10 16 -24 9 -34 -16z"/>
<path d="M12701 10577 c-23 -7 -44 -26 -68 -63 -54 -82 -34 -112 53 -79 88 33
128 87 99 131 -17 26 -32 28 -84 11z m57 -44 c-2 -23 -14 -33 -61 -57 -32 -16
-60 -27 -62 -24 -10 10 46 76 77 91 45 22 50 21 46 -10z"/>
<path d="M4598 10539 c-57 -60 -72 -109 -32 -109 8 0 14 10 14 23 0 22 53 87
71 87 5 0 9 -38 9 -84 0 -49 4 -88 11 -91 16 -11 18 -4 20 75 1 90 -1 111 -14
128 -17 21 -39 13 -79 -29z"/>
<path d="M8103 10534 c-40 -43 -45 -46 -79 -40 -31 6 -35 5 -32 -11 2 -11 14
-19 31 -21 15 -2 27 -9 27 -16 0 -26 45 -56 86 -56 52 1 118 16 122 30 2 5 8
7 14 4 6 -4 8 -1 6 7 -3 8 -12 12 -19 10 -39 -12 -139 -23 -153 -18 -28 11
-18 36 20 46 65 18 102 69 72 99 -23 23 -52 12 -95 -34z m77 6 c0 -5 -12 -17
-27 -27 -16 -10 -31 -22 -35 -27 -4 -6 -10 -8 -13 -5 -3 4 8 20 24 38 29 31
51 40 51 21z"/>
<path d="M7200 10548 c0 -12 -11 -50 -26 -85 -24 -63 -25 -108 -1 -100 7 2 15
21 19 43 3 21 14 56 22 76 20 48 21 88 1 88 -9 0 -15 -9 -15 -22z"/>
<path d="M10705 10560 c-11 -4 -37 -26 -58 -49 -40 -45 -49 -88 -21 -115 20
-20 86 -21 124 -1 38 20 40 40 3 30 -16 -4 -46 -8 -68 -9 -34 -1 -40 2 -43 21
-2 15 5 27 25 39 77 47 93 60 93 77 0 18 -21 21 -55 7z"/>
<path d="M7367 10509 c-50 -41 -72 -83 -52 -99 11 -9 17 -5 30 23 9 19 29 43
45 55 l28 21 -1 -61 c-2 -53 1 -63 16 -66 21 -4 107 63 107 84 0 22 -16 17
-53 -16 -19 -16 -37 -30 -41 -30 -3 0 -5 26 -4 58 3 50 1 57 -17 60 -11 1 -37
-11 -58 -29z"/>
<path d="M7592 10506 c-29 -42 -26 -76 9 -95 33 -18 69 -9 113 30 l35 30 21
-41 c24 -47 42 -133 34 -164 -4 -18 -16 -24 -77 -33 -60 -10 -76 -16 -99 -42
-32 -35 -35 -70 -12 -106 20 -31 73 -49 106 -36 34 13 75 64 90 113 7 24 19
43 30 46 22 5 24 21 3 28 -10 4 -12 15 -9 33 12 56 -58 251 -89 251 -7 0 -21
-14 -31 -31 -10 -16 -33 -38 -52 -47 -32 -15 -36 -15 -51 1 -16 16 -16 19 5
46 12 17 22 35 22 41 0 21 -26 9 -48 -24z m193 -323 c-9 -41 -53 -103 -73
-104 -30 -2 -47 2 -64 18 -40 36 -6 92 63 103 81 13 82 13 74 -17z"/>
<path d="M2428 10483 c-28 -64 -25 -130 5 -120 7 2 11 19 9 38 -2 19 5 50 16
70 10 20 16 41 14 47 -8 24 -24 11 -44 -35z"/>
<path d="M13367 10484 c-14 -14 -7 -35 11 -32 9 2 17 10 17 17 0 16 -18 25
-28 15z"/>
<path d="M8573 10449 c-9 -9 -9 -16 -2 -25 17 -21 -63 -154 -94 -154 -16 0
-46 -30 -42 -43 13 -47 14 -48 35 -37 11 6 20 15 20 21 0 5 18 33 41 61 49 62
76 113 80 153 4 32 -17 45 -38 24z"/>
<path d="M10401 10446 c-18 -21 -19 -71 -2 -71 8 0 15 11 16 24 1 14 7 27 13
29 17 5 15 32 -2 32 -7 0 -19 -6 -25 -14z"/>
<path d="M5673 10156 c-26 -12 -33 -21 -33 -42 l0 -27 24 22 c36 33 88 43 123
21 43 -26 53 -43 61 -106 5 -41 3 -63 -5 -74 -72 -89 -125 -136 -178 -161 -33
-16 -70 -29 -82 -29 -22 0 -22 0 -6 48 9 26 22 51 30 55 7 5 13 25 13 48 0 32
-3 40 -17 37 -11 -2 -24 -29 -41 -83 -13 -44 -29 -86 -35 -93 -5 -7 -11 -36
-13 -65 -1 -29 -10 -73 -19 -100 -14 -42 -14 -49 -1 -62 25 -25 36 -17 36 27
0 23 5 68 12 100 11 55 13 58 43 58 85 0 245 122 280 214 42 109 -11 215 -112
223 -29 2 -61 -3 -80 -11z"/>
<path d="M6234 9948 c-20 -39 -74 -194 -74 -213 0 -17 -41 20 -46 41 -4 14
-11 23 -18 21 -23 -8 -16 -38 15 -70 19 -17 33 -34 32 -37 0 -3 -11 -52 -23
-109 -15 -76 -26 -109 -41 -118 -27 -20 -24 -33 7 -31 28 3 49 31 40 54 -3 8
-1 14 4 14 6 0 10 6 10 14 0 8 9 55 21 105 19 83 22 90 48 96 16 3 38 15 50
26 11 11 21 17 21 13 0 -3 7 -1 15 6 8 7 15 10 15 7 0 -3 -23 -64 -51 -136
-66 -170 -57 -188 46 -101 56 47 91 67 101 58 2 -3 0 -27 -5 -54 -6 -31 -6
-55 1 -67 16 -30 26 -7 30 67 2 54 0 71 -13 79 -25 16 -61 1 -112 -44 -26 -22
-47 -36 -47 -30 0 14 37 115 62 171 27 59 68 176 68 194 0 18 -30 30 -35 13
-2 -6 -8 -28 -14 -48 -7 -20 -24 -47 -39 -61 -27 -26 -91 -68 -103 -68 -10 0
34 138 59 187 26 50 26 53 7 53 -8 0 -22 -14 -31 -32z"/>
<path d="M12107 9963 c-4 -3 -7 -16 -7 -28 0 -49 -146 -377 -218 -489 -22 -34
-29 -53 -22 -60 14 -14 30 4 86 104 100 180 151 256 209 314 111 112 149 113
126 3 -17 -83 -59 -169 -121 -244 -49 -60 -60 -83 -41 -83 5 0 32 24 60 53
l50 52 35 -34 c20 -19 36 -43 36 -53 0 -10 12 -25 26 -35 23 -15 35 -15 108
-5 54 8 85 17 94 29 9 12 12 13 12 3 0 -11 3 -11 12 -2 21 21 4 22 -87 6 -87
-15 -135 -13 -135 6 0 6 9 10 20 10 12 0 38 9 59 20 71 36 91 73 49 89 -33 12
-77 -4 -115 -41 l-33 -32 -34 38 -35 37 25 49 c67 133 72 250 11 250 -33 0
-104 -48 -156 -105 -24 -27 -41 -40 -37 -29 40 100 57 156 52 169 -6 16 -18
19 -29 8z m333 -378 c0 -5 -76 -45 -86 -45 -12 0 20 32 41 40 23 10 45 12 45
5z"/>
<path d="M13481 9916 c-14 -63 -74 -191 -137 -292 -70 -113 -54 -125 51 -39
36 30 71 55 75 55 5 0 -4 -28 -20 -62 -29 -64 -33 -79 -31 -110 1 -23 51 -25
51 -3 0 8 -4 15 -10 15 -5 0 -10 7 -10 16 0 15 43 107 71 151 10 17 11 25 2
34 -15 15 -56 -1 -112 -42 l-39 -28 39 67 c78 133 131 292 97 292 -10 0 -19
-19 -27 -54z"/>
<path d="M4063 9913 c-16 -77 -80 -313 -102 -377 -20 -56 -20 -76 -1 -76 5 0
43 64 85 143 77 145 179 297 204 305 29 10 -13 -155 -64 -246 -30 -54 -31 -62
-6 -62 11 0 42 23 69 50 27 28 54 50 59 50 6 0 13 -15 17 -32 3 -18 21 -47 38
-65 36 -37 67 -41 141 -19 25 7 48 12 51 9 7 -7 46 16 46 27 0 6 -9 10 -20 10
-11 0 -20 -4 -20 -10 0 -5 -12 -8 -27 -8 -16 1 -45 -1 -65 -5 l-38 -8 25 25
c29 29 31 39 11 55 -11 10 -22 5 -51 -20 -40 -35 -47 -33 -65 26 -7 22 -18 43
-23 47 -13 8 -43 -6 -73 -33 -19 -18 -18 -13 8 64 16 48 28 104 28 135 0 48
-2 52 -24 52 -36 0 -106 -83 -198 -239 -22 -36 -37 -57 -34 -46 3 11 10 42 16
69 6 27 20 75 30 107 24 69 26 119 6 119 -8 0 -17 -19 -23 -47z"/>
<path d="M9641 9946 c-8 -10 -9 -16 -1 -21 16 -10 11 -74 -13 -165 l-24 -85
-64 -22 c-38 -13 -65 -28 -67 -37 -4 -21 7 -20 68 3 27 11 50 17 50 14 0 -21
-28 -94 -47 -123 -27 -40 -28 -50 -8 -50 18 0 58 70 80 141 15 51 20 57 55 68
20 6 40 11 44 11 13 0 5 -29 -25 -89 -31 -62 -32 -84 -3 -66 19 12 64 119 64
152 0 28 -37 40 -80 24 -28 -9 -31 -8 -26 7 37 122 46 221 22 241 -10 8 -16 8
-25 -3z"/>
<path d="M11329 9942 c-32 -22 -37 -29 -94 -172 -49 -123 -50 -125 -88 -133
-39 -9 -46 -33 -10 -31 20 0 20 0 1 -30 -10 -17 -26 -41 -35 -53 -14 -21 -14
-23 1 -29 19 -7 35 11 72 81 20 37 25 40 70 43 36 2 54 9 66 25 34 42 10 68
-25 27 -9 -11 -28 -20 -42 -20 l-25 0 22 53 c11 28 32 81 45 117 13 36 33 74
44 85 19 19 19 19 19 -2 0 -31 -10 -53 -25 -53 -14 0 -29 -29 -20 -38 12 -12
59 25 72 57 26 62 -2 105 -48 73z"/>
<path d="M13152 9893 c-41 -63 -65 -122 -58 -140 5 -12 15 -7 46 21 22 20 42
36 43 36 2 0 3 -19 3 -42 -1 -34 3 -43 18 -46 16 -3 18 0 12 22 -4 15 0 41 9
62 32 78 9 98 -44 39 -17 -20 -31 -31 -31 -24 0 20 34 69 48 69 16 0 12 42 -4
47 -6 2 -25 -18 -42 -44z"/>
<path d="M9800 9785 c0 -20 5 -25 25 -25 27 0 33 18 13 38 -20 20 -38 14 -38
-13z"/>
<path d="M7513 9738 c-21 -25 -38 -34 -67 -36 -105 -7 -178 -127 -110 -181 15
-11 30 -19 34 -16 4 3 11 -2 14 -10 10 -28 45 2 71 62 14 30 25 63 25 72 0 9
16 38 36 64 34 47 36 48 59 33 30 -20 35 -20 35 -2 0 16 -37 46 -56 46 -7 0
-25 -15 -41 -32z m-91 -141 c-23 -40 -35 -52 -53 -52 -56 0 -21 92 45 120 43
19 46 -1 8 -68z"/>
<path d="M9066 9695 l-75 -65 14 41 c18 51 19 59 2 59 -10 0 -87 -169 -87
-193 0 -21 34 2 109 76 46 45 80 73 76 62 -26 -72 -26 -74 -13 -102 17 -34 53
-35 98 -3 l30 21 0 -26 c0 -19 7 -28 28 -36 56 -22 152 33 152 87 0 28 -46 84
-69 84 -9 0 -22 5 -28 11 -7 7 -18 0 -37 -23 -42 -53 -79 -87 -111 -103 -30
-14 -30 -14 -33 15 -2 16 6 50 17 76 43 96 22 102 -73 19z m294 -58 c12 -22
12 -27 0 -43 -20 -23 -75 -45 -94 -38 -23 9 -19 43 10 85 21 31 30 36 47 30
12 -5 29 -20 37 -34z"/>
<path d="M7187 9719 c-53 -35 -94 -80 -113 -124 -7 -17 -34 -52 -61 -79 -26
-27 -43 -46 -36 -42 6 3 14 2 18 -4 3 -5 -3 -10 -14 -10 -17 0 -21 6 -21 35 0
19 7 55 15 80 9 25 13 50 10 55 -12 20 -33 9 -38 -19 -5 -22 -17 -34 -50 -50
-84 -40 -110 -21 -36 28 44 29 56 51 27 51 -16 0 -105 -68 -112 -85 -15 -40
53 -57 118 -30 l36 15 0 -52 c0 -37 -5 -58 -19 -72 -32 -35 -112 -155 -126
-189 -15 -37 -5 -67 25 -67 49 0 111 91 132 194 8 41 21 63 69 115 51 55 60
61 73 48 17 -17 97 -32 105 -19 3 5 30 21 59 37 28 15 52 31 52 35 0 17 -16
18 -49 0 l-37 -18 4 66 c3 49 10 73 24 89 18 20 18 43 -1 43 -4 0 -28 -14 -54
-31z m-9 -156 c-10 -21 -20 -28 -43 -28 -25 0 -30 4 -33 28 -2 18 1 27 10 27
8 0 27 14 44 31 l29 31 3 -31 c2 -17 -3 -43 -10 -58z m-282 -260 c-18 -51 -28
-66 -64 -97 -17 -15 -22 -16 -22 -4 0 17 90 161 97 154 3 -3 -2 -26 -11 -53z"/>
<path d="M8166 9688 c-4 -24 -18 -63 -31 -87 -14 -23 -25 -47 -25 -52 0 -16
29 -10 42 10 20 28 106 121 112 121 3 0 6 -16 6 -35 0 -23 6 -38 15 -41 9 -4
52 12 98 34 101 50 111 57 103 71 -5 7 -34 -3 -86 -29 -44 -22 -84 -40 -90
-40 -7 0 -10 16 -8 42 4 55 -17 61 -67 17 l-36 -32 3 29 c2 20 -2 29 -13 32
-13 2 -18 -7 -23 -40z"/>
<path d="M10187 9690 c-87 -61 -109 -69 -69 -28 31 33 41 58 23 58 -14 0 -112
-113 -108 -125 8 -20 59 -5 116 33 l58 40 -16 -45 c-16 -44 -16 -45 8 -64 25
-20 72 -19 79 2 2 5 10 9 18 9 8 0 14 5 14 10 0 7 -18 8 -50 4 -60 -8 -62 -2
-20 75 27 49 31 71 11 71 -4 0 -33 -18 -64 -40z"/>
<path d="M7881 9663 c-82 -91 -64 -135 33 -83 l55 29 -5 -28 c-7 -32 17 -57
43 -46 17 6 17 7 1 19 -22 16 -23 35 -2 65 11 16 13 26 6 33 -7 7 -31 -1 -77
-27 -37 -20 -68 -35 -71 -32 -2 2 21 30 51 61 30 32 55 60 55 62 0 2 -9 4 -19
4 -11 0 -42 -25 -70 -57z"/>
<path d="M14503 9703 c-15 -5 -18 -33 -4 -33 14 0 22 -91 10 -106 -13 -16 -55
-19 -63 -5 -3 5 8 26 24 47 21 25 27 41 21 47 -7 7 -30 -8 -68 -45 -55 -52
-145 -99 -160 -84 -4 4 6 31 22 61 24 43 27 57 17 67 -9 9 -22 8 -62 -9 l-51
-21 3 26 c3 22 -1 28 -22 30 -22 2 -49 -12 -138 -73 -55 -38 -114 -125 -84
-125 4 0 41 32 82 71 68 64 130 109 130 94 0 -4 -14 -27 -31 -51 -17 -25 -28
-52 -25 -60 5 -12 18 -6 63 29 32 25 68 48 80 52 23 6 23 6 -4 -45 -46 -88 -7
-107 106 -53 56 27 60 28 80 12 16 -13 29 -15 58 -9 60 14 71 39 54 128 -9 48
-19 62 -38 55z"/>
<path d="M13644 9661 c-55 -43 -91 -99 -81 -125 9 -22 25 -20 82 9 27 13 50
23 50 22 1 -1 6 -20 11 -42 5 -25 15 -40 24 -40 8 0 13 7 11 15 -2 8 -6 36 -9
63 -5 56 -15 58 -78 21 -25 -15 -47 -24 -50 -21 -8 7 19 47 31 47 6 0 26 16
45 35 23 24 31 38 24 45 -7 7 -26 -2 -60 -29z"/>
<path d="M13876 9670 c-62 -55 -99 -160 -56 -160 24 0 54 54 46 83 -3 13 5 29
25 49 26 26 34 29 66 23 31 -5 35 -4 29 10 -3 9 -6 19 -6 21 0 2 -16 4 -35 4
-24 0 -45 -9 -69 -30z"/>
<path d="M2388 9653 c-41 -44 -58 -73 -58 -102 0 -22 -13 -33 -43 -35 -11 -1
-22 -7 -25 -13 -6 -19 26 -27 53 -15 18 8 25 8 29 -4 8 -21 67 -54 96 -54 32
0 55 15 45 29 -4 8 -11 9 -18 2 -17 -13 -85 16 -92 40 -5 14 8 32 49 71 56 52
68 82 44 106 -20 20 -43 13 -80 -25z m62 -7 c0 -8 -18 -29 -41 -46 -28 -23
-38 -38 -34 -49 5 -12 3 -13 -5 -5 -14 14 -1 45 38 87 29 30 42 34 42 13z"/>
<path d="M7619 9622 c-57 -56 -69 -73 -69 -100 0 -22 6 -35 22 -43 30 -16 96
-14 141 5 38 15 50 36 21 36 -8 0 -13 -3 -11 -7 3 -5 -26 -9 -64 -11 -56 -3
-70 0 -75 12 -8 21 24 69 41 62 16 -6 101 48 109 71 7 18 -10 43 -31 43 -8 0
-45 -31 -84 -68z"/>
<path d="M9882 9683 c-16 -3 -22 -11 -20 -26 1 -12 -6 -39 -17 -60 -17 -34
-18 -39 -3 -53 14 -14 21 -14 53 -4 55 18 65 49 31 100 -14 22 -22 40 -16 40
5 0 10 -4 10 -10 0 -5 5 -10 10 -10 6 0 10 7 10 15 0 15 -13 17 -58 8z m32
-82 c6 -10 -10 -25 -36 -34 -21 -8 -20 12 2 30 18 15 27 16 34 4z"/>
<path d="M10965 9675 c-33 -17 -87 -91 -83 -114 2 -8 11 -19 20 -25 31 -19
168 42 168 75 0 11 -60 79 -69 79 -3 0 -20 -7 -36 -15z m65 -60 c0 -14 -47
-39 -93 -51 l-29 -7 15 30 c9 16 23 35 31 42 13 11 16 11 16 -3 0 -9 7 -16 15
-16 9 0 15 9 15 21 0 18 2 19 15 9 8 -7 15 -18 15 -25z"/>
<path d="M2780 9667 c-47 -24 -28 -63 22 -42 12 5 19 -2 29 -29 7 -20 16 -36
19 -36 3 0 3 -26 0 -57 l-5 -58 -42 -7 c-79 -13 -123 -48 -138 -109 -5 -19 0
-33 18 -54 20 -23 28 -27 53 -21 38 10 123 98 130 136 4 16 15 32 25 35 23 7
26 35 4 35 -11 0 -15 12 -15 48 -1 26 -8 65 -16 87 -8 22 -16 49 -17 60 -2 24
-33 30 -67 12z m68 -258 c-10 -5 -18 -15 -18 -21 0 -20 -50 -78 -81 -93 -36
-19 -49 -13 -49 25 0 45 39 74 125 93 34 8 41 7 23 -4z"/>
<path d="M5771 9654 c-7 -16 -8 -31 -3 -38 5 -6 12 -31 16 -56 4 -25 16 -54
27 -66 17 -19 18 -22 4 -34 -8 -7 -15 -21 -15 -32 0 -10 -4 -17 -9 -13 -16 9
-63 -81 -59 -112 4 -36 21 -33 29 5 5 27 44 99 59 112 23 19 100 145 96 156
-3 8 -2 14 2 14 7 0 42 63 42 75 0 3 -7 5 -15 5 -8 0 -30 -30 -49 -68 -59
-117 -76 -116 -86 2 -5 75 -19 92 -39 50z"/>
<path d="M6685 9658 c3 -13 9 -34 12 -48 6 -24 5 -24 -13 -9 -10 9 -28 19 -38
23 -19 6 -19 7 0 20 22 17 14 30 -14 22 -28 -9 -89 -74 -101 -106 -7 -21 -6
-33 6 -50 12 -18 22 -20 58 -16 50 5 80 19 94 44 8 13 10 9 11 -23 0 -40 29
-117 48 -129 15 -9 42 4 42 20 0 8 -7 14 -16 14 -8 0 -22 16 -30 35 -16 39
-19 145 -4 145 18 0 11 28 -14 54 -30 33 -51 34 -41 4z m-25 -94 c0 -22 -40
-44 -81 -44 -25 0 -24 30 1 63 18 23 23 24 50 14 21 -8 30 -18 30 -33z"/>
<path d="M14720 9660 c-49 -26 -120 -89 -120 -106 0 -25 28 -15 67 25 39 40
103 79 103 62 0 -5 -9 -28 -20 -52 -24 -54 -27 -109 -5 -109 9 0 15 9 15 25 0
14 11 53 25 86 20 48 23 64 14 75 -15 19 -37 17 -79 -6z"/>
<path d="M14870 9611 c-12 -23 -13 -61 -2 -77 14 -21 50 -25 89 -9 l38 16 -46
-48 c-75 -79 -125 -146 -193 -257 -16 -25 -16 -30 -3 -44 14 -13 17 -11 31 21
23 57 91 151 182 253 97 109 112 133 93 144 -7 5 -32 -5 -63 -26 -57 -38 -106
-45 -106 -16 0 10 5 23 11 29 12 12 4 33 -11 33 -5 0 -14 -9 -20 -19z"/>
<path d="M2617 9554 c-4 -4 -7 -11 -7 -16 0 -13 50 -6 53 7 2 12 -36 19 -46 9z"/>
<path d="M3030 9494 c0 -11 9 -14 37 -12 52 4 56 28 4 28 -30 0 -41 -4 -41
-16z"/>
<path d="M6050 9033 c-39 -45 -70 -95 -70 -112 0 -29 25 -55 45 -47 17 6 17 7
1 25 -16 17 -16 22 -2 49 8 16 31 43 50 60 20 17 36 36 36 42 0 20 -37 10 -60
-17z"/>
<path d="M7989 9035 c-15 -8 -29 -22 -33 -30 -5 -15 -8 -15 -23 1 -16 16 -18
15 -33 -7 -8 -13 -39 -50 -67 -81 -52 -57 -67 -85 -39 -75 9 4 4 -16 -16 -60
-16 -36 -27 -74 -25 -84 3 -10 -1 -20 -9 -23 -8 -3 -14 -13 -14 -23 0 -10 -7
-31 -15 -47 -16 -30 -5 -61 14 -40 13 13 61 165 56 175 -3 4 -1 9 4 11 5 1 27
39 50 83 38 74 72 125 84 125 3 0 29 14 56 32 28 17 54 28 57 25 4 -3 1 -20
-5 -38 -6 -17 -8 -35 -5 -40 3 -5 0 -9 -5 -9 -6 0 -11 -5 -11 -10 0 -6 -27
-67 -60 -137 -37 -78 -57 -130 -51 -136 12 -12 31 0 31 19 0 8 4 13 9 10 5 -3
24 17 42 44 35 51 49 61 49 35 0 -25 49 -68 71 -62 23 6 24 -2 4 -29 -22 -30
-19 -63 8 -69 28 -6 139 26 135 40 -3 11 -24 11 -86 0 -43 -8 -44 -8 -30 14 7
12 39 42 71 67 32 26 56 51 54 58 -6 18 -23 13 -56 -17 -17 -15 -31 -25 -31
-22 0 2 -12 0 -27 -6 -44 -17 -71 -4 -84 41 -13 42 -33 51 -58 28 -16 -15 -17
-17 29 90 17 40 32 92 33 115 2 38 0 42 -23 44 -14 2 -37 -4 -51 -12z"/>
<path d="M12399 8987 c-15 -34 -32 -95 -39 -135 l-12 -74 -49 -20 c-28 -12
-48 -26 -46 -32 4 -11 15 -12 57 -1 l25 6 -27 -23 c-26 -22 -38 -58 -20 -58
16 1 53 40 47 50 -3 5 1 10 9 10 9 0 16 7 16 15 0 10 10 15 33 15 17 0 50 3
72 7 l39 6 -32 -39 c-37 -44 -42 -88 -13 -104 24 -13 38 4 21 25 -13 16 -10
23 38 83 46 56 36 65 -62 60 -55 -2 -76 0 -76 9 0 37 33 160 55 203 30 59 30
60 8 60 -12 0 -26 -20 -44 -63z"/>
<path d="M6141 8998 c-45 -47 -63 -86 -51 -108 13 -25 30 -17 30 13 0 12 14
40 31 60 21 26 28 42 21 49 -6 6 -17 2 -31 -14z"/>
<path d="M11107 8985 c-16 -33 -59 -66 -119 -92 -21 -10 -26 -9 -23 0 3 7 7
23 10 37 2 14 8 37 11 53 5 19 2 27 -8 27 -8 0 -21 -27 -33 -72 -22 -80 -43
-99 -115 -104 -22 -1 -35 -7 -35 -15 0 -20 30 -22 80 -6 l44 16 -6 -32 c-3
-18 -14 -57 -24 -87 -26 -75 -26 -72 -11 -77 16 -6 47 64 63 145 l12 63 58 30
c33 16 59 26 59 22 0 -5 -13 -42 -30 -83 -30 -77 -38 -134 -20 -145 6 -4 32 7
59 24 58 37 61 38 61 6 0 -28 32 -65 55 -65 21 0 19 16 -5 40 -11 11 -20 33
-20 49 0 16 -6 31 -12 34 -16 6 -76 -19 -102 -41 -18 -16 -19 -16 -12 13 9 38
71 197 97 247 23 46 23 48 1 48 -11 0 -25 -14 -35 -35z"/>
<path d="M2586 8933 c-24 -38 -56 -93 -71 -123 -15 -30 -35 -66 -45 -80 -23
-34 -62 -150 -56 -166 7 -19 36 -18 36 1 0 8 -6 15 -12 15 -8 0 -9 3 -3 8 6 4
19 26 29 48 17 40 21 42 78 54 64 12 108 29 108 40 0 17 -16 16 -76 -2 -36
-11 -68 -18 -70 -16 -6 7 60 128 71 128 5 0 4 -5 -3 -12 -15 -15 -16 -51 0
-46 11 4 87 182 88 206 0 32 -34 6 -74 -55z"/>
<path d="M3121 8957 c-6 -8 -12 -22 -14 -33 -1 -10 -6 -25 -11 -33 -5 -8 -3
-16 5 -22 10 -6 11 -9 2 -9 -8 0 -13 -14 -13 -34 0 -18 -16 -77 -35 -130 -38
-105 -42 -126 -22 -126 12 0 90 100 174 225 43 64 93 116 93 98 0 -7 -5 -33
-10 -60 -23 -110 -50 -253 -50 -262 0 -22 28 -10 39 17 17 44 54 78 101 90 66
16 75 5 40 -48 -33 -49 -38 -91 -15 -110 17 -14 47 -6 95 27 19 13 50 33 68
44 17 12 32 25 32 30 0 19 -39 7 -81 -25 -24 -19 -56 -39 -71 -45 -24 -9 -28
-8 -28 7 0 9 14 37 30 62 36 55 38 77 6 91 -48 22 -165 -23 -151 -59 5 -13 4
-14 -6 -5 -10 10 -8 36 11 125 27 131 30 169 13 175 -20 7 -101 -76 -165 -169
-33 -49 -64 -90 -68 -93 -4 -3 7 42 26 100 33 103 43 168 25 179 -5 3 -14 0
-20 -7z"/>
<path d="M4880 8935 c-7 -8 -10 -15 -7 -15 11 0 -30 -104 -77 -199 -52 -102
-51 -130 3 -90 24 18 44 23 98 23 l68 1 -3 -31 c-4 -35 18 -64 49 -64 11 0 40
5 65 11 52 13 54 36 3 30 -104 -13 -111 2 -33 73 42 39 55 58 50 71 -5 15 -13
11 -51 -24 -24 -22 -46 -41 -48 -41 -3 0 -27 4 -54 9 -29 6 -65 6 -88 1 -22
-5 -40 -8 -42 -7 -1 1 11 27 26 57 45 90 77 188 65 200 -8 8 -15 6 -24 -5z"/>
<path d="M8744 8906 c-8 -21 -1 -49 14 -54 6 -2 12 3 12 12 0 9 7 16 15 16 18
0 19 12 3 28 -16 16 -37 15 -44 -2z"/>
<path d="M12630 8871 c0 -25 27 -48 41 -34 8 8 7 17 0 32 -14 26 -41 28 -41 2z"/>
<path d="M10243 8829 c-24 -24 -31 -28 -30 -14 4 38 -21 23 -37 -22 -9 -26
-26 -72 -38 -101 -11 -29 -17 -60 -13 -70 8 -20 2 -27 70 89 71 120 113 145
81 50 -20 -61 -20 -61 0 -61 9 0 41 23 72 50 31 28 60 50 65 50 5 0 6 -15 3
-34 -12 -61 54 -107 93 -64 27 28 12 46 -24 30 -14 -7 -28 -12 -30 -12 -3 0
-5 27 -5 60 0 52 -2 60 -19 60 -11 0 -41 -17 -68 -39 l-49 -38 0 46 c1 39 -2
46 -19 49 -12 1 -33 -10 -52 -29z"/>
<path d="M8433 8825 c-41 -17 -36 -32 23 -80 24 -20 44 -40 44 -45 0 -12 -62
-31 -91 -28 -16 2 -24 -2 -24 -12 0 -21 85 -19 119 3 37 24 33 44 -18 93 l-45
43 30 6 c31 7 41 35 12 35 -10 -1 -33 -7 -50 -15z"/>
<path d="M7547 8805 c-21 -14 -44 -25 -52 -25 -8 0 -22 -12 -32 -27 -9 -16
-37 -54 -61 -86 -35 -47 -40 -58 -27 -63 16 -7 33 8 119 109 45 54 105 98 107
80 4 -41 4 -63 -1 -63 -9 0 -70 -86 -70 -99 0 -6 6 -11 13 -11 14 0 67 72 67
92 0 8 5 19 11 25 6 6 9 28 7 49 -4 49 -29 55 -81 19z"/>
<path d="M8930 8823 c-57 -8 -70 -14 -70 -33 0 -21 15 -27 25 -10 3 6 18 10
33 10 25 0 23 -4 -32 -53 -40 -36 -57 -57 -52 -66 7 -10 13 -8 30 7 11 12 45
42 74 68 28 26 52 52 52 59 0 15 -25 22 -60 18z"/>
<path d="M9420 8815 c-14 -17 -5 -51 15 -59 27 -10 16 -44 -22 -71 -21 -14
-45 -25 -55 -25 -24 0 -31 -15 -13 -30 12 -10 23 -7 59 14 43 25 86 69 86 88
0 5 -11 20 -25 34 -14 14 -25 27 -25 29 0 11 29 4 40 -10 9 -11 16 -13 23 -6
15 15 -20 51 -48 51 -13 0 -28 -7 -35 -15z"/>
<path d="M10623 8782 c-70 -63 -90 -112 -45 -112 9 0 43 14 75 31 l58 30 -16
-38 c-19 -46 -12 -80 19 -94 30 -14 61 1 63 30 2 23 -25 29 -44 10 -8 -8 -13
-7 -18 1 -4 6 7 39 25 72 43 83 30 91 -60 39 -40 -22 -75 -41 -78 -41 -3 0 12
18 33 40 21 22 45 40 52 40 7 0 13 7 13 15 0 26 -33 16 -77 -23z"/>
<path d="M11393 8790 c-18 -10 -39 -30 -48 -43 -10 -16 -22 -23 -34 -20 -31 8
-32 -13 -4 -56 27 -41 77 -66 108 -55 23 9 5 33 -28 36 -35 3 -53 38 -20 38
10 0 37 9 61 20 35 16 42 24 42 48 0 28 -15 52 -34 52 -6 0 -25 -9 -43 -20z
m47 -30 c0 -13 -60 -43 -68 -35 -9 8 36 45 54 45 8 0 14 -4 14 -10z"/>
<path d="M11991 8765 c-40 -29 -61 -52 -61 -65 0 -32 21 -33 95 -5 37 14 69
25 71 25 1 0 0 -16 -3 -35 -5 -32 -4 -35 20 -35 23 0 25 3 25 50 0 49 -1 50
-32 50 -17 0 -51 -9 -75 -20 -24 -11 -46 -19 -48 -16 -7 6 58 56 73 56 15 0
19 26 5 34 -5 3 -36 -14 -70 -39z"/>
<path d="M13093 8790 c-46 -28 -45 -72 2 -134 l35 -46 -25 0 c-15 0 -25 6 -25
14 0 25 -18 28 -30 6 -16 -29 3 -50 45 -50 75 0 83 23 30 89 -57 71 -41 109
40 98 35 -5 45 -3 45 8 0 18 -7 22 -50 29 -26 5 -44 1 -67 -14z"/>
<path d="M5672 8774 c-48 -29 -64 -59 -56 -102 5 -23 1 -32 -20 -45 -14 -9
-32 -17 -41 -17 -8 0 -15 -7 -15 -15 0 -24 45 -18 79 11 26 21 31 33 31 68 0
46 12 62 68 90 17 9 32 21 32 26 0 18 -34 10 -78 -16z"/>
<path d="M11766 8755 c-31 -25 -57 -45 -59 -45 -3 0 -4 16 -3 36 1 21 -4 39
-11 41 -18 6 -133 -106 -133 -129 0 -30 16 -21 69 40 l51 57 -17 -58 c-9 -31
-13 -60 -10 -63 3 -3 41 23 84 58 106 87 103 86 86 27 -21 -70 -12 -99 30 -99
39 0 52 8 61 38 6 19 4 22 -18 22 -16 0 -26 -6 -26 -15 0 -8 -7 -15 -15 -15
-18 0 -18 2 0 70 8 30 15 61 15 68 0 26 -51 11 -104 -33z"/>
<path d="M7346 8781 c-3 -4 -30 -27 -59 -49 -59 -46 -122 -67 -111 -38 4 10 1
16 -9 16 -21 0 -30 -16 -22 -40 9 -28 58 -26 111 5 l42 25 -39 -91 c-22 -50
-36 -95 -33 -101 4 -6 2 -8 -3 -5 -13 8 -33 -44 -33 -84 0 -23 5 -29 21 -29
16 0 19 4 14 18 -12 27 -10 32 34 125 22 48 41 91 41 96 0 5 12 29 26 55 14
25 22 46 17 46 -4 0 0 5 10 11 9 5 17 19 17 29 0 20 -15 27 -24 11z"/>
<path d="M9180 8754 c-27 -19 -50 -31 -50 -28 0 4 -6 1 -13 -5 -8 -6 -15 -31
-15 -55 -2 -50 14 -66 65 -66 45 1 126 25 131 40 4 10 -5 12 -44 5 -91 -15
-119 -12 -119 10 0 11 -4 24 -10 28 -6 5 -3 7 7 4 9 -3 21 0 27 7 6 7 31 21
56 31 30 11 45 23 45 35 0 32 -28 30 -80 -6z"/>
<path d="M6956 8761 c-28 -9 -52 -23 -54 -29 -3 -11 20 -37 66 -74 12 -10 22
-27 22 -38 0 -25 -59 -90 -67 -72 -8 21 -33 13 -43 -14 -21 -56 19 -59 79 -7
77 65 82 124 17 167 -15 9 -26 20 -26 24 0 5 22 15 49 24 40 13 52 13 72 2 32
-18 49 -17 49 1 0 36 -85 44 -164 16z"/>
<path d="M8679 8738 c-40 -50 -59 -84 -51 -92 7 -8 47 -7 55 1 4 3 2 12 -5 20
-9 11 -4 21 21 47 25 26 31 38 24 50 -8 14 -15 10 -44 -26z"/>
<path d="M12710 8740 c-71 -39 -87 -63 -66 -95 29 -44 133 -54 234 -23 31 9
41 37 11 30 -60 -16 -146 -21 -180 -12 -65 18 -50 46 46 85 31 12 56 26 56 31
-1 20 -49 12 -101 -16z"/>
<path d="M4588 8750 c-31 -19 -85 -105 -113 -180 -16 -41 -37 -88 -47 -105
-10 -16 -18 -37 -18 -47 0 -9 -5 -18 -10 -20 -6 -2 -12 -17 -13 -33 -4 -58 24
-30 69 68 25 54 60 122 79 152 37 57 41 71 25 77 -12 4 47 68 61 68 16 0 10
-42 -12 -87 -12 -24 -44 -69 -72 -99 -39 -43 -47 -58 -38 -67 10 -9 22 -1 57
38 69 77 96 130 98 189 1 47 -1 51 -24 53 -14 2 -33 -2 -42 -7z"/>
<path d="M2265 8736 c-15 -11 -17 -17 -7 -28 9 -12 7 -17 -11 -27 -12 -6 -33
-27 -46 -47 -20 -29 -22 -38 -13 -60 7 -13 19 -27 27 -30 51 -20 155 44 155
95 0 28 -36 71 -59 71 -10 0 -11 3 -2 13 21 27 -12 36 -44 13z m73 -92 c6 -42
-107 -96 -122 -59 -10 27 56 87 91 83 20 -2 29 -9 31 -24z"/>
<path d="M4373 8735 c-56 -24 -63 -67 -19 -105 24 -19 19 -43 -14 -75 -27 -26
-31 -45 -10 -45 5 0 22 14 39 31 38 38 41 82 9 117 l-23 24 24 19 c30 24 73
26 69 3 -4 -25 19 -28 27 -4 14 45 -37 63 -102 35z"/>
<path d="M5427 8711 l-38 -29 -24 24 c-46 46 -130 22 -174 -50 -25 -41 -24
-69 2 -74 30 -6 67 7 67 24 0 12 -7 14 -31 9 -28 -6 -30 -5 -20 13 16 29 70
72 91 72 45 0 66 -30 39 -57 -6 -6 -9 -21 -7 -34 3 -22 8 -24 57 -24 39 1 57
6 66 19 10 13 14 14 18 4 3 -8 6 -6 6 6 1 14 -4 17 -21 12 -49 -13 -98 -18
-98 -10 0 5 22 21 48 36 56 31 87 62 77 77 -9 16 -16 14 -58 -18z"/>
<path d="M8796 8648 c-22 -31 -20 -45 8 -63 17 -12 36 -14 63 -10 57 10 103
25 103 35 0 17 -17 19 -61 6 -55 -15 -103 -8 -89 14 25 38 2 55 -24 18z"/>
<path d="M11458 8653 c-10 -2 -18 -11 -18 -20 0 -11 7 -13 33 -8 39 9 47 13
47 26 0 9 -31 10 -62 2z"/>
<path d="M9970 8558 c-7 -23 -25 -68 -41 -100 -16 -32 -29 -60 -29 -63 0 -3 0
-9 0 -15 0 -15 -42 -50 -62 -50 -10 0 -18 -7 -18 -16 0 -12 7 -15 26 -11 19 3
24 1 20 -10 -3 -8 -6 -19 -6 -24 0 -6 -12 -21 -26 -34 -29 -26 -25 -46 6 -38
23 6 44 38 35 53 -3 6 -2 10 3 10 6 0 17 18 26 40 14 36 19 40 53 42 21 0 50
0 65 -1 29 -2 45 13 26 25 -6 4 -36 7 -65 6 -30 -1 -53 3 -53 9 0 5 16 44 36
87 38 81 47 122 27 129 -7 3 -17 -13 -23 -39z"/>
<path d="M5437 8528 c-14 -22 -108 -193 -148 -268 -29 -52 -8 -60 41 -16 54
49 129 96 153 96 16 0 13 -9 -20 -70 -30 -54 -35 -72 -26 -81 10 -10 18 -10
38 -1 28 13 33 29 10 34 -13 2 -11 10 10 40 53 79 39 131 -29 108 -19 -6 -53
-25 -76 -41 l-42 -30 43 83 c23 46 51 95 61 110 20 28 24 58 8 58 -5 0 -16
-10 -23 -22z"/>
<path d="M13832 8473 c-67 -76 -95 -124 -86 -147 10 -25 34 -19 34 8 0 29 89
146 106 139 12 -5 36 51 27 61 -12 12 -22 4 -81 -61z"/>
<path d="M8577 8473 c-8 -16 -26 -60 -41 -100 -15 -39 -41 -90 -57 -113 -27
-37 -82 -80 -102 -80 -20 0 1 58 31 88 30 31 42 62 24 62 -11 0 -67 -60 -81
-87 -30 -59 3 -106 60 -83 52 22 140 135 153 197 8 39 28 82 42 87 19 7 19 56
-1 56 -8 0 -21 -12 -28 -27z"/>
<path d="M5161 8394 c-28 -30 -51 -60 -51 -65 0 -5 -5 -8 -10 -6 -16 3 -115
-237 -105 -254 21 -32 45 6 84 132 26 81 128 225 147 206 12 -12 -20 -72 -59
-110 -21 -20 -35 -42 -32 -47 27 -43 125 86 125 165 0 56 -36 48 -99 -21z"/>
<path d="M6163 8434 c-7 -18 12 -34 40 -34 23 0 22 27 -2 40 -26 13 -31 13
-38 -6z"/>
<path d="M9712 8415 c-47 -33 -65 -61 -59 -93 13 -66 13 -66 -23 -78 -41 -14
-49 -41 -10 -35 34 4 80 29 86 46 3 8 -1 24 -10 37 -24 33 -20 53 17 84 17 15
31 30 30 34 -1 3 11 4 28 2 22 -3 29 0 29 12 0 24 -49 19 -88 -9z"/>
<path d="M5918 8377 c-74 -49 -87 -84 -44 -113 33 -21 33 -32 1 -40 -28 -7
-34 -34 -7 -34 25 0 62 28 62 48 0 9 -12 28 -26 44 l-27 27 31 29 c17 16 45
33 63 38 36 10 48 28 25 37 -9 4 -42 -12 -78 -36z"/>
<path d="M9323 8356 c-44 -44 -54 -60 -51 -83 5 -42 41 -41 121 2 37 19 69 35
72 35 2 0 -5 -20 -16 -44 -10 -24 -16 -51 -13 -60 8 -22 47 -30 73 -16 12 6
21 8 21 5 0 -3 9 -1 20 5 11 6 20 17 20 25 0 18 2 18 -50 0 -53 -19 -50 -19
-50 4 0 10 16 43 35 72 23 32 32 56 26 62 -5 5 -47 -10 -111 -42 -56 -28 -106
-51 -111 -51 -20 0 -7 25 35 66 46 47 67 56 59 25 -7 -29 16 -35 28 -7 16 34
5 56 -27 56 -19 0 -43 -16 -81 -54z"/>
<path d="M6610 8387 c-31 -16 -37 -54 -15 -101 23 -47 16 -76 -24 -103 -32
-22 -35 -22 -47 -5 -12 15 -15 15 -24 2 -40 -60 39 -67 105 -9 28 25 35 38 35
68 -1 20 -7 47 -15 61 -21 38 -18 57 11 64 14 4 24 12 22 18 -6 18 -20 19 -48
5z"/>
<path d="M11775 8392 c-27 -19 -299 -359 -320 -399 -18 -35 -20 -86 -3 -81 7
3 16 20 21 39 7 32 93 146 266 354 37 44 60 80 55 85 -5 5 -14 6 -19 2z"/>
<path d="M10059 8333 c-28 -26 -59 -64 -70 -85 -23 -46 -25 -98 -4 -98 9 0 15
9 15 25 0 14 9 43 19 64 20 39 93 111 112 111 6 0 20 -11 31 -25 37 -47 53
-24 17 26 -30 43 -60 38 -120 -18z"/>
<path d="M3440 8341 c0 -22 15 -29 47 -23 29 6 30 28 1 36 -38 10 -48 7 -48
-13z"/>
<path d="M5697 8297 l-58 -62 4 35 c3 19 8 46 12 59 7 19 5 22 -11 19 -14 -2
-22 -16 -28 -52 -12 -58 0 -82 38 -79 l26 2 -37 -57 c-19 -31 -46 -73 -59 -92
-39 -57 -26 -138 14 -95 13 13 14 19 5 22 -21 8 -16 22 45 117 113 175 147
249 114 245 -4 0 -33 -28 -65 -62z"/>
<path d="M6231 8313 c-45 -53 -51 -81 -22 -107 14 -13 28 -15 62 -10 96 15
103 45 9 37 -75 -7 -79 8 -19 67 36 35 44 60 19 60 -5 0 -27 -21 -49 -47z"/>
<path d="M3201 8321 c-17 -16 -31 -31 -31 -34 0 -3 9 -26 20 -51 21 -49 15
-62 -26 -52 -19 5 -24 3 -24 -14 0 -16 7 -20 34 -20 69 0 79 17 51 83 -21 50
-19 62 10 75 27 12 34 42 11 42 -8 0 -28 -13 -45 -29z"/>
<path d="M10527 8321 c-29 -35 -107 -173 -107 -190 0 -24 24 -8 96 62 41 39
79 73 84 75 5 2 4 -12 -1 -32 -11 -40 2 -76 26 -76 12 0 14 8 9 38 -4 29 -1
50 16 82 39 77 -1 76 -87 -3 -24 -22 -45 -38 -48 -35 -9 8 46 78 61 78 9 0 14
6 12 13 -8 23 -35 18 -61 -12z"/>
<path d="M11290 8329 c-19 -12 -48 -33 -63 -48 l-28 -26 10 26 c11 30 -1 49
-32 49 -28 0 -58 -18 -109 -68 -37 -36 -46 -41 -41 -23 3 12 14 28 24 34 22
14 25 37 5 37 -32 0 -81 -95 -74 -142 4 -28 26 -35 35 -11 9 25 92 111 125
129 48 25 50 15 9 -43 -67 -95 -13 -94 87 1 84 79 122 94 101 39 -13 -35 -11
-69 5 -82 19 -16 66 7 94 46 l20 27 7 -35 c4 -19 12 -40 17 -46 13 -16 52 -17
79 -3 32 18 23 33 -16 26 -32 -6 -36 -4 -46 21 -6 15 -8 40 -5 55 13 64 -23
78 -53 21 -20 -40 -67 -90 -76 -81 -3 3 -2 23 3 45 16 71 -13 91 -78 52z"/>
<path d="M2583 8325 c-12 -8 -36 -38 -54 -65 -18 -28 -34 -50 -36 -50 -2 0 -2
4 1 9 10 16 -6 71 -21 71 -9 0 -13 -10 -12 -32 2 -18 -7 -59 -19 -91 -23 -61
-27 -92 -14 -101 8 -5 43 45 117 164 35 56 41 42 15 -35 -39 -113 -18 -114 83
-4 l74 81 -4 -74 c-4 -56 -1 -78 11 -93 13 -17 17 -18 26 -5 8 12 10 13 10 1
0 -8 3 -11 7 -8 3 4 -2 16 -11 26 -14 16 -17 35 -14 107 4 122 -7 122 -116 -6
-21 -25 -35 -36 -31 -25 4 11 12 44 18 72 13 62 3 81 -30 58z"/>
<path d="M10259 8310 c-32 -16 -64 -39 -73 -52 -22 -30 -20 -65 3 -77 28 -15
117 13 137 44 17 25 16 107 -1 111 -5 1 -35 -11 -66 -26z m51 -39 c0 -26 -46
-61 -81 -61 -16 0 -29 4 -29 8 0 20 70 69 103 71 4 1 7 -8 7 -18z"/>
<path d="M3580 8274 c-99 -95 -123 -152 -68 -170 28 -9 175 15 188 31 18 21
-1 23 -85 9 -44 -8 -86 -12 -93 -9 -21 8 14 59 82 121 43 39 57 57 49 65 -8 8
-28 -5 -73 -47z"/>
<path d="M6030 8264 c-48 -50 -51 -57 -37 -71 20 -20 50 -10 43 15 -4 12 5 29
29 52 33 32 45 60 26 60 -4 0 -32 -25 -61 -56z"/>
<path d="M7924 8310 c-31 -12 -102 -97 -109 -132 -11 -50 40 -66 88 -28 14 11
29 20 33 20 4 0 34 21 66 46 32 25 58 43 58 41 0 -3 -11 -29 -25 -59 -48 -102
-28 -104 65 -5 65 67 69 70 70 45 0 -27 30 -68 50 -68 14 0 13 23 -1 37 -7 7
-15 29 -18 50 -9 51 -29 52 -79 3 -46 -44 -50 -44 -26 2 20 38 7 56 -27 37
-13 -7 -58 -38 -99 -69 -41 -31 -85 -60 -97 -64 -36 -11 -29 23 13 72 34 40
66 53 79 32 9 -15 35 -12 35 5 0 21 -51 44 -76 35z"/>
<path d="M10780 8277 c-14 -23 -31 -58 -38 -77 -12 -32 -11 -36 10 -53 25 -21
76 -17 116 9 29 19 36 37 27 71 -6 26 -65 93 -81 93 -5 0 -20 -19 -34 -43z
m75 -33 c22 -35 11 -61 -32 -73 -59 -17 -68 4 -31 68 24 42 38 43 63 5z"/>
<path d="M2990 8285 c0 -9 7 -27 16 -40 15 -23 14 -25 -20 -47 -37 -24 -43
-33 -27 -42 11 -7 70 33 85 56 8 13 8 23 -2 38 -6 11 -12 27 -12 35 0 8 -9 15
-20 15 -11 0 -20 -7 -20 -15z"/>
<path d="M3351 8234 c-17 -27 -31 -59 -31 -70 0 -28 29 -39 49 -20 13 14 13
16 -2 22 -15 5 -14 11 10 51 18 31 23 47 15 55 -7 7 -20 -4 -41 -38z"/>
<path d="M2860 8245 c-17 -44 -12 -93 9 -105 32 -17 71 -13 71 8 0 13 -8 18
-27 17 -25 0 -28 4 -27 30 0 17 2 39 5 49 6 30 -20 31 -31 1z"/>
<path d="M11935 8149 c-44 -33 -59 -54 -50 -69 7 -12 105 69 105 88 0 18 -11
15 -55 -19z"/>
<path d="M3922 8124 c-15 -26 -57 -90 -94 -142 -68 -96 -80 -122 -54 -122 21
0 66 39 60 54 -5 12 72 139 125 208 25 31 27 48 6 48 -9 0 -28 -21 -43 -46z"/>
<path d="M6767 8103 c-31 -38 -57 -76 -57 -85 0 -26 29 -22 39 5 5 12 28 44
50 71 38 45 52 76 33 76 -4 0 -33 -30 -65 -67z"/>
</g>
</svg>
